<svg width="187" height="48" fill="none" xmlns="http://www.w3.org/2000/svg"><path d="M9.434.372.21 5.67l9.224 5.297L.21 16.178l9.224 5.297L.21 26.69l9.224 5.296L21.425 25.2l6.541 6.786V21.517l9.224-5.296L9.434.372ZM26.289 27.6 11.111 11.876l15.178 8.607V27.6ZM186.79 24h-3.27v-5.297h-2.935V24h-3.354v2.814h3.354v13.738h2.935v-13.78h3.27V24Zm-16.771-.414a5.597 5.597 0 0 0-2.812.585 5.515 5.515 0 0 0-2.136 1.898V24h-2.935v16.552h2.935v-9.476a4.798 4.798 0 0 1 .248-1.95 4.835 4.835 0 0 1 1.01-1.692 4.375 4.375 0 0 1 2.935-1.158 3.463 3.463 0 0 1 2.516.91 3.411 3.411 0 0 1 .922 2.648v10.594h2.935V29.669a7.14 7.14 0 0 0-.754-3.31 5.584 5.584 0 0 0-2.013-2.152 6.29 6.29 0 0 0-2.851-.662v.041Zm-24.109 7.49a5.455 5.455 0 0 1 1.845-3.476 5.801 5.801 0 0 1 3.774-1.324 5.378 5.378 0 0 1 3.522 1.241c.52.447.944.992 1.246 1.603.303.611.478 1.276.515 1.956H145.91Zm13.837 2.483a7.07 7.07 0 0 0 .083-1.325 9.89 9.89 0 0 0-1.006-4.386 8.183 8.183 0 0 0-2.851-3.227 7.623 7.623 0 0 0-4.361-1.159 9.194 9.194 0 0 0-4.528 1.159 8.04 8.04 0 0 0-3.102 3.145 8.83 8.83 0 0 0-1.091 4.468 8.83 8.83 0 0 0 1.091 4.47 8.04 8.04 0 0 0 3.102 3.144 9.194 9.194 0 0 0 4.528 1.159 8.804 8.804 0 0 0 4.864-1.407 7.034 7.034 0 0 0 2.767-3.641h-3.018a3.576 3.576 0 0 1-1.761 1.738 6.405 6.405 0 0 1-6.625-.58 5.54 5.54 0 0 1-1.929-3.558h13.837Zm-28.302 4.51a6.272 6.272 0 0 1-3.019-.745 6 6 0 0 1-2.18-2.152 6.26 6.26 0 0 1 0-5.958 6 6 0 0 1 2.18-2.152 6.484 6.484 0 0 1 6.038 0 6 6 0 0 1 2.18 2.152 6.26 6.26 0 0 1 0 5.958 6 6 0 0 1-2.18 2.152 6.272 6.272 0 0 1-3.019.745ZM137.399 24v2.897a7.454 7.454 0 0 0-2.684-2.4 7.844 7.844 0 0 0-3.689-.91 8.725 8.725 0 0 0-4.277 1.158 8.05 8.05 0 0 0-3.103 3.145 8.506 8.506 0 0 0-1.174 4.303 8.819 8.819 0 0 0 1.174 4.386 8.635 8.635 0 0 0 3.103 3.145 8.258 8.258 0 0 0 4.277 1.159 7.715 7.715 0 0 0 3.607-.867 7.596 7.596 0 0 0 2.766-2.444v2.318a4.999 4.999 0 0 1-.326 2.006 5.04 5.04 0 0 1-1.1 1.718 5.835 5.835 0 0 1-4.109 1.324 5.687 5.687 0 0 1-2.767-.58 4.549 4.549 0 0 1-1.845-1.406 2.886 2.886 0 0 1-.587-1.738h-2.935a5.331 5.331 0 0 0 1.174 3.31 6.86 6.86 0 0 0 3.019 2.235 9.327 9.327 0 0 0 3.941.827c1.448.003 2.88-.308 4.193-.91a7.37 7.37 0 0 0 3.103-2.648 7.583 7.583 0 0 0 1.174-4.221V24h-2.935Zm-20.461 16.552h2.977V24h-2.935l-.042 16.552Zm0-19.531h2.977v-3.642h-2.935l-.042 3.642Zm-6.541 19.53h2.935V16.677h-2.935v23.876Zm-6.541 0h2.935V16.677h-2.935v23.876Zm-16.268-9.434a5.456 5.456 0 0 1 1.845-3.476 5.8 5.8 0 0 1 3.773-1.324 5.377 5.377 0 0 1 3.522 1.242c.52.446.945.991 1.247 1.602.303.612.478 1.277.514 1.956H87.588Zm13.836 2.483c.07-.438.098-.881.084-1.324a9.903 9.903 0 0 0-1.006-4.386 8.186 8.186 0 0 0-2.851-3.228 7.623 7.623 0 0 0-4.36-1.159 9.193 9.193 0 0 0-4.529 1.16 8.044 8.044 0 0 0-3.103 3.144 8.836 8.836 0 0 0-1.09 4.469 8.835 8.835 0 0 0 1.09 4.469 8.044 8.044 0 0 0 3.103 3.145 9.193 9.193 0 0 0 4.528 1.158 8.805 8.805 0 0 0 4.864-1.407A7.033 7.033 0 0 0 100.92 36h-3.019a3.574 3.574 0 0 1-1.76 1.738 6.403 6.403 0 0 1-6.625-.58 5.23 5.23 0 0 1-1.328-1.587 5.165 5.165 0 0 1-.601-1.971h13.836ZM84.15 24h-3.27v-5.297h-2.894V24h-3.354v2.814h3.354v13.738h2.935v-13.78h3.27L84.15 24ZM63.73 38.193a6.27 6.27 0 0 1-3.018-.745 6 6 0 0 1-2.18-2.151 6.266 6.266 0 0 1 0-5.96 5.424 5.424 0 0 1 2.18-2.15 6.483 6.483 0 0 1 6.038 0 5.999 5.999 0 0 1 2.18 2.15 6.265 6.265 0 0 1 0 5.96 5.424 5.424 0 0 1-2.18 2.151 5.821 5.821 0 0 1-3.02.745Zm5.997-20.814v9.435a7.273 7.273 0 0 0-2.758-2.438 7.385 7.385 0 0 0-3.615-.79 8.18 8.18 0 0 0-4.193 1.159 8.643 8.643 0 0 0-3.103 3.145 8.79 8.79 0 0 0-1.174 4.386 8.79 8.79 0 0 0 1.174 4.386 8.643 8.643 0 0 0 3.103 3.145 8.18 8.18 0 0 0 4.192 1.158 7.57 7.57 0 0 0 3.69-.827 8.222 8.222 0 0 0 2.684-2.4v2.814h2.935V17.379h-2.935ZM43.312 38.234a6.271 6.271 0 0 1-3.02-.744 6 6 0 0 1-2.18-2.152 6.265 6.265 0 0 1 0-5.959 5.424 5.424 0 0 1 2.18-2.151 6.483 6.483 0 0 1 6.039 0 5.998 5.998 0 0 1 2.18 2.151 6.265 6.265 0 0 1 0 5.959 5.424 5.424 0 0 1-2.18 2.152 5.822 5.822 0 0 1-3.02.744ZM49.266 24v2.814a7.272 7.272 0 0 0-2.758-2.438 7.385 7.385 0 0 0-3.616-.79 8.556 8.556 0 0 0-4.282 1.163 8.41 8.41 0 0 0-3.097 3.14 8.79 8.79 0 0 0-1.174 4.387 8.79 8.79 0 0 0 1.174 4.386 8.411 8.411 0 0 0 3.098 3.141 8.555 8.555 0 0 0 4.282 1.163 7.57 7.57 0 0 0 3.69-.828 8.222 8.222 0 0 0 2.683-2.4v2.814H52.2V24h-2.935Z" fill="#000"/></svg>