<svg width="107" height="42" fill="none" xmlns="http://www.w3.org/2000/svg"><path d="m56.176 20.676.351-.176c.264-.105.563-.299.914-.58a8.025 8.025 0 0 0 1.037-1.02c.352-.386.65-.914.897-1.546a5.726 5.726 0 0 0 .387-2.075c0-1.986-.774-3.656-2.32-4.992-1.547-1.336-3.604-2.021-6.135-2.021-1.108 0-2.163.14-3.164.421-1.02.282-1.828.58-2.426.897a9.455 9.455 0 0 0-1.723 1.143c-.527.457-.861.755-1.002.931-.14.176-.246.299-.316.387l3.234 3.234.545-.58c.352-.369.914-.756 1.723-1.16a5.928 5.928 0 0 1 2.584-.598c1.054 0 1.898.282 2.513.809.598.545.915 1.23.915 2.074 0 .914-.317 1.653-.932 2.215-.615.563-1.442.844-2.496.844h-2.514v4.5h2.707c1.283 0 2.285.316 3.023.914.739.615 1.108 1.389 1.108 2.32 0 .95-.387 1.723-1.125 2.32-.738.616-1.81.915-3.2.915a7.02 7.02 0 0 1-2.02-.282c-.651-.175-1.178-.386-1.6-.633a7.872 7.872 0 0 1-1.178-.826c-.387-.316-.615-.527-.72-.65a1.921 1.921 0 0 1-.23-.299l-3.251 3.41.369.405c.228.298.615.632 1.142 1.02.528.386 1.16.755 1.864 1.142.703.386 1.6.72 2.707 1.002 1.107.28 2.267.404 3.463.404 2.812 0 5.062-.738 6.785-2.233 1.723-1.476 2.584-3.251 2.584-5.326a6.54 6.54 0 0 0-.492-2.513c-.334-.774-.703-1.371-1.09-1.81a7.165 7.165 0 0 0-1.354-1.143c-.527-.334-.879-.545-1.09-.633a8.21 8.21 0 0 1-.474-.211Zm13.324.72c0-2.636.527-4.675 1.6-6.117 1.054-1.441 2.32-2.162 3.797-2.162 1.459 0 2.724.72 3.796 2.162 1.055 1.442 1.6 3.48 1.6 6.117s-.545 4.676-1.6 6.118c-1.072 1.441-2.337 2.162-3.796 2.162-1.477 0-2.743-.72-3.797-2.162-1.073-1.442-1.6-3.48-1.6-6.117Zm16.19 0c0-3.937-1.055-7.101-3.147-9.51-2.11-2.407-4.658-3.62-7.647-3.62-3.005 0-5.554 1.213-7.646 3.62-2.11 2.409-3.147 5.573-3.147 9.51 0 3.938 1.038 7.12 3.147 9.528 2.092 2.426 4.64 3.62 7.647 3.62 2.988 0 5.537-1.194 7.646-3.62 2.092-2.408 3.146-5.59 3.146-9.527Zm13.5 10.442V25.72h6.134v-4.5h-6.135v-6.117h-4.13v6.117H88.94v4.5h6.118v6.117h4.13Z" fill="url(#a)"/><path d="M17.232 23.332v-.558a1.232 1.232 0 1 0-2.463 0v.558a1.232 1.232 0 1 0 2.463 0Z" fill="#F0145A"/><path d="M18.077 24.014A2.177 2.177 0 0 1 16 25.563a2.177 2.177 0 0 1-2.077-1.55H5.44a3.47 3.47 0 0 1-1.496-.34v5.634c0 1.1.9 2 2 2h20.113c1.1 0 2-.9 2-2v-5.633c-.454.216-.96.34-1.495.34h-8.484ZM26.477 13.898h-4.8a3.809 3.809 0 0 0-3.754-3.204h-3.846a3.81 3.81 0 0 0-3.755 3.204h-4.8c-1.146 0-2.083.9-2.083 2v4.616a2 2 0 0 0 2 2h8.39a2.171 2.171 0 0 1 .666-1.466c.012-.012.026-.021.039-.032.086-.08.176-.154.274-.22.036-.023.075-.039.112-.06.081-.047.161-.095.248-.131.069-.029.143-.045.215-.067.062-.018.121-.043.186-.055a2.155 2.155 0 0 1 .862 0c.064.012.123.037.185.055.073.022.146.038.215.067.087.037.166.084.247.131.038.021.078.037.113.061.099.064.188.14.274.219.013.012.027.02.04.033.39.373.637.89.666 1.466h8.39a2 2 0 0 0 2-2v-4.617c0-1.1-.938-2-2.084-2Zm-14.229 0a1.93 1.93 0 0 1 1.829-1.332h3.846a1.93 1.93 0 0 1 1.829 1.332h-7.504Z" fill="#F0145A"/><defs><linearGradient id="a" x1="41.516" y1="11.76" x2="107.078" y2="11.993" gradientUnits="userSpaceOnUse"><stop stop-color="#F0145A"/><stop offset="1" stop-color="#EF8080"/></linearGradient></defs></svg>