<svg width="181" height="38" fill="none" xmlns="http://www.w3.org/2000/svg"><path d="m2.286 36.19 3.345-4.446-3.14-3.394h.958l4.515 4.994V28.35h.755v4.994l4.515-4.994h.959l-3.156 3.394 3.36 4.447h-.93l-2.906-3.906-1.842 1.983v1.922h-.755v-1.922L6.122 32.27l-2.907 3.92h-.929Zm13.945 0v-7.84h.763v6.842l5.345-6.842h.763v7.84h-.763V29.35l-5.345 6.841h-.763Zm8.365 0 .144-.69c.247.07.445.105.596.105.172 0 .315-.013.43-.038.122-.03.25-.098.386-.203.136-.105.249-.252.34-.443.09-.19.178-.453.264-.788.09-.336.16-.741.211-1.217.056-.48.1-1.069.136-1.765.035-.696.055-1.492.06-2.388v-.413h5.369v7.84h-.763v-7.164h-3.88v.21c0 .916-.023 1.73-.069 2.44-.04.707-.095 1.308-.166 1.803a7.029 7.029 0 0 1-.271 1.27c-.116.345-.235.62-.355.826-.121.2-.272.358-.453.473-.182.11-.355.18-.521.21a3.27 3.27 0 0 1-1.457-.068Zm10.276-3.92c0-.546.103-1.069.31-1.57.206-.5.485-.936.838-1.306a3.837 3.837 0 0 1 1.29-.894 3.962 3.962 0 0 1 1.624-.338c.76 0 1.45.188 2.069.563.624.37 1.107.871 1.45 1.502a4.14 4.14 0 0 1 .52 2.043c0 .731-.173 1.41-.52 2.035a4.022 4.022 0 0 1-3.55 2.073c-.568 0-1.104-.11-1.608-.33a3.91 3.91 0 0 1-1.283-.886 4.194 4.194 0 0 1-.838-1.307 4.244 4.244 0 0 1-.302-1.585Zm.815 0c0 .946.312 1.75.937 2.41.629.657 1.399.985 2.31.985.574 0 1.107-.15 1.6-.45a3.367 3.367 0 0 0 1.178-1.24c.292-.52.438-1.089.438-1.705 0-.941-.317-1.742-.951-2.403-.634-.666-1.4-.999-2.295-.999a3.01 3.01 0 0 0-1.616.458c-.493.3-.883.714-1.17 1.24a3.474 3.474 0 0 0-.43 1.704Zm9.611 3.92v-7.84h.763v6.842l5.345-6.842h.763v7.84h-.763V29.35l-5.345 6.841h-.763ZM46.65 25.3l.634-.134c.202.745.685 1.119 1.45 1.119.77 0 1.255-.373 1.457-1.12l.634.136c-.096.51-.335.933-.717 1.269-.383.335-.84.503-1.374.503-.534 0-.992-.168-1.374-.503a2.188 2.188 0 0 1-.71-1.27Zm13.024 10.89v-7.84h.762v5.024l4.885-5.024h1.004l-3.45 3.47 3.556 4.37h-.959l-3.118-3.83-1.918 1.923v1.907h-.762Zm8.055-3.92c0-.546.104-1.069.31-1.57.206-.5.486-.936.838-1.306a3.836 3.836 0 0 1 1.291-.894 3.96 3.96 0 0 1 1.623-.338c.76 0 1.45.188 2.069.563.624.37 1.107.871 1.45 1.502a4.14 4.14 0 0 1 .52 2.043c0 .731-.173 1.41-.52 2.035a4.022 4.022 0 0 1-3.549 2.073c-.569 0-1.105-.11-1.608-.33a3.91 3.91 0 0 1-1.284-.886 4.194 4.194 0 0 1-.838-1.307 4.246 4.246 0 0 1-.302-1.585Zm.816 0c0 .946.312 1.75.936 2.41.63.657 1.4.985 2.31.985.574 0 1.108-.15 1.6-.45a3.367 3.367 0 0 0 1.179-1.24c.292-.52.438-1.089.438-1.705 0-.941-.317-1.742-.952-2.403-.634-.666-1.399-.999-2.295-.999a3.01 3.01 0 0 0-1.616.458c-.493.3-.883.714-1.17 1.24a3.474 3.474 0 0 0-.43 1.704Zm9.61 3.92v-7.84h.688l3.216 4.506 3.216-4.506h.68v7.84h-.763v-6.533l-3.17 4.333-3.134-4.333v6.534h-.732Zm10.677 0v-7.84h6.56v7.84h-.762v-7.164h-5.036v7.165h-.762Zm8.063 0 .143-.69c.247.07.446.105.597.105.17 0 .314-.013.43-.038.12-.03.249-.098.385-.203.136-.105.25-.252.34-.443.09-.19.179-.453.264-.788.09-.336.161-.741.211-1.217.056-.48.101-1.069.137-1.765.034-.696.054-1.492.06-2.388v-.413h5.368v7.84h-.762v-7.164h-3.881v.21c0 .916-.023 1.73-.068 2.44a22.06 22.06 0 0 1-.166 1.803 7.054 7.054 0 0 1-.272 1.27c-.116.345-.235.62-.355.826-.12.2-.272.358-.453.473-.181.11-.355.18-.52.21a3.269 3.269 0 0 1-1.457-.068Zm10.275-3.935c0-.56.096-1.091.288-1.592a4.12 4.12 0 0 1 .777-1.307 3.625 3.625 0 0 1 1.185-.871 3.518 3.518 0 0 1 1.488-.323c.719 0 1.356.183 1.91.548.558.36.984.851 1.276 1.472.292.621.437 1.317.437 2.088a2.6 2.6 0 0 1-.014.308h-6.546c.065.941.394 1.692.988 2.253.6.556 1.302.834 2.107.834 1.037 0 1.938-.408 2.703-1.224l.528.458a5.015 5.015 0 0 1-1.434 1.096c-.508.256-1.118.383-1.827.383a3.76 3.76 0 0 1-1.48-.3 3.927 3.927 0 0 1-1.231-.826 3.965 3.965 0 0 1-.845-1.307 4.553 4.553 0 0 1-.31-1.69Zm.801-.353h5.738a3.995 3.995 0 0 0-.235-1.141 3.44 3.44 0 0 0-.535-.97 2.337 2.337 0 0 0-.876-.683 2.69 2.69 0 0 0-1.185-.255c-.775 0-1.437.29-1.986.871-.544.581-.851 1.307-.921 2.178Zm8.765 4.288v-7.84h.763v5.024l4.884-5.024h1.005l-3.45 3.47 3.555 4.37h-.959l-3.118-3.83-1.917 1.923v1.907h-.763Zm8.056-3.92c0-.74.176-1.424.528-2.05a4.01 4.01 0 0 1 1.45-1.502 3.899 3.899 0 0 1 2.038-.556c1.228 0 2.275.488 3.141 1.465l-.528.533a5.338 5.338 0 0 0-1.216-.954c-.402-.225-.873-.338-1.411-.338-.574 0-1.105.153-1.594.458-.488.3-.876.714-1.162 1.24a3.473 3.473 0 0 0-.43 1.704c0 .946.314 1.75.943 2.41a3.07 3.07 0 0 0 2.303.985c.941 0 1.814-.446 2.619-1.337l.552.496a5.066 5.066 0 0 1-1.427 1.149c-.508.27-1.105.405-1.79.405a3.944 3.944 0 0 1-3.495-2.042 4.216 4.216 0 0 1-.521-2.066ZM16.825 19.576c-.8.583-1.774 1.021-2.922 1.313-1.12.319-2.28.478-3.481.478-1.601 0-2.962-.252-4.082-.757-1.094-.504-1.988-1.207-2.682-2.11-.693-.928-1.2-2.043-1.52-3.343-.294-1.3-.44-2.734-.44-4.3 0-3.37.76-5.958 2.28-7.763C5.5 1.264 7.714.347 10.622.347c1.467 0 2.641.12 3.522.359.907.239 1.72.544 2.44.915l-1.24 4.22a10.316 10.316 0 0 0-1.84-.677c-.588-.159-1.268-.238-2.042-.238-1.44 0-2.534.477-3.281 1.433-.748.929-1.121 2.428-1.121 4.498 0 .85.093 1.632.28 2.349.187.716.467 1.34.84 1.871.374.53.854.955 1.441 1.274.614.292 1.32.438 2.121.438.88 0 1.628-.106 2.241-.319a8.606 8.606 0 0 0 1.641-.836l1.2 3.942Zm15.192-7.843.2-2.826h-.12l-1.72 2.906-7.124 8.997H19.97V.905h5.203v9.475l-.24 2.706h.16l1.64-2.826L33.938.905h3.282V20.81h-5.203v-9.077Zm24.17-6.25h-5.644V20.81h-5.362V5.483h-5.643V.905h16.648v4.578Zm14.365 6.25.2-2.826h-.12l-1.72 2.906-7.124 8.997h-3.282V.905h5.203v9.475l-.24 2.706h.16l1.64-2.826L72.473.905h3.282V20.81h-5.203v-9.077Zm41.532-6.25h-6.323V20.81h-5.202V.905h16.728V20.81h-5.203V5.483Zm9.654-3.424c1.067-.477 2.334-.849 3.802-1.114a23.543 23.543 0 0 1 4.603-.438c1.387 0 2.547.172 3.481.517.934.319 1.668.783 2.201 1.394a4.97 4.97 0 0 1 1.161 2.19c.24.848.36 1.804.36 2.865 0 1.168-.04 2.35-.12 3.543a76.022 76.022 0 0 0-.16 3.464c0 1.141.04 2.256.12 3.344.08 1.061.28 2.07.6 3.025h-4.242l-.84-2.747h-.2c-.534.823-1.281 1.54-2.241 2.15-.934.584-2.149.876-3.642.876-.934 0-1.775-.133-2.521-.398a5.857 5.857 0 0 1-1.921-1.194 5.702 5.702 0 0 1-1.241-1.832c-.294-.716-.44-1.512-.44-2.388 0-1.22.266-2.243.8-3.066.56-.849 1.347-1.525 2.361-2.03 1.041-.53 2.268-.889 3.682-1.075 1.441-.212 3.042-.278 4.803-.199.186-1.486.08-2.547-.321-3.184-.4-.664-1.294-.996-2.681-.996-1.04 0-2.148.106-3.322.319-1.147.212-2.094.49-2.841.836l-1.241-3.862Zm6.604 14.81c1.04 0 1.867-.226 2.481-.677.613-.478 1.067-.982 1.361-1.513V12.09a14.617 14.617 0 0 0-2.402-.04 8.682 8.682 0 0 0-2.001.359c-.587.185-1.054.451-1.4.796-.348.345-.521.783-.521 1.314 0 .743.213 1.327.641 1.751.453.398 1.067.597 1.841.597ZM141.712.904h3.802l.6 2.388h.16c.694-1.008 1.507-1.751 2.442-2.229.96-.478 2.121-.717 3.481-.717 2.508 0 4.389.797 5.643 2.389 1.254 1.566 1.881 4.1 1.881 7.604 0 1.698-.2 3.238-.6 4.618-.4 1.353-1.001 2.508-1.801 3.463a7.575 7.575 0 0 1-2.882 2.19c-1.12.504-2.414.756-3.881.756-.827 0-1.508-.066-2.041-.2a6.396 6.396 0 0 1-1.601-.557v8.162h-5.203V.904Zm8.925 3.822c-1.015 0-1.815.252-2.402.756-.56.504-1 1.26-1.32 2.269v8.28c.374.292.774.531 1.2.717.454.16 1.041.239 1.761.239 1.495 0 2.615-.518 3.362-1.553.747-1.061 1.12-2.8 1.12-5.215 0-1.751-.293-3.105-.88-4.06-.587-.956-1.534-1.433-2.841-1.433Zm19.291 7.842h-1.401v8.24h-5.202V.906h5.202v8.48l1.241-.558L174.45.905h5.563l-4.842 7.564-2.041 1.512 2.241 1.553 5.403 9.276h-5.963l-4.883-8.241Z" fill="#fff"/><path d="M88.226 14.476c2.01 0 3.638-1.62 3.638-3.619s-1.629-3.619-3.638-3.619c-2.01 0-3.638 1.62-3.638 3.62 0 1.998 1.629 3.618 3.638 3.618Z" fill="#F1C650"/></svg>