<svg width="138" height="61" fill="none" xmlns="http://www.w3.org/2000/svg"><path fill-rule="evenodd" clip-rule="evenodd" d="m26.542 4.667.215 1.525c-6.854 13.862 1.886 12.733 1.886 12.733l1.104-.198.168.335c16.238-1.83 25.116 6.573 25.116 6.573C56.212 5.75 26.542 4.667 26.542 4.667Z" fill="#F8B829"/><path d="M16.346 51.5c-.69 4.574 3.066 7.228 3.664 5.764 1.656-2.15 2.239-1.525 3.067-4.758a6.22 6.22 0 0 1 1.042-1.083 59.254 59.254 0 0 0 2.423-2.653 41.168 41.168 0 0 0 5.827-8.495 15.528 15.528 0 0 0 1.81-10.187 18.481 18.481 0 0 0-2.654-4.94 5.54 5.54 0 0 1-.46-2.502 7.078 7.078 0 0 0-1.119-3.614 3.717 3.717 0 0 1-.981-2.882c.2-1.16.2-2.303.368-3.462a13.992 13.992 0 0 0-1.165-6.313s-1.074-1.891-2.024-1.419a10.392 10.392 0 0 0-11.286.138s-21.957 13.953-2.162 40.763c-.598 3.477 1.534 7.06 3.19 9.44" fill="#005D86"/><path d="M26.45 20.893 23.476 7.412s-1.748-5.185-6.348 1.357l-.767-1.007c-4.232 5.963-9.967 13.115-8.694 20.862a9.878 9.878 0 0 0 1.455 4.022 9.939 9.939 0 0 0 3.022 3.04 9.439 9.439 0 0 0 11.93-.992c2.392-1.983 4.339-6.009 2.376-13.801Z" fill="#fff"/><path fill-rule="evenodd" clip-rule="evenodd" d="M29.915 19.108s14.2-2.196 25.116 6.573c0 0-10.273-13.405-26.649-10.919.015 0-1.165 3.294 1.533 4.346Z" fill="#F19320"/><path d="M55.031 25.681a15.536 15.536 0 0 0-2.499-9.821c-.153-.198-1.334 2.364-1.35 2.593a5.315 5.315 0 0 0 .752 3.05c.782 1.433 2.683 2.607 3.067 4.148" fill="#E95253"/><path d="M1.533 45.048c2.007.76 4.197.904 6.287.412 2.929.397 4.462 1.312 7.958 1.708 4.278 0 8.525-.457 12.773-.854 1.38-.122 4.446-.29 5.612.793.674.626.475 2.318.49 3.203a26.447 26.447 0 0 0-7.912-1.678c-3.066 0-6.24.138-9.353.107a35.593 35.593 0 0 1-6.333-.549c-1.947-.366-3.864-.87-5.81-1.266-1.412-.305-3.129-.549-3.712-1.876Z" fill="#9B5F48"/><path d="M28.873 47.794c0 .488-.43 1.525-.828 1.525-.399 0-.828-1.022-.828-1.526V46.07c0-.488.306-.976.705-.976a1.09 1.09 0 0 1 .92.976l.03 1.724Z" fill="#969595"/><path d="M27.217 48.038c0 .38-.307 1.174-.629 1.174s-.629-.793-.629-1.174V46.68c0-.38.23-.762.553-.762a.799.799 0 0 1 .674.762l.03 1.358Z" fill="#838383"/><path d="M12.006 47.794c0 .488.43 1.525.828 1.525.399 0 .828-1.022.828-1.526V46.07c0-.488-.307-.976-.705-.976a1.09 1.09 0 0 0-.92.976l-.03 1.724Z" fill="#969595"/><path d="M13.662 48.038c0 .38.307 1.174.629 1.174s.628-.793.628-1.174V46.68c0-.38-.23-.762-.552-.762a.798.798 0 0 0-.674.762l-.03 1.358Z" fill="#838383"/><path d="M29.578 14.457c.368-.87 1.043-3.569-.828-8.22-.337-.716-1.18-2.379-2.975-1.525-.26.397 3.236 2.578 2.515 10.264 0 0-.905 3.217 1.625 4.117a5.844 5.844 0 0 1-.567-2.532 5.78 5.78 0 0 1 .23-2.104Zm-.169.305h.016-.016Z" fill="#003B55"/><path d="M26.542 11.62c.675 3.6-1.135 5.643-4.723 5.689-2.76 0-6.777-.58-7.16-3.935-.322-2.913 1.533-6.862 4.508-7.747 4.124-1.25 6.731 2.456 7.39 5.994h-.015Z" fill="#F8B829"/><path d="M24.35 11.361a2.593 2.593 0 0 1-.484 2.504 2.62 2.62 0 0 1-2.4.897c-1.747 0-4.185-.412-4.338-2.532a4.555 4.555 0 0 1 .649-2.756 4.593 4.593 0 0 1 2.156-1.849c2.47-.686 4.003 1.525 4.37 3.675l.046.061Z" fill="#005D86"/><path fill-rule="evenodd" clip-rule="evenodd" d="M23 10.904c0 .568-.227 1.113-.63 1.515a2.16 2.16 0 0 1-3.048 0 2.137 2.137 0 0 1 0-3.03 2.16 2.16 0 0 1 3.047 0c.404.402.631.947.631 1.515Z" fill="#151410"/><path fill-rule="evenodd" clip-rule="evenodd" d="M21.145 9.547c0 .38-.338 0-.338 0s.338-.397.338 0ZM19.934 9.531c-.215 0-.261.23-.292.473a.415.415 0 0 0-.263.44c.008.06.03.119.064.17 0 0 1.043-.976 1.12-.915a.799.799 0 0 0-.63-.168Z" fill="#fff"/><path d="M54.203 44.713a.847.847 0 0 1 .644.275l1.81 1.921c-2.745 3.477-8.004 4.255-12.022 2.776a10.722 10.722 0 0 1-4.891-3.994 10.632 10.632 0 0 1-1.779-6.04 10.992 10.992 0 0 1 1.396-6.248 11.075 11.075 0 0 1 4.646-4.428 11.34 11.34 0 0 1 6.464-.92 11.31 11.31 0 0 1 5.894 2.796l-1.533 2.074c-.828 1.19-2.1-.122-2.96-.534a7.056 7.056 0 0 0-4.078-.549 6.43 6.43 0 0 0-3.63 2.162 6.37 6.37 0 0 0-1.491 3.938 8.01 8.01 0 0 0 .385 4.07 8.052 8.052 0 0 0 2.344 3.357 6.759 6.759 0 0 0 8.065-.427c.213-.156.472-.237.736-.229ZM62.867 27.618v22.478H58.65V27.618h4.217ZM70.626 34.557v15.555h-4.171V34.557h4.17ZM71.131 30.043c0 3.248-5.182 3.263-5.182 0 0-3.264 5.182-3.264 5.182 0ZM85.545 38.018c-.66.885-1.365.336-2.101 0a4.36 4.36 0 0 0-2.99-.472c-2.116.472-2.73 2.623-2.79 4.575-.062 1.952.352 4.178 2.284 4.956a3.958 3.958 0 0 0 3.067-.107c.751-.35 1.824-1.677 2.606-.656l1.196 1.525a8.212 8.212 0 0 1-3.995 2.32 8.246 8.246 0 0 1-4.622-.2 7.657 7.657 0 0 1-3.577-2.933 7.594 7.594 0 0 1-1.222-4.448 7.668 7.668 0 0 1 1.049-4.602 7.73 7.73 0 0 1 3.55-3.13 8.23 8.23 0 0 1 4.583-.38 8.203 8.203 0 0 1 4.066 2.134l-1.104 1.418ZM93.073 27.618v12.764h.69a1.233 1.233 0 0 0 1.074-.534l3.45-4.575a1.67 1.67 0 0 1 1.41-.701h3.818l-4.462 5.642c-.33.45-.746.828-1.226 1.114a4.11 4.11 0 0 1 1.104 1.265l4.83 7.488h-3.757a1.541 1.541 0 0 1-1.41-.717l-3.527-5.703a1.118 1.118 0 0 0-1.12-.58h-.874v7.015h-4.14V27.618h4.14ZM109.618 27.618v12.764h.69a1.234 1.234 0 0 0 1.073-.534l3.45-4.575a1.671 1.671 0 0 1 1.411-.701h3.818l-4.493 5.673a4.14 4.14 0 0 1-1.226 1.113c.451.342.827.773 1.104 1.266l4.83 7.488h-3.742a1.539 1.539 0 0 1-1.41-.717l-3.512-5.719a1.116 1.116 0 0 0-1.119-.58h-.874v7.016h-4.186V27.618h4.186ZM128.033 54.275a1.355 1.355 0 0 1-1.364.839h-3.067l2.913-6.314-6.271-14.304h3.665a1.197 1.197 0 0 1 1.165.747l2.975 7.457c.214.59.398 1.18.552 1.77.184-.596.398-1.19.628-1.785l2.76-7.427a1.215 1.215 0 0 1 1.135-.747h3.343l-8.434 19.764Z" fill="#fff"/></svg>