<svg width="97" height="42" fill="none" xmlns="http://www.w3.org/2000/svg"><path d="m44.719 8.793-.14.299c-.106.21-.3.474-.546.773-.246.3-.562.598-.914.914-.351.317-.861.616-1.494.897a7.415 7.415 0 0 1-2.127.545v3.427h4.324V34h5.397V8.793h-4.5Zm15.134 12.604c0-2.637.528-4.676 1.6-6.118 1.055-1.441 2.32-2.162 3.797-2.162 1.459 0 2.725.72 3.797 2.162 1.055 1.442 1.6 3.48 1.6 6.117s-.545 4.676-1.6 6.118c-1.072 1.441-2.338 2.162-3.797 2.162-1.477 0-2.742-.72-3.797-2.162-1.072-1.442-1.6-3.48-1.6-6.117Zm16.19 0c0-3.938-1.055-7.102-3.147-9.51-2.109-2.408-4.658-3.621-7.646-3.621-3.006 0-5.555 1.213-7.647 3.62-2.109 2.409-3.146 5.573-3.146 9.51 0 3.938 1.037 7.12 3.146 9.528 2.092 2.426 4.641 3.62 7.647 3.62 2.988 0 5.537-1.194 7.647-3.62 2.091-2.408 3.146-5.59 3.146-9.527Zm13.5 10.44v-6.116h6.135v-4.5h-6.135v-6.117h-4.13v6.117h-6.118v4.5h6.117v6.117h4.131Z" fill="url(#a)"/><path d="M27.113 11.306a.82.82 0 0 0-.598-.253c-.114 0-.355.094-.723.28-.367.185-.757.393-1.168.623-.411.23-.898.438-1.46.624-.562.185-1.082.28-1.56.28-.442 0-.832-.085-1.168-.253-1.114-.522-2.084-.912-2.907-1.168a8.879 8.879 0 0 0-2.655-.386c-1.636 0-3.5.532-5.589 1.594-.431.215-.74.381-.94.503l-.199-1.455a2.11 2.11 0 0 0 .738-1.598 2.124 2.124 0 1 0-4.248 0c0 .766.409 1.431 1.016 1.806l2.87 21.044a1.25 1.25 0 0 0 2.476-.337l-1.153-8.459c2.093-1.038 3.903-1.561 5.426-1.561.647 0 1.277.096 1.892.291.615.195 1.127.407 1.534.637.407.23.887.443 1.44.637.553.195 1.1.293 1.639.293 1.363 0 2.995-.514 4.898-1.54.239-.125.414-.247.524-.366.111-.12.166-.29.166-.51V11.903a.82.82 0 0 0-.25-.598Z" fill="#F0145A"/><defs><linearGradient id="a" x1="38.461" y1="11.76" x2="97.07" y2="11.946" gradientUnits="userSpaceOnUse"><stop stop-color="#F0145A"/><stop offset="1" stop-color="#EF8080"/></linearGradient></defs></svg>