<svg width="689" height="622" fill="none" xmlns="http://www.w3.org/2000/svg"><g clip-path="url(#a)" fill-rule="evenodd" clip-rule="evenodd" fill="#fff" fill-opacity=".1"><path d="M564.195 304.898h-3.6l10.796-33.455c.723-2.182 2.789-3.672 5.224-3.704 2.017-.011 3.113-.009 5.133 0 4.372.019 6.055 1.739 7.075 4.572.49 1.36.532 3.278.131 4.55-1.039 3.196-1.285 3.937-2.338 7.127-.689 2.053-2.549 3.426-4.801 3.609 0 0 3.024-9.152 3.967-12.142.57-1.866-.524-4.412-3.4-4.412-2.012-.024-3.27-.011-5.277 0-1.163.015-2.183.725-2.541 1.806l-10.369 32.049ZM578.209 295.315h7.924l-4.475 13.61-3.632-.024 3.37-10.273h-4.29l1.103-3.313Z"/><path d="M595.851 277.982h3.602l-10.822 33.455c-.725 2.182-2.793 3.672-5.229 3.704-2.019.011-3.115.009-5.137 0-4.374-.019-6.057-1.739-7.076-4.572-.489-1.36-.531-3.278-.128-4.55 1.042-3.196 1.288-3.937 2.343-7.127.691-2.053 2.553-3.426 4.807-3.609 0 0-3.032 9.152-3.977 12.142-.571 1.866.521 4.412 3.399 4.412 2.014.024 3.272.011 5.281 0 1.163-.015 2.184-.725 2.543-1.806l10.394-32.049ZM393.038 500.124h-7.924l4.476-13.61 3.631.024-3.37 10.273h4.291l-1.104 3.313Z"/><path d="M375.396 517.457h-3.602l10.822-33.454c.725-2.183 2.793-3.672 5.229-3.705 2.019-.011 3.115-.008 5.137 0 4.374.02 6.057 1.739 7.076 4.572.49 1.36.531 3.278.129 4.55-1.042 3.196-1.289 3.937-2.344 7.127-.69 2.053-2.552 3.426-4.806 3.609 0 0 3.031-9.152 3.977-12.141.571-1.867-.522-4.413-3.4-4.413-2.013-.024-3.272-.011-5.28 0-1.163.015-2.185.726-2.544 1.806l-10.394 32.049ZM501.722 404.18h-7.924l4.475-13.61 3.632.024-3.37 10.273h4.29l-1.103 3.313Z"/><path d="M484.08 421.513h-3.602l10.822-33.455c.725-2.182 2.793-3.672 5.229-3.704 2.019-.011 3.115-.009 5.136 0 4.375.019 6.058 1.739 7.077 4.572.489 1.36.53 3.278.128 4.55-1.042 3.196-1.289 3.937-2.343 7.126-.691 2.054-2.553 3.427-4.807 3.61 0 0 3.032-9.152 3.977-12.142.571-1.866-.522-4.412-3.4-4.412-2.013-.024-3.271-.011-5.28 0-1.163.015-2.184.725-2.543 1.806l-10.394 32.049ZM526.881 432.749h7.924l-4.476 13.61-3.631-.024 3.37-10.274h-4.291l1.104-3.312Z"/><path d="M544.523 415.416h3.602l-10.822 33.454c-.725 2.183-2.793 3.672-5.229 3.705-2.019.01-3.115.008-5.137 0-4.374-.02-6.057-1.74-7.076-4.572-.489-1.36-.531-3.278-.129-4.55 1.042-3.197 1.289-3.937 2.344-7.127.69-2.053 2.553-3.427 4.806-3.609 0 0-3.031 9.152-3.976 12.141-.572 1.866.521 4.413 3.399 4.413 2.013.023 3.272.01 5.28 0 1.163-.015 2.185-.726 2.544-1.806l10.394-32.049ZM287.951 552.327h7.924l-4.476 13.61-3.631-.024 3.369-10.273h-4.29l1.104-3.313Z"/><path d="M305.593 534.994h3.602l-10.822 33.455c-.725 2.182-2.794 3.672-5.23 3.704-2.018.011-3.115.009-5.136 0-4.375-.019-6.058-1.739-7.076-4.572-.49-1.36-.531-3.278-.129-4.55 1.042-3.196 1.289-3.937 2.344-7.126.69-2.054 2.552-3.427 4.806-3.61 0 0-3.031 9.152-3.977 12.142-.571 1.866.522 4.412 3.4 4.412 2.013.024 3.272.011 5.28 0 1.163-.015 2.184-.725 2.544-1.806l10.394-32.049ZM425.828 475.794h7.924l-4.476 13.61-3.631-.024 3.369-10.273h-4.29l1.104-3.313Z"/><path d="M443.47 458.461h3.602l-10.822 33.455c-.725 2.182-2.794 3.672-5.23 3.704-2.019.011-3.115.008-5.136 0-4.375-.02-6.058-1.739-7.076-4.572-.49-1.36-.531-3.278-.129-4.55 1.042-3.196 1.289-3.937 2.344-7.127.69-2.053 2.552-3.426 4.806-3.609 0 0-3.032 9.152-3.977 12.142-.571 1.866.522 4.412 3.4 4.412 2.013.024 3.272.011 5.28 0 1.163-.015 2.184-.725 2.544-1.806l10.394-32.049ZM345.73 592.409h7.924l-4.476 13.61-3.631-.024 3.37-10.273h-4.291l1.104-3.313Z"/><path d="M363.372 575.076h3.602l-10.822 33.454c-.725 2.183-2.794 3.672-5.23 3.705-2.019.011-3.115.008-5.136 0-4.375-.02-6.058-1.739-7.076-4.572-.49-1.36-.531-3.278-.129-4.55 1.042-3.196 1.289-3.937 2.344-7.127.69-2.053 2.552-3.426 4.806-3.609 0 0-3.032 9.152-3.977 12.141-.571 1.867.522 4.413 3.4 4.413 2.013.024 3.272.011 5.28 0 1.163-.015 2.184-.726 2.544-1.806l10.394-32.049ZM629.401 293.637h-3.6l10.796-33.455c.723-2.183 2.789-3.672 5.224-3.704 2.018-.011 3.113-.009 5.134 0 4.372.019 6.055 1.739 7.074 4.571.49 1.361.533 3.278.132 4.55-1.04 3.197-1.286 3.937-2.338 7.127-.689 2.054-2.549 3.427-4.802 3.61 0 0 3.025-9.152 3.967-12.142.57-1.866-.523-4.412-3.4-4.412-2.012-.024-3.27-.011-5.277 0-1.162.015-2.183.725-2.541 1.805l-10.369 32.05ZM643.397 284.054h7.924l-4.475 13.609-3.632-.023 3.37-10.274h-4.291l1.104-3.312Z"/><path d="M661.039 266.72h3.602l-10.822 33.455c-.725 2.183-2.793 3.672-5.229 3.704-2.019.011-3.115.009-5.137 0-4.374-.019-6.057-1.739-7.076-4.571-.489-1.361-.531-3.278-.129-4.55 1.043-3.197 1.289-3.937 2.344-7.127.691-2.053 2.553-3.427 4.807-3.61 0 0-3.032 9.152-3.977 12.142-.572 1.866.521 4.413 3.399 4.413 2.013.023 3.272.01 5.28 0 1.164-.015 2.185-.726 2.544-1.806l10.394-32.05ZM677.325 296.455h-7.924l4.476-13.609 3.631.023-3.369 10.274h4.29l-1.104 3.312Z"/><path d="M659.683 313.789h-3.602l10.822-33.455c.725-2.183 2.794-3.672 5.23-3.704 2.019-.011 3.115-.009 5.136 0 4.375.019 6.058 1.739 7.076 4.571.49 1.361.531 3.278.129 4.55-1.042 3.197-1.289 3.937-2.344 7.127-.69 2.053-2.552 3.427-4.806 3.61 0 0 3.032-9.152 3.977-12.142.571-1.866-.522-4.412-3.4-4.412-2.013-.024-3.272-.011-5.28 0-1.163.015-2.184.725-2.544 1.805l-10.394 32.05ZM488.525 509.015h-7.924l4.476-13.61 3.631.024-3.369 10.273h4.29l-1.104 3.313Z"/><path d="M470.884 526.348h-3.602l10.822-33.455c.725-2.182 2.793-3.672 5.229-3.704 2.019-.011 3.115-.009 5.136 0 4.375.019 6.058 1.739 7.077 4.572.489 1.36.53 3.278.128 4.55-1.042 3.196-1.288 3.936-2.343 7.126-.691 2.054-2.553 3.427-4.807 3.61 0 0 3.032-9.152 3.977-12.142.571-1.866-.521-4.412-3.4-4.412-2.013-.024-3.271-.011-5.28 0-1.163.015-2.184.725-2.543 1.806l-10.394 32.049ZM433.292 421.858h7.924l-4.476 13.609-3.631-.023 3.37-10.274h-4.291l1.104-3.312Z"/><path d="M450.934 404.525h3.602l-10.822 33.454c-.725 2.183-2.793 3.672-5.229 3.705-2.019.01-3.115.008-5.137 0-4.374-.02-6.057-1.74-7.076-4.572-.489-1.36-.531-3.278-.129-4.55 1.042-3.197 1.289-3.937 2.344-7.127.691-2.053 2.553-3.427 4.806-3.609 0 0-3.031 9.152-3.976 12.141-.572 1.866.521 4.413 3.399 4.413 2.013.023 3.272.01 5.28 0 1.163-.015 2.185-.726 2.544-1.806l10.394-32.049ZM248.121 626.667h-7.924l4.475-13.61 3.632.024-3.37 10.273h4.291l-1.104 3.313Z"/><path d="M230.479 644h-3.602l10.822-33.455c.725-2.182 2.793-3.672 5.229-3.704 2.019-.011 3.115-.009 5.137 0 4.374.019 6.057 1.739 7.076 4.572.489 1.36.531 3.278.129 4.55-1.043 3.196-1.289 3.937-2.344 7.126-.691 2.054-2.553 3.427-4.807 3.61 0 0 3.032-9.152 3.977-12.142.571-1.866-.521-4.412-3.399-4.412-2.014-.024-3.272-.011-5.28 0-1.164.015-2.185.725-2.544 1.806L230.479 644ZM574.484 339.871h-7.924l4.476-13.61 3.631.024-3.369 10.274h4.29l-1.104 3.312Z"/><path d="M556.842 357.204h-3.601l10.822-33.454c.725-2.183 2.793-3.672 5.229-3.705 2.019-.01 3.115-.008 5.136 0 4.375.02 6.058 1.739 7.076 4.572.49 1.36.531 3.278.129 4.55-1.042 3.196-1.289 3.937-2.344 7.127-.69 2.053-2.552 3.426-4.806 3.609 0 0 3.032-9.152 3.977-12.141.571-1.867-.522-4.413-3.4-4.413-2.013-.023-3.272-.011-5.28 0-1.163.015-2.184.726-2.543 1.806l-10.395 32.049ZM155.409 479.45h-3.6l10.799-33.455c.723-2.183 2.789-3.672 5.224-3.704 2.018-.011 3.113-.009 5.134 0 4.372.019 6.055 1.739 7.075 4.571.49 1.361.532 3.278.131 4.551-1.04 3.196-1.286 3.936-2.339 7.126-.689 2.054-2.549 3.427-4.802 3.61 0 0 3.025-9.152 3.968-12.142.57-1.866-.523-4.412-3.4-4.412-2.012-.024-3.27-.011-5.277 0-1.163.015-2.183.725-2.541 1.805l-10.372 32.05ZM169.426 469.867h7.924l-4.476 13.609-3.632-.023 3.37-10.274h-4.29l1.104-3.312Z"/><path d="M187.069 452.533h3.602l-10.824 33.455c-.725 2.183-2.793 3.672-5.23 3.704-2.019.011-3.115.009-5.136 0-4.375-.019-6.058-1.739-7.077-4.571-.489-1.361-.53-3.278-.128-4.55 1.042-3.197 1.289-3.937 2.344-7.127.691-2.053 2.553-3.427 4.807-3.61 0 0-3.032 9.152-3.978 12.142-.571 1.866.522 4.413 3.4 4.413 2.013.023 3.272.01 5.28 0 1.163-.015 2.185-.726 2.544-1.806l10.396-32.05ZM282.217 364.098h-7.925l4.477-13.61 3.632.024-3.371 10.273h4.291l-1.104 3.313Z"/><path d="M264.573 381.431h-3.602l10.825-33.455c.725-2.182 2.794-3.672 5.23-3.704 2.019-.011 3.115-.009 5.137 0 4.375.019 6.058 1.739 7.076 4.572.489 1.36.531 3.278.128 4.55-1.042 3.196-1.289 3.936-2.344 7.126-.691 2.054-2.553 3.427-4.807 3.61 0 0 3.033-9.152 3.978-12.142.571-1.866-.521-4.412-3.4-4.412-2.013-.024-3.271-.011-5.28 0-1.163.015-2.185.725-2.544 1.806l-10.397 32.049ZM278.607 371.848h7.924l-4.476 13.61-3.632-.024 3.371-10.274h-4.291l1.104-3.312Z"/><path d="M296.25 354.515h3.602l-10.824 33.454c-.725 2.183-2.794 3.672-5.23 3.705-2.019.01-3.115.008-5.136 0-4.375-.02-6.058-1.739-7.077-4.572-.489-1.36-.53-3.278-.128-4.55 1.042-3.197 1.289-3.937 2.344-7.127.691-2.053 2.553-3.426 4.807-3.609 0 0-3.032 9.152-3.978 12.141-.571 1.866.521 4.413 3.4 4.413 2.013.023 3.272.011 5.28 0 1.163-.015 2.185-.726 2.544-1.806l10.396-32.049ZM387.29 275.83h7.924l-4.475 13.61-3.632-.024 3.37-10.273h-4.291l1.104-3.313Z"/><path d="M404.932 258.497h3.602l-10.822 33.455c-.725 2.182-2.793 3.672-5.229 3.704-2.019.011-3.115.009-5.137 0-4.374-.019-6.057-1.739-7.076-4.572-.489-1.36-.531-3.278-.129-4.55 1.043-3.196 1.289-3.937 2.344-7.126.691-2.054 2.553-3.427 4.807-3.61 0 0-3.032 9.152-3.977 12.142-.572 1.866.521 4.412 3.399 4.412 2.014.024 3.272.011 5.28 0 1.164-.015 2.185-.725 2.544-1.806l10.394-32.049ZM202.119 480.713h-7.925l4.477-13.61 3.632.024-3.371 10.273h4.291l-1.104 3.313Z"/><path d="M184.475 498.046h-3.603l10.826-33.455c.725-2.183 2.794-3.672 5.23-3.704 2.019-.011 3.115-.009 5.137 0 4.374.019 6.058 1.739 7.076 4.571.489 1.361.531 3.279.128 4.551-1.042 3.196-1.289 3.936-2.344 7.126-.691 2.054-2.553 3.427-4.807 3.61 0 0 3.032-9.152 3.978-12.142.571-1.866-.521-4.412-3.4-4.412-2.013-.024-3.271-.011-5.28 0-1.163.015-2.185.725-2.544 1.806l-10.397 32.049ZM198.509 488.463h7.924l-4.476 13.61-3.632-.024 3.37-10.274h-4.29l1.104-3.312Z"/><path d="M216.152 471.13h3.602l-10.824 33.454c-.725 2.183-2.793 3.672-5.23 3.705-2.019.01-3.115.008-5.136 0-4.375-.02-6.058-1.739-7.077-4.572-.489-1.36-.53-3.278-.128-4.55 1.042-3.197 1.289-3.937 2.344-7.127.691-2.053 2.553-3.426 4.807-3.609 0 0-3.032 9.152-3.978 12.141-.571 1.866.522 4.413 3.4 4.413 2.013.023 3.272.011 5.28 0 1.163-.015 2.185-.726 2.544-1.806l10.396-32.049ZM310.894 385.583h-7.924l4.476-13.609 3.632.023-3.371 10.274h4.291l-1.104 3.312Z"/><path d="M293.25 402.917h-3.602l10.826-33.455c.725-2.183 2.793-3.672 5.23-3.705 2.019-.01 3.115-.008 5.137 0 4.374.02 6.057 1.74 7.076 4.572.489 1.36.53 3.278.128 4.55-1.042 3.197-1.289 3.937-2.344 7.127-.691 2.053-2.553 3.427-4.807 3.61 0 0 3.032-9.152 3.978-12.142.571-1.866-.521-4.413-3.4-4.413-2.013-.023-3.272-.01-5.28 0-1.164.015-2.185.726-2.544 1.806l-10.398 32.05ZM307.284 393.334h7.925l-4.476 13.609-3.632-.023 3.37-10.274h-4.29l1.103-3.312Z"/><path d="M324.927 376h3.602l-10.823 33.455c-.726 2.183-2.794 3.672-5.23 3.704-2.019.011-3.115.009-5.137 0-4.374-.019-6.057-1.739-7.076-4.571-.489-1.361-.531-3.278-.129-4.55 1.043-3.197 1.289-3.937 2.345-7.127.69-2.053 2.552-3.427 4.806-3.61 0 0-3.032 9.152-3.977 12.142-.571 1.866.521 4.412 3.399 4.412 2.014.024 3.272.011 5.281 0 1.163-.015 2.184-.725 2.543-1.805L324.927 376ZM419.596 289.639h-7.925l4.477-13.61 3.632.024-3.371 10.273h4.291l-1.104 3.313Z"/><path d="M401.952 306.972h-3.602l10.825-33.455c.726-2.182 2.794-3.672 5.23-3.704 2.019-.011 3.115-.008 5.137 0 4.375.02 6.058 1.739 7.076 4.572.49 1.36.531 3.278.129 4.55-1.043 3.196-1.289 3.937-2.345 7.127-.69 2.053-2.553 3.426-4.807 3.609 0 0 3.033-9.152 3.978-12.142.572-1.866-.521-4.412-3.399-4.412-2.014-.024-3.272-.011-5.281 0-1.163.015-2.184.725-2.544 1.806l-10.397 32.049ZM415.986 297.389h7.924l-4.476 13.61-3.632-.024 3.371-10.273h-4.291l1.104-3.313Z"/><path d="M433.629 280.056h3.602l-10.824 33.455c-.725 2.182-2.793 3.672-5.229 3.704-2.019.011-3.115.009-5.137 0-4.375-.019-6.058-1.739-7.076-4.572-.49-1.36-.531-3.278-.129-4.55 1.043-3.196 1.289-3.937 2.344-7.126.691-2.054 2.553-3.427 4.807-3.61 0 0-3.032 9.152-3.977 12.142-.572 1.866.521 4.412 3.399 4.412 2.013.024 3.272.011 5.28 0 1.164-.015 2.185-.725 2.544-1.806l10.396-32.049ZM230.796 502.198h-7.924l4.476-13.609 3.632.023-3.371 10.274h4.291l-1.104 3.312Z"/><path d="M213.152 519.531h-3.602l10.825-33.454c.726-2.183 2.794-3.672 5.23-3.705 2.019-.01 3.115-.008 5.137 0 4.375.02 6.058 1.74 7.077 4.572.489 1.36.53 3.278.128 4.55-1.043 3.197-1.289 3.937-2.345 7.127-.69 2.053-2.553 3.426-4.807 3.609 0 0 3.033-9.152 3.978-12.141.572-1.866-.521-4.413-3.399-4.413-2.013-.023-3.272-.01-5.281 0-1.163.015-2.184.726-2.543 1.806l-10.398 32.049ZM227.186 509.948h7.925l-4.477 13.61-3.631-.024 3.37-10.273h-4.291l1.104-3.313Z"/><path d="M244.829 492.615h3.602l-10.824 33.455c-.725 2.183-2.793 3.672-5.229 3.704-2.019.011-3.115.009-5.137 0-4.374-.019-6.058-1.739-7.076-4.571-.489-1.361-.531-3.279-.129-4.551 1.043-3.196 1.289-3.936 2.344-7.126.691-2.054 2.553-3.427 4.807-3.61 0 0-3.032 9.152-3.977 12.142-.572 1.866.521 4.412 3.399 4.412 2.014.024 3.272.011 5.281 0 1.163-.015 2.184-.725 2.543-1.806l10.396-32.049ZM339.682 406.403h-7.924l4.477-13.609 3.631.023-3.37 10.274h4.29l-1.104 3.312Z"/><path d="M322.038 423.737h-3.602l10.826-33.455c.725-2.183 2.793-3.672 5.229-3.704 2.02-.011 3.116-.009 5.137 0 4.375.019 6.058 1.739 7.077 4.571.489 1.361.53 3.278.128 4.55-1.043 3.197-1.289 3.937-2.344 7.127-.691 2.053-2.553 3.427-4.808 3.61 0 0 3.033-9.152 3.979-12.142.571-1.866-.522-4.412-3.4-4.412-2.013-.024-3.272-.011-5.28 0-1.164.015-2.185.725-2.544 1.805l-10.398 32.05ZM336.072 414.154h7.925l-4.477 13.609-3.631-.023 3.37-10.274h-4.291l1.104-3.312Z"/><path d="M353.715 396.82h3.602l-10.824 33.455c-.725 2.183-2.793 3.672-5.229 3.704-2.019.011-3.115.009-5.137 0-4.374-.019-6.057-1.739-7.076-4.571-.489-1.361-.531-3.278-.129-4.55 1.043-3.197 1.289-3.937 2.344-7.127.691-2.053 2.553-3.427 4.807-3.61 0 0-3.032 9.152-3.977 12.142-.571 1.866.521 4.413 3.399 4.413 2.014.023 3.272.01 5.281 0 1.163-.016 2.184-.726 2.543-1.806l10.396-32.05ZM448.366 310.458h-7.925l4.477-13.609 3.632.023-3.371 10.274h4.291l-1.104 3.312Z"/><path d="M430.722 327.792h-3.602l10.825-33.455c.725-2.183 2.794-3.672 5.23-3.704 2.019-.011 3.115-.009 5.137 0 4.375.019 6.058 1.739 7.076 4.571.489 1.361.531 3.278.128 4.55-1.042 3.197-1.289 3.937-2.344 7.127-.691 2.054-2.553 3.427-4.807 3.61 0 0 3.033-9.152 3.978-12.142.571-1.866-.521-4.412-3.4-4.412-2.013-.024-3.271-.011-5.28 0-1.163.015-2.185.725-2.544 1.805l-10.397 32.05ZM444.756 318.209h7.924l-4.476 13.609-3.632-.023 3.37-10.274h-4.29l1.104-3.312Z"/><path d="M462.399 300.875h3.602l-10.824 33.455c-.725 2.183-2.794 3.672-5.23 3.704-2.019.011-3.115.009-5.137 0-4.374-.019-6.057-1.739-7.076-4.571-.489-1.361-.53-3.278-.128-4.55 1.042-3.197 1.289-3.937 2.344-7.127.69-2.053 2.553-3.427 4.807-3.61 0 0-3.033 9.152-3.978 12.142-.571 1.866.521 4.413 3.4 4.413 2.013.023 3.272.01 5.28 0 1.163-.016 2.185-.726 2.544-1.806l10.396-32.05ZM259.584 523.017h-7.924l4.477-13.61 3.631.024-3.37 10.273h4.29l-1.104 3.313Z"/><path d="M241.94 540.35h-3.602l10.826-33.455c.725-2.182 2.793-3.672 5.229-3.704 2.02-.011 3.116-.008 5.137 0 4.375.02 6.058 1.739 7.077 4.572.489 1.36.53 3.278.128 4.55-1.043 3.196-1.289 3.937-2.344 7.127-.691 2.053-2.553 3.426-4.808 3.609 0 0 3.033-9.152 3.979-12.141.571-1.867-.522-4.413-3.4-4.413-2.013-.024-3.272-.011-5.28 0-1.164.015-2.185.725-2.544 1.806L241.94 540.35ZM255.974 530.767h7.925l-4.477 13.61-3.631-.024 3.37-10.273h-4.291l1.104-3.313Z"/><path d="M273.617 513.434h3.602l-10.824 33.455c-.725 2.182-2.793 3.672-5.229 3.704-2.019.011-3.115.009-5.137 0-4.375-.019-6.058-1.739-7.076-4.572-.49-1.36-.531-3.278-.129-4.55 1.043-3.196 1.289-3.937 2.344-7.126.691-2.054 2.553-3.427 4.807-3.61 0 0-3.032 9.152-3.977 12.142-.572 1.866.521 4.412 3.399 4.412 2.014.024 3.272.011 5.281 0 1.163-.015 2.184-.725 2.543-1.806l10.396-32.049ZM369.982 426.554h-7.925l4.477-13.61 3.632.024-3.371 10.273h4.291l-1.104 3.313Z"/><path d="M352.338 443.887h-3.602l10.825-33.454c.725-2.183 2.794-3.672 5.23-3.705 2.019-.01 3.115-.008 5.137 0 4.375.02 6.058 1.739 7.076 4.572.489 1.36.531 3.278.128 4.55-1.042 3.197-1.289 3.937-2.344 7.127-.691 2.053-2.553 3.426-4.807 3.609 0 0 3.032-9.152 3.978-12.141.571-1.866-.521-4.413-3.4-4.413-2.013-.023-3.271-.01-5.28 0-1.163.015-2.185.726-2.544 1.806l-10.397 32.049ZM366.372 434.304h7.924l-4.476 13.61-3.632-.024 3.37-10.273h-4.29l1.104-3.313Z"/><path d="M384.015 416.971h3.602l-10.824 33.455c-.725 2.182-2.794 3.672-5.23 3.704-2.019.011-3.115.009-5.137 0-4.374-.019-6.057-1.739-7.076-4.572-.489-1.36-.53-3.278-.128-4.55 1.042-3.196 1.289-3.936 2.344-7.126.69-2.054 2.553-3.427 4.807-3.61 0 0-3.033 9.152-3.978 12.142-.571 1.866.521 4.412 3.4 4.412 2.013.024 3.271.011 5.28 0 1.163-.015 2.184-.725 2.544-1.806l10.396-32.049ZM478.683 330.61h-7.924l4.477-13.609 3.631.023-3.37 10.274h4.291l-1.105 3.312Z"/><path d="M461.04 347.944h-3.603l10.826-33.455c.725-2.183 2.793-3.672 5.23-3.704 2.019-.011 3.115-.009 5.137 0 4.374.019 6.057 1.739 7.076 4.571.489 1.361.53 3.278.128 4.55-1.042 3.197-1.289 3.937-2.344 7.127-.691 2.053-2.553 3.427-4.807 3.61 0 0 3.032-9.152 3.978-12.142.571-1.866-.521-4.412-3.4-4.412-2.013-.024-3.272-.011-5.28 0-1.163.015-2.185.725-2.544 1.805l-10.397 32.05ZM475.073 338.36h7.925l-4.476 13.61-3.632-.024 3.37-10.273h-4.291l1.104-3.313Z"/><path d="M492.717 321.027h3.602l-10.824 33.455c-.725 2.182-2.794 3.672-5.23 3.704-2.019.011-3.115.008-5.137 0-4.374-.019-6.057-1.739-7.076-4.572-.489-1.36-.53-3.278-.128-4.55 1.042-3.196 1.289-3.937 2.344-7.127.69-2.053 2.553-3.426 4.807-3.609 0 0-3.033 9.152-3.978 12.142-.571 1.866.521 4.412 3.4 4.412 2.013.024 3.271.011 5.28 0 1.163-.015 2.184-.725 2.544-1.806l10.396-32.049ZM209.454 430.036h-7.925l4.477-13.609 3.632.023-3.371 10.274h4.291l-1.104 3.312Z"/><path d="M191.81 447.369h-3.602l10.825-33.454c.725-2.183 2.794-3.672 5.23-3.705 2.019-.01 3.115-.008 5.137 0 4.375.02 6.058 1.739 7.076 4.572.49 1.36.531 3.278.129 4.55-1.043 3.197-1.29 3.937-2.345 7.127-.691 2.053-2.553 3.427-4.807 3.609 0 0 3.033-9.152 3.978-12.141.572-1.866-.521-4.413-3.399-4.413-2.014-.023-3.272-.01-5.281 0-1.163.015-2.184.726-2.544 1.806l-10.397 32.049ZM205.844 437.786h7.924l-4.476 13.61-3.632-.024 3.371-10.273h-4.291l1.104-3.313Z"/><path d="M223.487 420.453h3.602l-10.824 33.455c-.725 2.183-2.793 3.672-5.229 3.704-2.019.011-3.115.009-5.137 0-4.375-.019-6.058-1.739-7.076-4.571-.49-1.361-.531-3.278-.129-4.551 1.042-3.196 1.289-3.936 2.344-7.126.691-2.054 2.553-3.427 4.807-3.61 0 0-3.032 9.152-3.977 12.142-.572 1.866.521 4.412 3.399 4.412 2.013.024 3.272.011 5.28 0 1.164-.015 2.185-.725 2.544-1.805l10.396-32.05ZM318.635 331.944h-7.925l4.477-13.61 3.632.024-3.371 10.273h4.291l-1.104 3.313Z"/><path d="M300.991 349.277h-3.602l10.825-33.455c.726-2.182 2.794-3.671 5.23-3.704 2.019-.011 3.115-.008 5.137 0 4.375.02 6.058 1.739 7.076 4.572.49 1.36.531 3.278.129 4.55-1.043 3.196-1.29 3.937-2.345 7.127-.691 2.053-2.553 3.426-4.807 3.609 0 0 3.033-9.152 3.978-12.141.572-1.867-.521-4.413-3.399-4.413-2.014-.024-3.272-.011-5.281 0-1.163.015-2.184.726-2.544 1.806l-10.397 32.049ZM315.025 339.694h7.924l-4.476 13.609-3.632-.023 3.371-10.274h-4.291l1.104-3.312Z"/><path d="M332.668 322.36h3.602l-10.824 33.455c-.725 2.183-2.793 3.672-5.229 3.704-2.019.011-3.115.009-5.137 0-4.375-.019-6.058-1.739-7.076-4.571-.49-1.361-.531-3.278-.129-4.55 1.043-3.197 1.289-3.937 2.344-7.127.691-2.053 2.553-3.427 4.807-3.61 0 0-3.032 9.152-3.977 12.142-.572 1.866.521 4.413 3.399 4.413 2.013.023 3.272.01 5.28 0 1.164-.016 2.185-.726 2.544-1.806l10.396-32.05ZM238.537 448.558h-7.925l4.477-13.609 3.632.023-3.371 10.274h4.291l-1.104 3.312Z"/><path d="M220.893 465.892h-3.602l10.825-33.455c.725-2.183 2.794-3.672 5.23-3.705 2.019-.01 3.115-.008 5.137 0 4.375.02 6.058 1.74 7.076 4.572.49 1.36.531 3.278.129 4.55-1.043 3.197-1.29 3.937-2.345 7.127-.691 2.053-2.553 3.427-4.807 3.61 0 0 3.033-9.153 3.978-12.142.572-1.866-.521-4.413-3.399-4.413-2.014-.023-3.272-.01-5.281 0-1.163.015-2.184.726-2.544 1.806l-10.397 32.05ZM234.927 456.309h7.924l-4.476 13.609-3.632-.023 3.371-10.274h-4.291l1.104-3.312Z"/><path d="M252.57 438.975h3.602l-10.824 33.455c-.725 2.183-2.793 3.672-5.229 3.704-2.019.011-3.115.009-5.137 0-4.375-.019-6.058-1.739-7.076-4.571-.49-1.361-.531-3.278-.129-4.55 1.042-3.197 1.289-3.937 2.344-7.127.691-2.054 2.553-3.427 4.807-3.61 0 0-3.032 9.152-3.977 12.142-.572 1.866.521 4.412 3.399 4.412 2.013.024 3.272.011 5.28 0 1.164-.015 2.185-.725 2.544-1.805l10.396-32.05ZM172.012 555.368h3.599l-10.796 33.455c-.723 2.182-2.789 3.672-5.224 3.704-2.017.011-3.113.009-5.133 0-4.372-.019-6.055-1.739-7.075-4.572-.49-1.36-.532-3.278-.131-4.55 1.039-3.196 1.285-3.937 2.338-7.127.689-2.053 2.549-3.426 4.801-3.609 0 0-3.024 9.152-3.967 12.142-.57 1.866.524 4.412 3.4 4.412 2.012.024 3.27.011 5.277 0 1.163-.015 2.183-.725 2.541-1.806l10.37-32.049ZM347.313 353.503h-7.925l4.477-13.61 3.632.024-3.371 10.273h4.291l-1.104 3.313Z"/><path d="M329.668 370.836h-3.602l10.826-33.455c.725-2.182 2.793-3.672 5.23-3.704 2.019-.011 3.115-.008 5.137 0 4.374.02 6.057 1.739 7.076 4.572.489 1.36.53 3.278.128 4.55-1.042 3.196-1.289 3.937-2.344 7.127-.691 2.053-2.553 3.426-4.807 3.609 0 0 3.032-9.152 3.978-12.141.571-1.867-.521-4.413-3.4-4.413-2.013-.024-3.272-.011-5.28 0-1.163.015-2.185.726-2.544 1.806l-10.398 32.049ZM343.702 361.253h7.925l-4.476 13.61-3.632-.024 3.37-10.273h-4.29l1.103-3.313Z"/><path d="M361.346 343.92h3.602l-10.824 33.455c-.725 2.182-2.794 3.672-5.23 3.704-2.019.011-3.115.009-5.137 0-4.374-.019-6.057-1.739-7.076-4.572-.489-1.36-.53-3.278-.128-4.55 1.042-3.196 1.289-3.937 2.344-7.126.69-2.054 2.553-3.427 4.807-3.61 0 0-3.033 9.152-3.978 12.142-.571 1.866.521 4.412 3.4 4.412 2.013.024 3.271.011 5.28 0 1.163-.015 2.184-.725 2.544-1.806l10.396-32.049ZM267.215 470.118h-7.925l4.477-13.61 3.632.024-3.371 10.273h4.291l-1.104 3.313Z"/><path d="M249.57 487.451h-3.602l10.826-33.455c.725-2.182 2.793-3.672 5.23-3.704 2.019-.011 3.115-.008 5.137 0 4.374.02 6.057 1.739 7.076 4.572.489 1.36.53 3.278.128 4.55-1.042 3.196-1.289 3.937-2.344 7.127-.691 2.053-2.553 3.426-4.807 3.609 0 0 3.032-9.152 3.978-12.141.571-1.867-.521-4.413-3.4-4.413-2.013-.024-3.272-.011-5.28 0-1.163.015-2.185.726-2.544 1.806l-10.398 32.049ZM263.605 477.868h7.924l-4.476 13.61-3.632-.024 3.37-10.273h-4.29l1.104-3.313Z"/><path d="M281.248 460.535h3.602l-10.824 33.455c-.725 2.182-2.794 3.672-5.23 3.704-2.019.011-3.115.009-5.137 0-4.374-.019-6.057-1.739-7.076-4.572-.489-1.36-.53-3.278-.128-4.55 1.042-3.196 1.289-3.937 2.344-7.126.69-2.054 2.553-3.427 4.807-3.61 0 0-3.033 9.152-3.978 12.142-.571 1.866.521 4.412 3.4 4.412 2.013.024 3.271.011 5.28 0 1.163-.015 2.184-.725 2.544-1.806l10.396-32.049ZM186.785 585.844h-7.925l4.477-13.61 3.632.024-3.371 10.273h4.291l-1.104 3.313Z"/><path d="M169.141 603.177h-3.602l10.825-33.455c.725-2.182 2.794-3.672 5.23-3.704 2.019-.011 3.115-.009 5.137 0 4.374.019 6.058 1.739 7.076 4.572.489 1.36.531 3.278.128 4.55-1.042 3.196-1.289 3.937-2.344 7.126-.691 2.054-2.553 3.427-4.807 3.61 0 0 3.032-9.152 3.978-12.142.571-1.866-.521-4.412-3.4-4.412-2.013-.024-3.271-.011-5.28 0-1.163.015-2.185.725-2.544 1.806l-10.397 32.049ZM183.175 593.594h7.924l-4.476 13.61-3.632-.024 3.37-10.273h-4.29l1.104-3.313Z"/><path d="M200.818 576.261h3.602l-10.824 33.455c-.725 2.182-2.793 3.672-5.23 3.704-2.019.011-3.115.008-5.136 0-4.375-.02-6.058-1.739-7.077-4.572-.489-1.36-.53-3.278-.128-4.55 1.042-3.196 1.289-3.937 2.344-7.127.691-2.053 2.553-3.426 4.807-3.609 0 0-3.032 9.152-3.978 12.142-.571 1.866.522 4.412 3.4 4.412 2.013.024 3.272.011 5.28 0 1.163-.015 2.185-.725 2.544-1.806l10.396-32.049ZM376.101 374.322h-7.925l4.477-13.61 3.632.024-3.371 10.273h4.291l-1.104 3.313Z"/><path d="M358.457 391.655h-3.603L365.68 358.2c.725-2.182 2.794-3.672 5.23-3.704 2.019-.011 3.115-.009 5.137 0 4.374.019 6.057 1.739 7.076 4.572.489 1.36.531 3.278.128 4.55-1.042 3.196-1.289 3.937-2.344 7.126-.691 2.054-2.553 3.427-4.807 3.61 0 0 3.032-9.152 3.978-12.142.571-1.866-.521-4.412-3.4-4.412-2.013-.024-3.272-.011-5.28 0-1.163.015-2.185.725-2.544 1.806l-10.397 32.049ZM372.491 382.072h7.924l-4.476 13.61-3.632-.024 3.371-10.273h-4.291l1.104-3.313Z"/><path d="M390.134 364.739h3.602l-10.824 33.455c-.725 2.182-2.794 3.672-5.23 3.704-2.019.011-3.115.009-5.136 0-4.375-.019-6.058-1.739-7.077-4.572-.489-1.36-.53-3.278-.128-4.55 1.042-3.196 1.289-3.937 2.344-7.127.691-2.053 2.553-3.426 4.807-3.609 0 0-3.032 9.152-3.978 12.142-.571 1.866.521 4.412 3.4 4.412 2.013.024 3.272.011 5.28 0 1.163-.015 2.185-.725 2.544-1.806l10.396-32.049ZM467.157 295.712h-3.6l10.799-33.455c.723-2.183 2.79-3.672 5.224-3.705 2.018-.01 3.114-.008 5.134 0 4.372.02 6.056 1.74 7.075 4.572.49 1.36.532 3.278.131 4.55-1.04 3.197-1.286 3.937-2.338 7.127-.689 2.053-2.55 3.427-4.802 3.61 0 0 3.025-9.153 3.968-12.142.57-1.866-.524-4.413-3.4-4.413-2.013-.023-3.27-.01-5.278 0-1.162.015-2.183.726-2.541 1.806l-10.372 32.05ZM481.174 286.128h7.924l-4.476 13.61-3.632-.024 3.371-10.273h-4.291l1.104-3.313Z"/><path d="M498.817 268.795h3.602l-10.824 33.455c-.725 2.183-2.793 3.672-5.229 3.704-2.019.011-3.116.009-5.137 0-4.375-.019-6.058-1.739-7.076-4.571-.49-1.361-.531-3.279-.129-4.551 1.042-3.196 1.289-3.936 2.344-7.126.691-2.054 2.553-3.427 4.807-3.61 0 0-3.032 9.152-3.978 12.142-.571 1.866.522 4.412 3.4 4.412 2.013.024 3.272.011 5.28 0 1.163-.015 2.185-.725 2.544-1.806l10.396-32.049ZM295.984 490.937h-7.924l4.477-13.61 3.631.024-3.37 10.273h4.29l-1.104 3.313Z"/><path d="M278.34 508.27h-3.602l10.826-33.455c.725-2.182 2.793-3.672 5.229-3.704 2.02-.011 3.116-.009 5.137 0 4.375.019 6.058 1.739 7.077 4.572.489 1.36.53 3.278.128 4.55-1.042 3.196-1.289 3.937-2.344 7.126-.691 2.054-2.553 3.427-4.808 3.61 0 0 3.033-9.152 3.979-12.142.571-1.866-.522-4.412-3.4-4.412-2.013-.024-3.272-.011-5.28 0-1.164.015-2.185.725-2.544 1.806L278.34 508.27ZM292.374 498.687h7.925l-4.477 13.61-3.631-.024 3.37-10.273h-4.291l1.104-3.313Z"/><path d="M310.017 481.354h3.602l-10.823 33.455c-.726 2.182-2.794 3.672-5.23 3.704-2.019.011-3.115.008-5.137 0-4.374-.02-6.057-1.739-7.076-4.572-.489-1.36-.531-3.278-.128-4.55 1.042-3.196 1.289-3.937 2.344-7.127.69-2.053 2.552-3.426 4.806-3.609 0 0-3.032 9.152-3.977 12.142-.571 1.866.521 4.412 3.4 4.412 2.013.024 3.271.011 5.28 0 1.163-.015 2.184-.725 2.544-1.806l10.395-32.049ZM406.4 394.474h-7.925l4.477-13.61 3.632.024-3.371 10.273h4.291l-1.104 3.313Z"/><path d="M388.756 411.807h-3.602l10.825-33.455c.726-2.182 2.794-3.672 5.23-3.704 2.019-.011 3.115-.009 5.137 0 4.375.019 6.058 1.739 7.076 4.572.49 1.36.531 3.278.129 4.55-1.043 3.196-1.29 3.937-2.345 7.127-.691 2.053-2.553 3.426-4.807 3.609 0 0 3.033-9.152 3.978-12.142.572-1.866-.521-4.412-3.399-4.412-2.014-.024-3.272-.011-5.281 0-1.163.015-2.184.725-2.544 1.806l-10.397 32.049ZM402.79 402.224h7.925l-4.477 13.61-3.631-.024 3.37-10.273h-4.291l1.104-3.313Z"/><path d="M420.433 384.891h3.602l-10.824 33.455c-.725 2.182-2.793 3.672-5.229 3.704-2.019.011-3.115.009-5.137 0-4.375-.019-6.058-1.739-7.076-4.572-.49-1.36-.531-3.278-.129-4.55 1.042-3.196 1.289-3.937 2.344-7.127.691-2.053 2.553-3.426 4.807-3.609 0 0-3.032 9.152-3.977 12.142-.572 1.866.521 4.412 3.399 4.412 2.013.024 3.272.011 5.28 0 1.164-.015 2.185-.725 2.544-1.806l10.396-32.049ZM515.102 298.53h-7.925l4.477-13.61 3.632.024-3.371 10.273h4.291l-1.104 3.313Z"/><path d="M497.458 315.863h-3.602l10.825-33.455c.725-2.183 2.794-3.672 5.23-3.704 2.019-.011 3.115-.009 5.137 0 4.375.019 6.058 1.739 7.076 4.571.49 1.361.531 3.279.129 4.551-1.043 3.196-1.29 3.936-2.345 7.126-.691 2.054-2.553 3.427-4.807 3.61 0 0 3.033-9.152 3.978-12.142.572-1.866-.521-4.412-3.399-4.412-2.014-.024-3.272-.011-5.281 0-1.163.015-2.184.725-2.544 1.806l-10.397 32.049ZM511.492 306.28h7.924l-4.476 13.609-3.632-.023 3.37-10.274h-4.29l1.104-3.312Z"/><path d="M529.135 288.947h3.602l-10.824 33.454c-.725 2.183-2.794 3.672-5.23 3.705-2.019.01-3.115.008-5.136 0-4.375-.02-6.058-1.74-7.077-4.572-.489-1.36-.53-3.278-.128-4.55 1.042-3.197 1.289-3.937 2.344-7.127.691-2.053 2.553-3.426 4.807-3.609 0 0-3.032 9.152-3.978 12.141-.571 1.866.522 4.413 3.4 4.413 2.013.023 3.272.01 5.28 0 1.163-.015 2.185-.726 2.544-1.806l10.396-32.049ZM246.093 395.511h-7.924l4.477-13.61 3.631.024-3.37 10.273h4.29l-1.104 3.313Z"/><path d="M228.449 412.844h-3.602l10.826-33.454c.725-2.183 2.793-3.672 5.229-3.705 2.02-.01 3.116-.008 5.137 0 4.375.02 6.058 1.739 7.077 4.572.489 1.36.53 3.278.128 4.55-1.043 3.196-1.289 3.937-2.344 7.127-.691 2.053-2.553 3.426-4.808 3.609 0 0 3.033-9.152 3.979-12.141.571-1.867-.522-4.413-3.4-4.413-2.013-.024-3.272-.011-5.28 0-1.164.015-2.185.726-2.544 1.806l-10.398 32.049ZM242.483 403.261h7.925l-4.477 13.61-3.631-.024 3.37-10.273h-4.291l1.104-3.313Z"/><path d="M260.126 385.928h3.602l-10.823 33.455c-.726 2.182-2.794 3.672-5.23 3.704-2.019.011-3.115.009-5.137 0-4.374-.019-6.057-1.739-7.076-4.572-.489-1.36-.531-3.278-.128-4.55 1.042-3.196 1.289-3.936 2.344-7.126.69-2.054 2.552-3.427 4.806-3.61 0 0-3.032 9.152-3.977 12.142-.571 1.866.521 4.412 3.4 4.412 2.013.024 3.271.011 5.28 0 1.163-.015 2.184-.725 2.544-1.806l10.395-32.049ZM354.795 299.567h-7.924l4.476-13.609 3.632.023-3.371 10.274h4.291l-1.104 3.312Z"/><path d="M337.151 316.901h-3.602l10.825-33.455c.726-2.183 2.794-3.672 5.23-3.704 2.019-.011 3.116-.009 5.137 0 4.375.019 6.058 1.739 7.077 4.571.489 1.361.53 3.278.128 4.55-1.043 3.197-1.289 3.937-2.345 7.127-.69 2.054-2.553 3.427-4.807 3.61 0 0 3.033-9.152 3.978-12.142.572-1.866-.521-4.412-3.399-4.412-2.013-.024-3.272-.011-5.281 0-1.163.015-2.184.725-2.543 1.805l-10.398 32.05ZM351.185 307.318h7.925l-4.477 13.609-3.631-.023 3.37-10.274h-4.291l1.104-3.312Z"/><path d="M368.828 289.984h3.602l-10.824 33.455c-.725 2.183-2.793 3.672-5.229 3.705-2.019.01-3.115.008-5.137 0-4.375-.02-6.058-1.74-7.076-4.572-.489-1.36-.531-3.278-.129-4.55 1.043-3.197 1.289-3.937 2.344-7.127.691-2.053 2.553-3.427 4.807-3.61 0 0-3.032 9.153-3.977 12.142-.572 1.866.521 4.413 3.399 4.413 2.014.023 3.272.01 5.281 0 1.163-.015 2.184-.726 2.543-1.806l10.396-32.05ZM148.369 529.459h-3.6l10.798-33.455c.724-2.182 2.79-3.672 5.225-3.704 2.018-.011 3.113-.008 5.134 0 4.372.02 6.055 1.739 7.075 4.572.489 1.36.532 3.278.131 4.55-1.04 3.196-1.286 3.937-2.339 7.127-.689 2.053-2.55 3.426-4.802 3.609 0 0 3.025-9.152 3.968-12.141.57-1.867-.523-4.413-3.4-4.413-2.012-.024-3.27-.011-5.277 0-1.163.015-2.183.726-2.542 1.806l-10.371 32.049ZM179.993 502.543h3.599l-10.797 33.455c-.723 2.182-2.789 3.672-5.224 3.704-2.017.011-3.113.009-5.133 0-4.372-.019-6.056-1.739-7.075-4.572-.49-1.36-.533-3.278-.131-4.55 1.039-3.196 1.285-3.937 2.338-7.126.689-2.054 2.549-3.427 4.802-3.61 0 0-3.025 9.152-3.968 12.142-.57 1.866.524 4.412 3.4 4.412 2.012.024 3.27.011 5.277 0 1.163-.015 2.183-.725 2.541-1.806l10.371-32.049ZM274.789 417.071h-7.924l4.477-13.61 3.631.024-3.37 10.273h4.29l-1.104 3.313Z"/><path d="M257.145 434.404h-3.602l10.826-33.455c.725-2.182 2.793-3.672 5.229-3.704 2.02-.011 3.116-.009 5.137 0 4.375.019 6.058 1.739 7.077 4.572.489 1.36.53 3.278.128 4.55-1.042 3.196-1.289 3.937-2.344 7.126-.691 2.054-2.553 3.427-4.808 3.61 0 0 3.033-9.152 3.979-12.142.571-1.866-.522-4.412-3.4-4.412-2.013-.024-3.272-.011-5.28 0-1.164.015-2.185.725-2.544 1.806l-10.398 32.049ZM271.179 424.821h7.925l-4.477 13.61-3.631-.024 3.37-10.273h-4.291l1.104-3.313Z"/><path d="M288.822 407.488h3.602l-10.823 33.455c-.726 2.182-2.794 3.672-5.23 3.704-2.019.011-3.115.008-5.137 0-4.374-.019-6.057-1.739-7.076-4.572-.489-1.36-.531-3.278-.128-4.55 1.042-3.196 1.288-3.937 2.344-7.127.69-2.053 2.552-3.426 4.806-3.609 0 0-3.032 9.152-3.977 12.142-.571 1.866.521 4.412 3.399 4.412 2.014.024 3.272.011 5.281 0 1.163-.015 2.184-.725 2.544-1.806l10.395-32.049ZM383.473 321.053h-7.925l4.477-13.61 3.632.024-3.371 10.273h4.291l-1.104 3.313Z"/><path d="M365.829 338.386h-3.602l10.825-33.454c.725-2.183 2.794-3.672 5.23-3.705 2.019-.011 3.115-.008 5.137 0 4.375.02 6.058 1.739 7.076 4.572.489 1.36.531 3.278.128 4.55-1.042 3.196-1.289 3.937-2.344 7.127-.691 2.053-2.553 3.426-4.807 3.609 0 0 3.033-9.152 3.978-12.141.571-1.867-.521-4.413-3.4-4.413-2.013-.024-3.271-.011-5.28 0-1.163.015-2.185.726-2.544 1.806l-10.397 32.049ZM379.863 328.803h7.924l-4.476 13.609-3.632-.023 3.371-10.274h-4.291l1.104-3.312Z"/><path d="M397.506 311.469h3.602l-10.824 33.455c-.725 2.183-2.794 3.672-5.23 3.705-2.019.01-3.115.008-5.136 0-4.375-.02-6.058-1.74-7.077-4.572-.489-1.361-.53-3.278-.128-4.55 1.042-3.197 1.289-3.937 2.344-7.127.691-2.053 2.553-3.427 4.807-3.61 0 0-3.032 9.152-3.978 12.142-.571 1.866.522 4.413 3.4 4.413 2.013.023 3.272.01 5.28 0 1.163-.015 2.185-.726 2.544-1.806l10.396-32.05ZM194.673 533.686h-7.925l4.477-13.61 3.632.024-3.371 10.273h4.291l-1.104 3.313Z"/><path d="M177.029 551.019h-3.602l10.825-33.455c.725-2.182 2.794-3.672 5.23-3.704 2.019-.011 3.115-.009 5.137 0 4.375.019 6.058 1.739 7.076 4.572.49 1.36.531 3.278.129 4.55-1.043 3.196-1.29 3.937-2.345 7.126-.691 2.054-2.553 3.427-4.807 3.61 0 0 3.033-9.152 3.978-12.142.571-1.866-.521-4.412-3.399-4.412-2.014-.024-3.272-.011-5.281 0-1.163.015-2.185.725-2.544 1.806l-10.397 32.049ZM191.063 541.436h7.924l-4.476 13.61-3.632-.024 3.371-10.273h-4.291l1.104-3.313Z"/><path d="M208.706 524.103h3.602l-10.824 33.454c-.725 2.183-2.793 3.672-5.229 3.705-2.019.011-3.116.008-5.137 0-4.375-.02-6.058-1.739-7.077-4.572-.489-1.36-.53-3.278-.128-4.55 1.042-3.196 1.289-3.937 2.344-7.127.691-2.053 2.553-3.426 4.807-3.609 0 0-3.032 9.152-3.978 12.141-.571 1.867.522 4.413 3.4 4.413 2.013.024 3.272.011 5.28 0 1.163-.015 2.185-.726 2.544-1.806l10.396-32.049ZM303.559 437.889h-7.925l4.477-13.609 3.632.023-3.371 10.274h4.291l-1.104 3.312Z"/><path d="M285.915 455.223h-3.602l10.825-33.455c.726-2.183 2.794-3.672 5.23-3.704 2.019-.011 3.115-.009 5.137 0 4.375.019 6.058 1.739 7.076 4.571.49 1.361.531 3.279.129 4.551-1.043 3.196-1.29 3.936-2.345 7.126-.691 2.054-2.553 3.427-4.807 3.61 0 0 3.033-9.152 3.978-12.142.572-1.866-.521-4.412-3.399-4.412-2.014-.024-3.272-.011-5.281 0-1.163.015-2.184.725-2.544 1.806l-10.397 32.049ZM299.949 445.64h7.924l-4.476 13.609-3.632-.023 3.371-10.274h-4.291l1.104-3.312Z"/><path d="M317.592 428.307h3.602l-10.824 33.454c-.725 2.183-2.793 3.672-5.229 3.705-2.019.01-3.115.008-5.137 0-4.375-.02-6.058-1.739-7.076-4.572-.49-1.36-.531-3.278-.129-4.55 1.043-3.197 1.289-3.937 2.344-7.127.691-2.053 2.553-3.426 4.807-3.609 0 0-3.032 9.152-3.977 12.141-.572 1.866.521 4.413 3.399 4.413 2.013.023 3.272.011 5.28 0 1.164-.015 2.185-.726 2.544-1.806l10.396-32.049ZM412.242 341.945h-7.924l4.477-13.609 3.631.023-3.37 10.274h4.29l-1.104 3.312Z"/><path d="M394.598 359.279h-3.602l10.826-33.455c.725-2.183 2.793-3.672 5.23-3.705 2.019-.01 3.115-.008 5.136 0 4.375.02 6.058 1.74 7.077 4.572.489 1.36.53 3.278.128 4.55-1.042 3.197-1.289 3.937-2.344 7.127-.691 2.053-2.553 3.427-4.807 3.61 0 0 3.032-9.153 3.978-12.142.571-1.866-.522-4.413-3.4-4.413-2.013-.023-3.272-.01-5.28 0-1.164.015-2.185.726-2.544 1.806l-10.398 32.05ZM408.633 349.696h7.924l-4.476 13.609-3.632-.023 3.37-10.274h-4.29l1.104-3.312Z"/><path d="M426.275 332.362h3.603l-10.824 33.455c-.726 2.183-2.794 3.672-5.23 3.704-2.019.011-3.115.009-5.137 0-4.374-.019-6.057-1.739-7.076-4.571-.489-1.361-.531-3.278-.128-4.551 1.042-3.196 1.289-3.936 2.344-7.126.69-2.054 2.553-3.427 4.807-3.61 0 0-3.033 9.152-3.978 12.142-.571 1.866.521 4.412 3.4 4.412 2.013.024 3.271.011 5.28 0 1.163-.015 2.184-.725 2.544-1.805l10.395-32.05ZM223.443 554.504h-7.925l4.477-13.609 3.632.023-3.371 10.274h4.291l-1.104 3.312Z"/><path d="M205.798 571.838h-3.602l10.826-33.455c.725-2.183 2.793-3.672 5.23-3.704 2.019-.011 3.115-.009 5.137 0 4.374.019 6.057 1.739 7.076 4.571.489 1.361.53 3.278.128 4.55-1.042 3.197-1.289 3.937-2.344 7.127-.691 2.054-2.553 3.427-4.807 3.61 0 0 3.032-9.152 3.978-12.142.571-1.866-.521-4.412-3.4-4.412-2.013-.024-3.272-.011-5.28 0-1.163.015-2.185.725-2.544 1.805l-10.398 32.05ZM219.832 562.255h7.925l-4.476 13.609-3.632-.023 3.37-10.274h-4.29l1.103-3.312Z"/><path d="M237.476 544.921h3.602l-10.824 33.455c-.725 2.183-2.794 3.672-5.23 3.705-2.019.01-3.115.008-5.137 0-4.374-.02-6.057-1.74-7.076-4.572-.489-1.36-.53-3.278-.128-4.55 1.042-3.197 1.289-3.937 2.344-7.127.69-2.053 2.553-3.427 4.807-3.61 0 0-3.033 9.153-3.978 12.142-.571 1.866.521 4.413 3.4 4.413 2.013.023 3.271.01 5.28 0 1.163-.015 2.184-.726 2.544-1.806l10.396-32.05ZM333.858 458.041h-7.924l4.477-13.609 3.631.023-3.37 10.274h4.29l-1.104 3.312Z"/><path d="M316.214 475.375h-3.602l10.826-33.455c.725-2.183 2.793-3.672 5.229-3.704 2.02-.011 3.116-.009 5.137 0 4.375.019 6.058 1.739 7.077 4.571.489 1.361.53 3.279.128 4.551-1.042 3.196-1.289 3.936-2.344 7.126-.691 2.054-2.553 3.427-4.807 3.61 0 0 3.032-9.152 3.978-12.142.571-1.866-.522-4.412-3.4-4.412-2.013-.024-3.272-.011-5.28 0-1.164.015-2.185.725-2.544 1.806l-10.398 32.049ZM330.248 465.792h7.925l-4.477 13.61-3.631-.024 3.37-10.273h-4.291l1.104-3.313Z"/><path d="M347.891 448.459h3.602l-10.824 33.454c-.725 2.183-2.793 3.672-5.229 3.705-2.019.01-3.115.008-5.137 0-4.374-.02-6.058-1.739-7.076-4.572-.489-1.36-.531-3.278-.129-4.55 1.043-3.197 1.289-3.937 2.344-7.127.691-2.053 2.553-3.426 4.807-3.609 0 0-3.032 9.152-3.977 12.141-.571 1.866.521 4.413 3.399 4.413 2.014.023 3.272.011 5.281 0 1.163-.015 2.184-.726 2.543-1.806l10.396-32.049ZM442.56 362.097h-7.924l4.476-13.609 3.632.023-3.371 10.274h4.291l-1.104 3.312Z"/><path d="M424.916 379.431h-3.602l10.825-33.455c.726-2.183 2.794-3.672 5.23-3.705 2.019-.01 3.115-.008 5.137 0 4.375.02 6.058 1.74 7.077 4.572.489 1.36.53 3.278.128 4.55-1.043 3.197-1.289 3.937-2.345 7.127-.69 2.053-2.553 3.427-4.807 3.61 0 0 3.033-9.153 3.978-12.142.572-1.866-.521-4.413-3.399-4.413-2.013-.023-3.272-.01-5.281 0-1.163.015-2.184.726-2.543 1.806l-10.398 32.05ZM438.95 369.848h7.925l-4.477 13.609-3.631-.023 3.37-10.274h-4.291l1.104-3.312Z"/><path d="M456.593 352.514h3.602l-10.824 33.455c-.725 2.183-2.793 3.672-5.229 3.704-2.019.011-3.115.009-5.137 0-4.375-.019-6.058-1.739-7.076-4.571-.49-1.361-.531-3.278-.129-4.551 1.043-3.196 1.289-3.936 2.344-7.126.691-2.054 2.553-3.427 4.807-3.61 0 0-3.032 9.152-3.977 12.142-.572 1.866.521 4.412 3.399 4.412 2.014.024 3.272.011 5.281 0 1.163-.015 2.184-.725 2.543-1.805l10.396-32.05ZM565.277 257.385h3.6l-10.796 33.455c-.724 2.182-2.79 3.672-5.224 3.704-2.018.011-3.113.009-5.134 0-4.372-.019-6.055-1.739-7.075-4.572-.49-1.36-.532-3.278-.131-4.55 1.04-3.196 1.286-3.937 2.338-7.127.689-2.053 2.549-3.426 4.802-3.609 0 0-3.025 9.152-3.968 12.142-.569 1.866.524 4.412 3.401 4.412 2.012.024 3.269.011 5.277 0 1.162-.015 2.182-.725 2.541-1.806l10.369-32.049ZM147.023 302.676h-3.6l10.799-33.455c.723-2.183 2.79-3.672 5.224-3.705 2.018-.01 3.114-.008 5.134 0 4.372.02 6.055 1.739 7.075 4.572.49 1.36.532 3.278.131 4.55-1.04 3.197-1.286 3.937-2.339 7.127-.689 2.053-2.549 3.427-4.802 3.609 0 0 3.026-9.152 3.969-12.141.57-1.866-.524-4.413-3.401-4.413-2.012-.023-3.269-.011-5.277 0-1.162.015-2.183.726-2.541 1.806l-10.372 32.05ZM178.647 275.759h3.6l-10.797 33.455c-.723 2.182-2.789 3.672-5.224 3.704-2.018.011-3.113.009-5.134 0-4.372-.019-6.055-1.739-7.075-4.571-.49-1.361-.532-3.279-.131-4.551 1.04-3.196 1.286-3.936 2.338-7.126.689-2.054 2.55-3.427 4.802-3.61 0 0-3.025 9.152-3.968 12.142-.569 1.866.524 4.412 3.401 4.412 2.012.024 3.27.011 5.277 0 1.162-.015 2.183-.725 2.541-1.806l10.37-32.049ZM193.733 303.864h-7.925l4.477-13.609 3.632.023-3.371 10.274h4.291l-1.104 3.312Z"/><path d="M176.089 321.198h-3.602l10.825-33.455c.725-2.183 2.794-3.672 5.23-3.705 2.019-.01 3.115-.008 5.137 0 4.375.02 6.058 1.74 7.076 4.572.49 1.36.531 3.278.129 4.55-1.043 3.197-1.29 3.937-2.345 7.127-.691 2.053-2.553 3.427-4.807 3.61 0 0 3.033-9.153 3.978-12.142.572-1.866-.521-4.413-3.399-4.413-2.014-.023-3.272-.01-5.281 0-1.163.015-2.184.726-2.544 1.806l-10.397 32.05ZM190.123 311.615h7.924l-4.476 13.609-3.632-.023 3.371-10.274h-4.291l1.104-3.312Z"/><path d="M207.766 294.281h3.602l-10.824 33.455c-.725 2.183-2.793 3.672-5.229 3.704-2.019.011-3.116.009-5.137 0-4.375-.019-6.058-1.739-7.076-4.571-.49-1.361-.531-3.278-.129-4.551 1.042-3.196 1.289-3.936 2.344-7.126.691-2.054 2.553-3.427 4.807-3.61 0 0-3.032 9.152-3.978 12.142-.571 1.866.522 4.412 3.4 4.412 2.013.024 3.272.011 5.28 0 1.164-.015 2.185-.725 2.544-1.805l10.396-32.05ZM222.429 325.424h-7.925l4.477-13.61 3.632.024-3.371 10.273h4.291l-1.104 3.313Z"/><path d="M204.785 342.757h-3.602l10.825-33.455c.725-2.182 2.794-3.672 5.23-3.704 2.019-.011 3.115-.009 5.137 0 4.375.019 6.058 1.739 7.076 4.572.489 1.36.531 3.278.128 4.55-1.042 3.196-1.289 3.937-2.344 7.127-.691 2.053-2.553 3.426-4.807 3.609 0 0 3.033-9.152 3.978-12.142.571-1.866-.521-4.412-3.399-4.412-2.014-.024-3.272-.011-5.281 0-1.163.015-2.185.725-2.544 1.806l-10.397 32.049ZM218.819 333.174h7.924l-4.476 13.61-3.632-.024 3.37-10.273h-4.29l1.104-3.313Z"/><path d="M236.462 315.841h3.602l-10.824 33.455c-.725 2.182-2.793 3.672-5.229 3.704-2.02.011-3.116.009-5.137 0-4.375-.019-6.058-1.739-7.077-4.572-.489-1.36-.53-3.278-.128-4.55 1.042-3.196 1.289-3.937 2.344-7.126.691-2.054 2.553-3.427 4.807-3.61 0 0-3.032 9.152-3.978 12.142-.571 1.866.522 4.412 3.4 4.412 2.013.024 3.272.011 5.28 0 1.163-.015 2.185-.725 2.544-1.806l10.396-32.049ZM251.199 346.243h-7.925l4.477-13.61 3.632.024-3.371 10.273h4.291l-1.104 3.313Z"/><path d="M233.554 363.576h-3.602l10.826-33.455c.725-2.182 2.793-3.672 5.23-3.704 2.019-.011 3.115-.009 5.137 0 4.374.019 6.057 1.739 7.076 4.572.489 1.36.53 3.278.128 4.55-1.042 3.196-1.289 3.937-2.344 7.126-.691 2.054-2.553 3.427-4.807 3.61 0 0 3.032-9.152 3.978-12.142.571-1.866-.521-4.412-3.4-4.412-2.013-.024-3.272-.011-5.28 0-1.163.015-2.185.725-2.544 1.806l-10.398 32.049ZM247.588 353.993h7.925l-4.476 13.61-3.632-.024 3.37-10.273h-4.29l1.103-3.313Z"/><path d="M265.232 336.66h3.602l-10.824 33.455c-.725 2.182-2.794 3.672-5.23 3.704-2.019.011-3.115.008-5.137 0-4.374-.02-6.057-1.739-7.076-4.572-.489-1.36-.53-3.278-.128-4.55 1.042-3.196 1.289-3.937 2.344-7.127.69-2.053 2.553-3.426 4.807-3.609 0 0-3.033 9.152-3.978 12.141-.571 1.867.521 4.413 3.4 4.413 2.013.024 3.271.011 5.28 0 1.163-.015 2.184-.725 2.544-1.806l10.396-32.049ZM212.525 289.117h-3.6l10.798-33.454c.724-2.183 2.79-3.672 5.225-3.705 2.017-.011 3.113-.008 5.133 0 4.373.02 6.056 1.739 7.075 4.572.49 1.36.532 3.278.131 4.55-1.04 3.196-1.286 3.937-2.338 7.127-.689 2.053-2.55 3.426-4.802 3.609 0 0 3.025-9.152 3.968-12.141.57-1.867-.524-4.413-3.4-4.413-2.012-.024-3.27-.011-5.278 0-1.162.015-2.182.726-2.541 1.806l-10.371 32.049ZM226.541 279.534h7.924l-4.476 13.61-3.631-.024 3.37-10.273h-4.291l1.104-3.313Z"/><path d="M244.184 262.201h3.602l-10.824 33.455c-.725 2.182-2.793 3.672-5.229 3.704-2.019.011-3.115.009-5.137 0-4.375-.019-6.058-1.739-7.076-4.572-.49-1.36-.531-3.278-.129-4.55 1.043-3.196 1.289-3.937 2.344-7.126.691-2.054 2.553-3.427 4.807-3.61 0 0-3.032 9.152-3.977 12.142-.572 1.866.521 4.412 3.399 4.412 2.014.024 3.272.011 5.281 0 1.163-.015 2.184-.725 2.543-1.806l10.396-32.049ZM258.847 293.27h-7.925l4.477-13.61 3.632.024-3.371 10.273h4.291l-1.104 3.313Z"/><path d="M241.203 310.603h-3.602l10.825-33.455c.726-2.182 2.794-3.672 5.23-3.704 2.019-.011 3.115-.009 5.137 0 4.375.019 6.058 1.739 7.076 4.572.49 1.36.531 3.278.129 4.55-1.043 3.196-1.289 3.936-2.345 7.126-.69 2.054-2.553 3.427-4.807 3.61 0 0 3.033-9.152 3.978-12.142.572-1.866-.521-4.412-3.399-4.412-2.014-.024-3.272-.011-5.281 0-1.163.015-2.184.725-2.544 1.806l-10.397 32.049ZM255.237 301.02h7.924l-4.476 13.61-3.632-.024 3.371-10.273h-4.291l1.104-3.313Z"/><path d="M272.88 283.687h3.602l-10.824 33.454c-.725 2.183-2.793 3.672-5.229 3.705-2.019.011-3.116.008-5.137 0-4.375-.02-6.058-1.739-7.076-4.572-.49-1.36-.531-3.278-.129-4.55 1.042-3.196 1.289-3.937 2.344-7.127.691-2.053 2.553-3.426 4.807-3.609 0 0-3.032 9.152-3.978 12.141-.571 1.867.522 4.413 3.4 4.413 2.013.024 3.272.011 5.28 0 1.164-.015 2.185-.726 2.544-1.806l10.396-32.049ZM178.417 408.995h-7.924l4.477-13.609 3.631.023-3.37 10.274h4.29l-1.104 3.312Z"/><path d="M160.773 426.329h-3.602l10.826-33.455c.725-2.183 2.793-3.672 5.229-3.704 2.019-.011 3.116-.009 5.137 0 4.375.019 6.058 1.739 7.077 4.571.489 1.361.53 3.279.128 4.551-1.043 3.196-1.289 3.936-2.344 7.126-.691 2.054-2.554 3.427-4.808 3.61 0 0 3.033-9.152 3.979-12.142.571-1.866-.522-4.412-3.4-4.412-2.013-.024-3.272-.011-5.28 0-1.164.015-2.185.725-2.544 1.806l-10.398 32.049ZM174.807 416.746h7.925l-4.477 13.609-3.631-.023 3.37-10.274h-4.291l1.104-3.312Z"/><path d="M192.45 399.413h3.602l-10.824 33.454c-.725 2.183-2.793 3.672-5.229 3.705-2.019.01-3.115.008-5.137 0-4.374-.02-6.057-1.74-7.076-4.572-.489-1.36-.531-3.278-.129-4.55 1.043-3.197 1.289-3.937 2.344-7.127.691-2.053 2.553-3.427 4.807-3.609 0 0-3.032 9.152-3.977 12.141-.571 1.866.521 4.413 3.399 4.413 2.014.023 3.272.01 5.281 0 1.163-.015 2.184-.726 2.543-1.806l10.396-32.049ZM287.617 314.162h-7.925l4.477-13.609 3.632.023-3.371 10.274h4.291l-1.104 3.312Z"/><path d="M269.973 331.496h-3.602l10.825-33.455c.725-2.183 2.794-3.672 5.23-3.704 2.019-.011 3.115-.009 5.137 0 4.375.019 6.058 1.739 7.076 4.571.489 1.361.531 3.278.128 4.551-1.042 3.196-1.289 3.936-2.344 7.126-.691 2.054-2.553 3.427-4.807 3.61 0 0 3.032-9.152 3.978-12.142.571-1.866-.521-4.412-3.4-4.412-2.013-.024-3.271-.011-5.28 0-1.163.015-2.185.725-2.544 1.805l-10.397 32.05ZM284.006 321.913h7.925l-4.476 13.609-3.632-.023 3.37-10.274h-4.29l1.103-3.312Z"/><path d="M301.65 304.579h3.602l-10.824 33.455c-.725 2.183-2.794 3.672-5.23 3.705-2.019.01-3.115.008-5.137 0-4.374-.02-6.057-1.74-7.076-4.572-.489-1.36-.53-3.278-.128-4.55 1.042-3.197 1.289-3.937 2.344-7.127.69-2.053 2.553-3.427 4.807-3.61 0 0-3.033 9.153-3.978 12.142-.571 1.866.521 4.413 3.4 4.413 2.013.023 3.271.01 5.28 0 1.163-.015 2.185-.726 2.544-1.806l10.396-32.05ZM171.624 325.769h3.6l-10.796 33.454c-.723 2.183-2.789 3.672-5.224 3.705-2.017.011-3.113.008-5.133 0-4.372-.02-6.055-1.739-7.075-4.572-.49-1.36-.532-3.278-.131-4.55 1.039-3.196 1.285-3.937 2.338-7.127.689-2.053 2.549-3.426 4.801-3.609 0 0-3.024 9.152-3.967 12.141-.57 1.867.524 4.413 3.4 4.413 2.012.024 3.27.011 5.277 0 1.163-.015 2.183-.726 2.541-1.806l10.369-32.049ZM186.306 356.837h-7.925l4.477-13.609 3.631.023-3.37 10.274h4.291l-1.104 3.312Z"/><path d="M168.661 374.171h-3.602l10.826-33.455c.725-2.183 2.793-3.672 5.23-3.705 2.019-.01 3.115-.008 5.137 0 4.374.02 6.057 1.74 7.076 4.572.489 1.361.53 3.278.128 4.55-1.042 3.197-1.289 3.937-2.344 7.127-.691 2.053-2.553 3.427-4.807 3.61 0 0 3.032-9.152 3.978-12.142.571-1.866-.521-4.413-3.4-4.413-2.013-.023-3.272-.01-5.28 0-1.164.015-2.185.726-2.544 1.806l-10.398 32.05ZM182.695 364.588h7.925l-4.476 13.609-3.632-.023 3.37-10.274h-4.29l1.103-3.312Z"/><path d="M200.339 347.254h3.602l-10.824 33.455c-.725 2.183-2.794 3.672-5.23 3.704-2.019.011-3.115.009-5.137 0-4.374-.019-6.057-1.739-7.076-4.571-.489-1.361-.53-3.278-.128-4.55 1.042-3.197 1.289-3.937 2.344-7.127.69-2.053 2.553-3.427 4.807-3.61 0 0-3.033 9.152-3.978 12.142-.571 1.866.521 4.413 3.4 4.413 2.013.023 3.271.01 5.28 0 1.163-.016 2.184-.726 2.544-1.806l10.396-32.05ZM215.075 377.73h-7.925l4.477-13.61 3.632.024-3.371 10.274h4.291l-1.104 3.312Z"/><path d="M197.431 395.063h-3.602l10.825-33.454c.726-2.183 2.794-3.672 5.23-3.705 2.019-.01 3.115-.008 5.137 0 4.375.02 6.058 1.74 7.076 4.572.49 1.36.531 3.278.129 4.55-1.043 3.197-1.289 3.937-2.345 7.127-.69 2.053-2.553 3.427-4.807 3.609 0 0 3.033-9.152 3.978-12.141.572-1.866-.521-4.413-3.399-4.413-2.014-.023-3.272-.01-5.281 0-1.163.015-2.184.726-2.544 1.806l-10.397 32.049ZM211.465 385.48h7.924l-4.476 13.61-3.631-.024 3.37-10.273h-4.291l1.104-3.313Z"/><path d="M229.108 368.147h3.602l-10.824 33.455c-.725 2.183-2.793 3.672-5.229 3.704-2.019.011-3.115.009-5.137 0-4.375-.019-6.058-1.739-7.076-4.571-.49-1.361-.531-3.279-.129-4.551 1.043-3.196 1.289-3.936 2.344-7.126.691-2.054 2.553-3.427 4.807-3.61 0 0-3.032 9.152-3.977 12.142-.572 1.866.521 4.412 3.399 4.412 2.014.024 3.272.011 5.281 0 1.163-.015 2.184-.725 2.543-1.806l10.396-32.049ZM307.864 298.601h-3.6l10.799-33.455c.723-2.183 2.79-3.672 5.224-3.705 2.018-.01 3.114-.008 5.134 0 4.372.02 6.056 1.74 7.075 4.572.49 1.361.532 3.278.131 4.55-1.04 3.197-1.286 3.937-2.338 7.127-.69 2.053-2.55 3.427-4.803 3.61 0 0 3.026-9.152 3.969-12.142.57-1.866-.524-4.413-3.4-4.413-2.013-.023-3.27-.01-5.278 0-1.162.015-2.183.726-2.541 1.806l-10.372 32.05ZM321.881 289.018h7.924l-4.476 13.609-3.632-.023 3.371-10.274h-4.291l1.104-3.312Z"/><path d="M339.524 271.684h3.602l-10.824 33.455c-.725 2.183-2.793 3.672-5.229 3.704-2.019.011-3.115.009-5.137 0-4.375-.019-6.058-1.739-7.076-4.571-.49-1.361-.531-3.278-.129-4.55 1.042-3.197 1.289-3.937 2.344-7.127.691-2.054 2.553-3.427 4.807-3.61 0 0-3.032 9.152-3.977 12.142-.572 1.866.521 4.412 3.399 4.412 2.013.024 3.272.011 5.28 0 1.164-.015 2.185-.725 2.544-1.805l10.396-32.05ZM31.55 222.065h-3.6l10.798-33.455c.724-2.183 2.79-3.672 5.225-3.704 2.017-.011 3.113-.009 5.133 0 4.373.019 6.056 1.739 7.075 4.571.49 1.361.533 3.279.131 4.551-1.04 3.196-1.286 3.936-2.338 7.126-.69 2.054-2.55 3.427-4.802 3.61 0 0 3.025-9.152 3.968-12.142.57-1.866-.523-4.412-3.4-4.412-2.012-.024-3.27-.011-5.278 0-1.162.015-2.182.725-2.54 1.806L31.55 222.065ZM263.431 18.445h7.924l-4.476 13.61-3.631-.024 3.369-10.273h-4.29l1.104-3.313Z"/><path d="M281.073 1.112h3.602l-10.823 33.455c-.725 2.182-2.793 3.672-5.229 3.704-2.019.01-3.115.009-5.136 0-4.375-.02-6.058-1.739-7.076-4.572-.49-1.36-.531-3.278-.129-4.55 1.042-3.196 1.289-3.937 2.344-7.126.69-2.054 2.552-3.427 4.806-3.61 0 0-3.032 9.152-3.977 12.142-.571 1.866.522 4.412 3.4 4.412 2.013.024 3.272.011 5.28 0 1.163-.015 2.184-.725 2.544-1.806l10.394-32.049ZM187.035 128.198h-7.925l4.477-13.609 3.632.023-3.371 10.274h4.291l-1.104 3.312Z"/><path d="M169.391 145.532h-3.602l10.825-33.455c.726-2.183 2.794-3.672 5.23-3.704 2.019-.011 3.115-.009 5.137 0 4.375.019 6.058 1.739 7.076 4.571.49 1.361.531 3.278.129 4.55-1.043 3.197-1.289 3.937-2.345 7.127-.69 2.053-2.553 3.427-4.807 3.61 0 0 3.033-9.152 3.978-12.142.572-1.866-.521-4.413-3.399-4.413-2.014-.023-3.272-.01-5.281 0-1.163.016-2.184.726-2.544 1.806l-10.397 32.05ZM183.425 135.949h7.924l-4.476 13.609-3.632-.023 3.371-10.274h-4.291l1.104-3.312Z"/><path d="M201.068 118.615h3.602l-10.824 33.455c-.725 2.183-2.793 3.672-5.229 3.704-2.019.011-3.116.009-5.137 0-4.375-.019-6.058-1.739-7.076-4.571-.49-1.361-.531-3.278-.129-4.55 1.042-3.197 1.289-3.937 2.344-7.127.691-2.053 2.553-3.427 4.807-3.61 0 0-3.032 9.152-3.978 12.142-.571 1.866.522 4.413 3.4 4.413 2.013.023 3.272.01 5.28 0 1.164-.015 2.185-.726 2.544-1.806l10.396-32.05ZM106.937 244.813h-7.925l4.477-13.609 3.632.023-3.371 10.274h4.291l-1.104 3.312Z"/><path d="M89.293 262.147H85.69l10.825-33.455c.725-2.183 2.794-3.672 5.23-3.705 2.019-.01 3.115-.008 5.137 0 4.375.02 6.058 1.74 7.076 4.572.489 1.36.531 3.278.128 4.55-1.042 3.197-1.289 3.937-2.344 7.127-.691 2.053-2.553 3.427-4.807 3.61 0 0 3.033-9.153 3.978-12.142.571-1.866-.521-4.413-3.4-4.413-2.013-.023-3.271-.01-5.28 0-1.163.015-2.185.726-2.544 1.806l-10.397 32.05ZM103.327 252.564h7.924l-4.476 13.609-3.632-.023 3.371-10.274h-4.291l1.104-3.312Z"/><path d="M120.97 235.23h3.602l-10.824 33.455c-.725 2.183-2.793 3.672-5.229 3.704-2.019.011-3.116.009-5.137 0-4.375-.019-6.058-1.739-7.077-4.571-.489-1.361-.53-3.278-.128-4.55 1.042-3.197 1.289-3.937 2.344-7.127.69-2.054 2.553-3.427 4.807-3.61 0 0-3.032 9.152-3.978 12.142-.57 1.866.522 4.412 3.4 4.412 2.013.024 3.272.011 5.28 0 1.163-.015 2.185-.725 2.544-1.805l10.396-32.05ZM215.823 149.019h-7.925l4.477-13.61 3.632.024-3.371 10.273h4.291l-1.104 3.313Z"/><path d="M198.179 166.352h-3.602l10.825-33.455c.725-2.183 2.794-3.672 5.23-3.704 2.019-.011 3.115-.009 5.137 0 4.375.019 6.058 1.739 7.076 4.571.49 1.361.531 3.278.129 4.551-1.043 3.196-1.29 3.936-2.345 7.126-.691 2.054-2.553 3.427-4.807 3.61 0 0 3.033-9.152 3.978-12.142.572-1.866-.521-4.412-3.399-4.412-2.014-.024-3.272-.011-5.281 0-1.163.015-2.184.725-2.544 1.805l-10.397 32.05ZM212.213 156.769h7.924l-4.476 13.609-3.632-.023 3.371-10.274h-4.291l1.104-3.312Z"/><path d="M229.856 139.435h3.602l-10.824 33.455c-.725 2.183-2.793 3.672-5.229 3.705-2.019.01-3.116.008-5.137 0-4.375-.02-6.058-1.74-7.076-4.572-.49-1.36-.531-3.278-.129-4.55 1.042-3.197 1.289-3.937 2.344-7.127.691-2.053 2.553-3.427 4.807-3.61 0 0-3.032 9.153-3.978 12.142-.571 1.866.522 4.413 3.4 4.413 2.013.023 3.272.01 5.28 0 1.164-.015 2.185-.726 2.544-1.806l10.396-32.05ZM135.725 265.632H127.8l4.477-13.61 3.632.024-3.371 10.274h4.291l-1.104 3.312Z"/><path d="M118.081 282.965h-3.602l10.825-33.454c.725-2.183 2.794-3.672 5.23-3.705 2.019-.01 3.115-.008 5.137 0 4.375.02 6.058 1.739 7.076 4.572.49 1.36.531 3.278.129 4.55-1.043 3.196-1.29 3.937-2.345 7.127-.691 2.053-2.553 3.426-4.807 3.609 0 0 3.033-9.152 3.978-12.141.571-1.867-.521-4.413-3.399-4.413-2.014-.023-3.272-.011-5.281 0-1.163.015-2.184.726-2.544 1.806l-10.397 32.049ZM132.115 273.382h7.924l-4.476 13.61-3.632-.024 3.37-10.273h-4.29l1.104-3.313Z"/><path d="M149.758 256.049h3.602l-10.824 33.455c-.725 2.182-2.793 3.672-5.23 3.704-2.019.011-3.115.009-5.136 0-4.375-.019-6.058-1.739-7.077-4.572-.489-1.36-.53-3.278-.128-4.55 1.042-3.196 1.289-3.936 2.344-7.126.691-2.054 2.553-3.427 4.807-3.61 0 0-3.032 9.152-3.978 12.142-.571 1.866.522 4.412 3.4 4.412 2.013.024 3.272.011 5.28 0 1.163-.015 2.185-.725 2.544-1.806l10.396-32.049ZM246.122 169.169h-7.924l4.476-13.609 3.632.023-3.371 10.274h4.291l-1.104 3.312Z"/><path d="M228.478 186.502h-3.602l10.826-33.454c.725-2.183 2.793-3.672 5.229-3.705 2.02-.01 3.116-.008 5.137 0 4.375.02 6.058 1.74 7.077 4.572.489 1.36.53 3.278.128 4.55-1.042 3.197-1.289 3.937-2.344 7.127-.691 2.053-2.553 3.427-4.808 3.609 0 0 3.033-9.152 3.979-12.141.571-1.866-.522-4.413-3.4-4.413-2.013-.023-3.272-.01-5.28 0-1.164.015-2.185.726-2.544 1.806l-10.398 32.049ZM242.512 176.919h7.925l-4.477 13.61-3.631-.024 3.37-10.273h-4.291l1.104-3.313Z"/><path d="M260.155 159.586h3.602l-10.824 33.455c-.725 2.183-2.793 3.672-5.229 3.704-2.019.011-3.115.009-5.137 0-4.375-.019-6.058-1.739-7.076-4.571-.49-1.361-.531-3.279-.129-4.551 1.043-3.196 1.289-3.936 2.344-7.126.691-2.054 2.553-3.427 4.807-3.61 0 0-3.032 9.152-3.977 12.142-.572 1.866.521 4.412 3.399 4.412 2.014.024 3.272.011 5.281 0 1.163-.015 2.184-.725 2.543-1.806l10.396-32.049ZM354.824 73.225h-7.925l4.477-13.61 3.632.024-3.371 10.274h4.291l-1.104 3.313Z"/><path d="M337.18 90.559h-3.602l10.825-33.455c.726-2.182 2.794-3.672 5.23-3.704 2.019-.011 3.115-.009 5.137 0 4.375.02 6.058 1.739 7.077 4.571.489 1.36.53 3.279.128 4.55-1.043 3.197-1.289 3.937-2.345 7.127-.69 2.054-2.553 3.427-4.807 3.61 0 0 3.033-9.152 3.978-12.142.572-1.866-.521-4.412-3.399-4.412-2.013-.024-3.272-.011-5.281 0-1.163.015-2.184.725-2.543 1.806L337.18 90.559ZM351.214 80.975h7.924l-4.476 13.61-3.632-.024 3.371-10.273h-4.291l1.104-3.313Z"/><path d="M368.857 63.642h3.602l-10.824 33.455c-.725 2.182-2.793 3.672-5.229 3.704-2.019.011-3.115.009-5.137 0-4.375-.019-6.058-1.74-7.076-4.572-.49-1.36-.531-3.278-.129-4.55 1.043-3.196 1.289-3.937 2.344-7.127.691-2.053 2.553-3.426 4.807-3.61 0 0-3.032 9.153-3.977 12.143-.572 1.866.521 4.412 3.399 4.412 2.013.024 3.272.01 5.28 0 1.164-.015 2.185-.725 2.544-1.806l10.396-32.05ZM194.776 74.56h-7.925l4.477-13.61 3.632.023-3.371 10.273h4.291l-1.104 3.313Z"/><path d="M177.132 91.892h-3.603l10.826-33.454c.725-2.183 2.793-3.672 5.23-3.705 2.019-.01 3.115-.008 5.137 0 4.374.02 6.057 1.74 7.076 4.572.489 1.36.53 3.278.128 4.55-1.042 3.197-1.289 3.937-2.344 7.127-.691 2.053-2.553 3.426-4.807 3.61 0 0 3.032-9.153 3.978-12.142.571-1.867-.521-4.413-3.4-4.413-2.013-.023-3.272-.01-5.28 0-1.163.015-2.185.726-2.544 1.806l-10.397 32.05ZM191.165 82.309h7.925l-4.476 13.61-3.632-.024 3.37-10.274h-4.29l1.103-3.312Z"/><path d="M208.809 64.975h3.602L201.587 98.43c-.725 2.183-2.794 3.672-5.23 3.705-2.019.01-3.115.008-5.137 0-4.374-.02-6.057-1.74-7.076-4.572-.489-1.36-.53-3.278-.128-4.55 1.042-3.197 1.289-3.937 2.344-7.127.69-2.053 2.553-3.427 4.807-3.61 0 0-3.033 9.153-3.978 12.142-.571 1.866.521 4.413 3.4 4.413 2.013.023 3.271.01 5.28 0 1.163-.015 2.185-.726 2.544-1.806l10.396-32.05ZM114.678 191.173h-7.925l4.477-13.609 3.632.023-3.371 10.274h4.291l-1.104 3.312Z"/><path d="M97.033 208.507h-3.602l10.826-33.455c.725-2.183 2.793-3.672 5.23-3.704 2.019-.011 3.115-.009 5.137 0 4.374.019 6.057 1.739 7.076 4.571.489 1.361.53 3.278.128 4.55-1.042 3.197-1.289 3.937-2.344 7.127-.691 2.053-2.553 3.427-4.807 3.61 0 0 3.032-9.152 3.978-12.142.571-1.866-.521-4.413-3.4-4.413-2.013-.023-3.272-.01-5.28 0-1.163.016-2.185.726-2.544 1.806l-10.398 32.05ZM111.067 198.924h7.925l-4.476 13.609-3.632-.023 3.37-10.274h-4.29l1.103-3.312Z"/><path d="M128.711 181.59h3.602l-10.824 33.455c-.725 2.183-2.794 3.672-5.23 3.704-2.019.011-3.115.009-5.137 0-4.374-.019-6.057-1.739-7.076-4.571-.489-1.361-.53-3.278-.128-4.55 1.042-3.197 1.289-3.937 2.344-7.127.69-2.053 2.553-3.427 4.807-3.61 0 0-3.033 9.152-3.978 12.142-.571 1.866.521 4.413 3.4 4.413 2.013.023 3.271.01 5.28 0 1.163-.015 2.184-.726 2.544-1.806l10.396-32.05ZM48.152 297.983h3.6l-10.796 33.455c-.723 2.182-2.79 3.672-5.224 3.704-2.018.011-3.113.009-5.134 0-4.371-.019-6.055-1.739-7.074-4.572-.49-1.36-.533-3.278-.132-4.55 1.04-3.196 1.286-3.937 2.338-7.126.69-2.054 2.55-3.427 4.802-3.61 0 0-3.024 9.152-3.967 12.142-.57 1.866.523 4.412 3.4 4.412 2.012.024 3.27.011 5.277 0 1.162-.015 2.183-.725 2.541-1.806l10.37-32.049ZM223.453 96.118h-7.925l4.477-13.61 3.632.024-3.371 10.273h4.291l-1.104 3.313Z"/><path d="M205.809 113.451h-3.602l10.825-33.454c.726-2.183 2.794-3.672 5.23-3.705 2.019-.01 3.115-.008 5.137 0 4.375.02 6.058 1.74 7.076 4.572.49 1.36.531 3.278.129 4.55-1.043 3.197-1.289 3.937-2.345 7.127-.69 2.053-2.553 3.426-4.807 3.61 0 0 3.033-9.153 3.978-12.142.572-1.867-.521-4.413-3.399-4.413-2.014-.023-3.272-.01-5.281 0-1.163.015-2.184.726-2.544 1.806l-10.397 32.049ZM219.843 103.868h7.924l-4.476 13.61-3.631-.024 3.37-10.273h-4.291l1.104-3.313Z"/><path d="M237.486 86.535h3.602l-10.824 33.455c-.725 2.182-2.793 3.672-5.229 3.704-2.019.011-3.115.009-5.137 0-4.375-.019-6.058-1.739-7.076-4.571-.49-1.361-.531-3.279-.129-4.551 1.043-3.196 1.289-3.936 2.344-7.126.691-2.054 2.553-3.427 4.807-3.61 0 0-3.032 9.152-3.977 12.142-.572 1.866.521 4.412 3.399 4.412 2.014.024 3.272.011 5.281 0 1.163-.015 2.184-.725 2.543-1.806l10.396-32.049ZM143.355 212.733h-7.925l4.477-13.61 3.632.024-3.371 10.273h4.291l-1.104 3.313Z"/><path d="M125.711 230.066h-3.602l10.825-33.454c.726-2.183 2.794-3.672 5.23-3.705 2.019-.011 3.115-.008 5.137 0 4.375.02 6.058 1.739 7.076 4.572.49 1.36.531 3.278.129 4.55-1.043 3.196-1.289 3.937-2.345 7.127-.69 2.053-2.553 3.426-4.807 3.609 0 0 3.033-9.152 3.978-12.141.572-1.867-.521-4.413-3.399-4.413-2.014-.024-3.272-.011-5.281 0-1.163.015-2.184.726-2.544 1.806l-10.397 32.049ZM139.745 220.483h7.925l-4.477 13.61-3.631-.024 3.37-10.273h-4.291l1.104-3.313Z"/><path d="M157.388 203.15h3.602l-10.824 33.455c-.725 2.182-2.793 3.672-5.229 3.704-2.019.011-3.115.009-5.137 0-4.375-.019-6.058-1.739-7.076-4.572-.49-1.36-.531-3.278-.129-4.55 1.043-3.196 1.289-3.937 2.344-7.126.691-2.054 2.553-3.427 4.807-3.61 0 0-3.032 9.152-3.977 12.142-.572 1.866.521 4.412 3.399 4.412 2.013.024 3.272.011 5.28 0 1.164-.015 2.185-.725 2.544-1.806l10.396-32.049ZM62.925 328.459h-7.924l4.477-13.61 3.631.024-3.37 10.273h4.29l-1.104 3.313Z"/><path d="M45.281 345.792H41.68l10.825-33.455c.726-2.182 2.794-3.672 5.23-3.704 2.02-.011 3.115-.009 5.137 0 4.375.019 6.058 1.739 7.077 4.572.489 1.36.53 3.278.128 4.55-1.043 3.196-1.29 3.937-2.344 7.127-.691 2.053-2.554 3.426-4.808 3.609 0 0 3.033-9.152 3.978-12.142.572-1.866-.52-4.412-3.4-4.412-2.012-.024-3.271-.011-5.28 0-1.163.015-2.184.725-2.543 1.806L45.28 345.792ZM59.315 336.209h7.925l-4.477 13.61-3.631-.024 3.37-10.273h-4.29l1.103-3.313Z"/><path d="M76.958 318.876h3.602l-10.823 33.455c-.726 2.182-2.794 3.672-5.23 3.704-2.019.011-3.115.009-5.137 0-4.374-.019-6.057-1.739-7.076-4.572-.49-1.36-.53-3.278-.128-4.55 1.042-3.196 1.289-3.937 2.344-7.126.69-2.054 2.552-3.427 4.806-3.61 0 0-3.032 9.152-3.977 12.142-.571 1.866.521 4.412 3.4 4.412 2.013.024 3.271.011 5.28 0 1.163-.015 2.184-.725 2.543-1.806l10.396-32.049ZM252.241 116.937h-7.924l4.476-13.61 3.632.024-3.371 10.273h4.291l-1.104 3.313Z"/><path d="M234.597 134.27h-3.602l10.826-33.455c.725-2.182 2.793-3.672 5.229-3.704 2.019-.01 3.116-.008 5.137 0 4.375.02 6.058 1.74 7.077 4.572.489 1.36.53 3.278.128 4.55-1.043 3.196-1.289 3.937-2.344 7.127-.691 2.053-2.554 3.426-4.808 3.609 0 0 3.033-9.152 3.978-12.142.572-1.866-.521-4.412-3.399-4.412-2.013-.024-3.272-.011-5.281 0-1.163.015-2.184.725-2.543 1.806l-10.398 32.049ZM248.631 124.687h7.925l-4.477 13.61-3.631-.024 3.37-10.273h-4.291l1.104-3.313Z"/><path d="M266.274 107.354h3.602l-10.824 33.455c-.725 2.182-2.793 3.672-5.229 3.704-2.019.011-3.115.009-5.137 0-4.375-.019-6.058-1.739-7.076-4.572-.49-1.36-.531-3.278-.129-4.55 1.043-3.196 1.289-3.937 2.344-7.126.691-2.054 2.553-3.427 4.807-3.61 0 0-3.032 9.152-3.977 12.142-.572 1.866.521 4.412 3.399 4.412 2.014.024 3.272.011 5.281 0 1.163-.015 2.184-.725 2.543-1.806l10.396-32.049ZM343.298 38.327h-3.6l10.799-33.455c.723-2.183 2.789-3.672 5.224-3.705a453.59 453.59 0 0 1 5.134 0c4.372.02 6.055 1.74 7.075 4.572.49 1.36.532 3.278.131 4.55-1.04 3.197-1.286 3.937-2.339 7.127-.689 2.053-2.549 3.427-4.802 3.61 0 0 3.025-9.152 3.968-12.142.57-1.866-.523-4.413-3.4-4.413-2.012-.023-3.27-.01-5.277 0-1.163.015-2.183.726-2.541 1.806l-10.372 32.05ZM357.314 28.744h7.925l-4.476 13.61-3.632-.024 3.37-10.274h-4.29l1.103-3.312Z"/><path d="M374.957 11.41h3.603l-10.824 33.455c-.726 2.183-2.794 3.672-5.23 3.704-2.019.011-3.115.009-5.137 0-4.374-.019-6.057-1.739-7.076-4.571-.489-1.36-.531-3.278-.128-4.55 1.042-3.197 1.289-3.937 2.344-7.127.69-2.053 2.553-3.427 4.806-3.61 0 0-3.032 9.152-3.977 12.142-.571 1.866.521 4.413 3.4 4.413 2.013.023 3.271.01 5.28 0 1.163-.016 2.184-.726 2.544-1.806l10.395-32.05ZM172.125 233.552H164.2l4.477-13.61 3.632.024-3.371 10.273h4.291l-1.104 3.313Z"/><path d="M154.481 250.885h-3.602l10.825-33.455c.725-2.182 2.794-3.672 5.23-3.704 2.019-.011 3.115-.009 5.137 0 4.375.019 6.058 1.739 7.076 4.572.49 1.36.531 3.278.129 4.55-1.043 3.196-1.29 3.937-2.345 7.127-.691 2.053-2.553 3.426-4.807 3.609 0 0 3.033-9.152 3.978-12.142.572-1.866-.521-4.412-3.399-4.412-2.014-.024-3.272-.011-5.281 0-1.163.015-2.184.725-2.544 1.806l-10.397 32.049ZM168.515 241.302h7.924l-4.476 13.61-3.632-.024 3.371-10.273h-4.291l1.104-3.313Z"/><path d="M186.158 223.969h3.602l-10.824 33.455c-.725 2.182-2.793 3.672-5.229 3.704-2.019.011-3.115.009-5.137 0-4.375-.019-6.058-1.739-7.076-4.572-.49-1.36-.531-3.278-.129-4.55 1.042-3.196 1.289-3.937 2.344-7.127.691-2.053 2.553-3.426 4.807-3.609 0 0-3.032 9.152-3.977 12.142-.572 1.866.521 4.412 3.399 4.412 2.013.024 3.272.011 5.28 0 1.164-.015 2.185-.725 2.544-1.806l10.396-32.049ZM282.541 137.089h-7.925l4.477-13.61 3.632.024-3.371 10.273h4.291l-1.104 3.313Z"/><path d="M264.897 154.422h-3.603l10.826-33.455c.725-2.182 2.794-3.672 5.23-3.704 2.019-.011 3.115-.008 5.137 0 4.374.02 6.057 1.739 7.076 4.572.489 1.36.53 3.278.128 4.55-1.042 3.196-1.289 3.937-2.344 7.127-.691 2.053-2.553 3.426-4.807 3.609 0 0 3.032-9.152 3.978-12.142.571-1.866-.521-4.412-3.4-4.412-2.013-.024-3.272-.011-5.28 0-1.163.015-2.185.725-2.544 1.806l-10.397 32.049ZM278.931 144.839h7.924l-4.476 13.61-3.632-.024 3.371-10.273h-4.291l1.104-3.313Z"/><path d="M296.574 127.506h3.602l-10.824 33.455c-.725 2.182-2.794 3.672-5.23 3.704-2.019.011-3.115.009-5.137 0-4.374-.019-6.057-1.739-7.076-4.572-.489-1.36-.53-3.278-.128-4.55 1.042-3.196 1.289-3.937 2.344-7.126.69-2.054 2.553-3.427 4.807-3.61 0 0-3.033 9.152-3.978 12.142-.571 1.866.521 4.412 3.4 4.412 2.013.024 3.271.011 5.28 0 1.163-.015 2.185-.725 2.544-1.806l10.396-32.049ZM391.242 41.145h-7.924l4.477-13.61 3.631.024-3.37 10.273h4.29l-1.104 3.313Z"/><path d="M373.598 58.478h-3.602l10.826-33.455c.725-2.182 2.793-3.672 5.23-3.704 2.019-.01 3.115-.009 5.137 0 4.374.02 6.057 1.739 7.076 4.572.489 1.36.53 3.278.128 4.55-1.042 3.196-1.289 3.936-2.344 7.126-.691 2.054-2.553 3.427-4.807 3.61 0 0 3.032-9.152 3.978-12.142.571-1.866-.521-4.412-3.4-4.412-2.013-.024-3.272-.011-5.28 0-1.164.015-2.185.725-2.544 1.806l-10.398 32.049ZM387.632 48.895h7.925l-4.477 13.61-3.631-.024 3.37-10.273h-4.291l1.104-3.313Z"/><path d="M405.275 31.562h3.602l-10.824 33.454c-.725 2.183-2.793 3.672-5.229 3.705-2.019.01-3.115.008-5.137 0-4.374-.02-6.057-1.74-7.076-4.572-.489-1.36-.531-3.278-.129-4.55 1.043-3.196 1.289-3.937 2.344-7.127.691-2.053 2.553-3.426 4.807-3.61 0 0-3.032 9.153-3.977 12.142-.571 1.867.521 4.413 3.399 4.413 2.014.023 3.272.01 5.281 0 1.163-.015 2.184-.726 2.543-1.806l10.396-32.05ZM122.234 138.126h-7.925l4.477-13.609 3.632.023-3.371 10.274h4.291l-1.104 3.312Z"/><path d="M104.59 155.459h-3.602l10.825-33.454c.725-2.183 2.794-3.672 5.23-3.705 2.019-.01 3.115-.008 5.137 0 4.375.02 6.058 1.74 7.076 4.572.49 1.36.531 3.278.129 4.55-1.043 3.197-1.29 3.937-2.345 7.127-.691 2.053-2.553 3.427-4.807 3.609 0 0 3.033-9.152 3.978-12.141.572-1.866-.521-4.413-3.399-4.413-2.014-.023-3.272-.01-5.281 0-1.163.015-2.184.726-2.544 1.806l-10.397 32.049ZM118.624 145.876h7.924l-4.476 13.61-3.632-.024 3.371-10.273h-4.291l1.104-3.313Z"/><path d="M136.267 128.543h3.602l-10.824 33.455c-.725 2.183-2.793 3.672-5.229 3.704-2.019.011-3.115.009-5.137 0-4.375-.019-6.058-1.739-7.076-4.571-.49-1.361-.531-3.279-.129-4.551 1.042-3.196 1.289-3.936 2.344-7.126.691-2.054 2.553-3.427 4.807-3.61 0 0-3.032 9.152-3.978 12.142-.571 1.866.522 4.412 3.4 4.412 2.013.024 3.272.011 5.28 0 1.164-.015 2.185-.725 2.544-1.806l10.396-32.049ZM24.51 272.074h-3.6l10.798-33.454c.723-2.183 2.79-3.672 5.224-3.705 2.018-.01 3.114-.008 5.134 0 4.372.02 6.055 1.739 7.075 4.572.49 1.36.532 3.278.131 4.55-1.04 3.197-1.286 3.937-2.338 7.127-.69 2.053-2.55 3.426-4.803 3.609 0 0 3.026-9.152 3.969-12.141.57-1.866-.524-4.413-3.4-4.413-2.013-.023-3.27-.011-5.278 0-1.162.015-2.183.726-2.541 1.806l-10.372 32.049ZM56.133 245.158h3.6l-10.797 33.455c-.723 2.182-2.79 3.672-5.224 3.704-2.018.011-3.113.009-5.134 0-4.372-.019-6.055-1.739-7.075-4.572-.49-1.36-.532-3.278-.13-4.55 1.039-3.196 1.285-3.936 2.337-7.126.69-2.054 2.55-3.427 4.802-3.61 0 0-3.025 9.152-3.968 12.142-.57 1.866.524 4.412 3.4 4.412 2.013.024 3.27.011 5.278 0 1.162-.015 2.183-.725 2.541-1.806l10.37-32.049ZM147.32 167.436h7.924l-4.476 13.61-3.632-.024 3.371-10.273h-4.291l1.104-3.313Z"/><path d="M164.963 150.103h3.602l-10.824 33.455c-.725 2.182-2.793 3.672-5.229 3.704-2.019.011-3.116.009-5.137 0-4.375-.019-6.058-1.739-7.076-4.572-.49-1.36-.531-3.278-.129-4.55 1.042-3.196 1.289-3.937 2.344-7.127.691-2.053 2.553-3.426 4.807-3.609 0 0-3.032 9.152-3.978 12.142-.571 1.866.522 4.412 3.4 4.412 2.013.024 3.272.011 5.28 0 1.164-.015 2.185-.725 2.544-1.806l10.396-32.049ZM259.613 63.668h-7.924l4.476-13.61 3.632.024-3.371 10.274h4.291l-1.104 3.312Z"/><path d="M241.969 81.001h-3.602l10.826-33.454c.725-2.183 2.793-3.672 5.229-3.705 2.02-.01 3.116-.008 5.137 0 4.375.02 6.058 1.74 7.077 4.572.489 1.36.53 3.278.128 4.55-1.042 3.197-1.289 3.937-2.344 7.127-.691 2.053-2.553 3.426-4.808 3.61 0 0 3.033-9.153 3.979-12.142.571-1.866-.522-4.413-3.4-4.413-2.013-.023-3.272-.01-5.28 0-1.164.015-2.185.726-2.544 1.806l-10.398 32.05ZM256.003 71.418h7.925l-4.477 13.61-3.631-.024 3.37-10.274h-4.291l1.104-3.312Z"/><path d="M273.646 54.084h3.602L266.424 87.54c-.725 2.183-2.793 3.672-5.229 3.705-2.019.01-3.115.008-5.137 0-4.374-.02-6.058-1.74-7.076-4.572-.489-1.36-.531-3.278-.129-4.55 1.043-3.197 1.289-3.937 2.344-7.127.691-2.053 2.553-3.427 4.807-3.61 0 0-3.032 9.153-3.977 12.142-.572 1.866.521 4.413 3.399 4.413 2.014.023 3.272.01 5.281 0 1.163-.015 2.184-.726 2.543-1.806l10.396-32.05ZM70.814 276.301h-7.925l4.477-13.61 3.632.024-3.371 10.273h4.29l-1.103 3.313Z"/><path d="M53.17 293.634h-3.603l10.826-33.455c.725-2.182 2.793-3.672 5.23-3.704 2.019-.011 3.115-.009 5.136 0 4.375.019 6.058 1.739 7.077 4.572.49 1.36.53 3.278.128 4.55-1.042 3.196-1.29 3.937-2.344 7.126-.691 2.054-2.553 3.427-4.808 3.61 0 0 3.033-9.152 3.979-12.142.571-1.866-.522-4.412-3.4-4.412-2.013-.024-3.272-.011-5.28 0-1.164.015-2.185.725-2.544 1.806l-10.398 32.049ZM67.203 284.051h7.925l-4.477 13.61-3.631-.024 3.37-10.273H66.1l1.103-3.313Z"/><path d="M84.847 266.718h3.602l-10.824 33.455c-.725 2.182-2.794 3.672-5.23 3.704-2.019.011-3.115.008-5.137 0-4.374-.02-6.057-1.739-7.076-4.572-.49-1.36-.53-3.278-.128-4.55 1.042-3.196 1.289-3.937 2.344-7.127.69-2.053 2.553-3.426 4.806-3.609 0 0-3.032 9.152-3.977 12.141-.571 1.867.521 4.413 3.4 4.413 2.013.024 3.271.011 5.28 0 1.163-.015 2.184-.725 2.544-1.806l10.396-32.049ZM179.7 180.505h-7.925l4.477-13.61 3.632.024-3.371 10.273h4.291l-1.104 3.313Z"/><path d="M162.056 197.838h-3.603l10.826-33.455c.725-2.182 2.793-3.672 5.23-3.704 2.019-.011 3.115-.009 5.137 0 4.374.019 6.057 1.739 7.076 4.572.489 1.36.53 3.278.128 4.55-1.042 3.196-1.289 3.936-2.344 7.126-.691 2.054-2.553 3.427-4.807 3.61 0 0 3.032-9.152 3.978-12.142.571-1.866-.521-4.412-3.4-4.412-2.013-.024-3.272-.011-5.28 0-1.163.015-2.185.725-2.544 1.806l-10.397 32.049ZM176.089 188.255h7.925l-4.476 13.61-3.632-.024 3.37-10.274h-4.29l1.103-3.312Z"/><path d="M193.733 170.922h3.602l-10.824 33.454c-.725 2.183-2.794 3.672-5.23 3.705-2.019.01-3.115.008-5.137 0-4.374-.02-6.057-1.739-7.076-4.572-.489-1.36-.53-3.278-.128-4.55 1.042-3.196 1.289-3.937 2.344-7.127.69-2.053 2.553-3.426 4.807-3.609 0 0-3.033 9.152-3.978 12.141-.571 1.867.521 4.413 3.4 4.413 2.013.023 3.271.011 5.28 0 1.163-.015 2.185-.726 2.544-1.806l10.396-32.049ZM288.383 84.56h-7.925l4.477-13.61 3.632.024-3.371 10.274h4.291l-1.104 3.312Z"/><path d="M270.739 101.894h-3.602l10.825-33.455c.725-2.183 2.794-3.672 5.23-3.704 2.019-.011 3.115-.01 5.137 0 4.375.019 6.058 1.739 7.076 4.571.49 1.36.531 3.278.129 4.55-1.043 3.197-1.29 3.937-2.345 7.127-.691 2.053-2.553 3.427-4.807 3.61 0 0 3.033-9.152 3.978-12.142.572-1.866-.521-4.412-3.399-4.412-2.014-.024-3.272-.011-5.281 0-1.163.014-2.184.725-2.544 1.805l-10.397 32.05ZM284.773 92.31h7.925l-4.477 13.61-3.631-.023 3.37-10.274h-4.291l1.104-3.312Z"/><path d="M302.416 74.977h3.602l-10.824 33.455c-.725 2.183-2.793 3.672-5.229 3.704-2.019.011-3.115.009-5.137 0-4.375-.019-6.058-1.739-7.076-4.571-.49-1.361-.531-3.278-.129-4.55 1.043-3.197 1.289-3.937 2.344-7.127.691-2.053 2.553-3.427 4.807-3.61 0 0-3.032 9.152-3.977 12.142-.572 1.866.521 4.413 3.399 4.413 2.013.023 3.272.01 5.28 0 1.164-.016 2.185-.726 2.544-1.806l10.396-32.05ZM99.583 297.12H91.66l4.476-13.61 3.632.024-3.37 10.273h4.29l-1.104 3.313Z"/><path d="M81.939 314.453h-3.602l10.825-33.455c.726-2.183 2.794-3.672 5.23-3.704a439.8 439.8 0 0 1 5.137 0c4.375.019 6.058 1.739 7.076 4.571.49 1.361.531 3.279.129 4.551-1.043 3.196-1.289 3.936-2.345 7.126-.69 2.054-2.553 3.427-4.807 3.61 0 0 3.033-9.152 3.978-12.142.572-1.866-.521-4.412-3.399-4.412-2.014-.024-3.272-.011-5.28 0-1.164.015-2.185.725-2.545 1.806L81.94 314.453ZM95.973 304.87h7.924l-4.476 13.609-3.632-.023 3.37-10.274h-4.29l1.104-3.312Z"/><path d="M113.616 287.537h3.602l-10.824 33.454c-.725 2.183-2.793 3.672-5.229 3.705-2.02.01-3.115.008-5.137 0-4.375-.02-6.058-1.739-7.076-4.572-.49-1.36-.53-3.278-.129-4.55 1.043-3.197 1.29-3.937 2.344-7.127.691-2.053 2.553-3.426 4.807-3.609 0 0-3.032 9.152-3.977 12.141-.572 1.866.521 4.413 3.4 4.413 2.012.023 3.271.011 5.28 0 1.163-.015 2.184-.726 2.543-1.806l10.396-32.049ZM209.999 200.657h-7.925l4.477-13.61 3.632.024-3.371 10.273h4.291l-1.104 3.313Z"/><path d="M192.355 217.99h-3.602l10.825-33.455c.726-2.182 2.794-3.672 5.23-3.704 2.019-.011 3.115-.009 5.137 0 4.375.019 6.058 1.739 7.076 4.572.49 1.36.531 3.278.129 4.55-1.043 3.196-1.289 3.936-2.345 7.126-.69 2.054-2.553 3.427-4.807 3.61 0 0 3.033-9.152 3.978-12.142.572-1.866-.521-4.412-3.399-4.412-2.014-.024-3.272-.011-5.281 0-1.163.015-2.184.725-2.544 1.806l-10.397 32.049ZM206.389 208.407h7.924l-4.476 13.61-3.632-.024 3.371-10.273h-4.291l1.104-3.313Z"/><path d="M224.032 191.074h3.602l-10.824 33.454c-.725 2.183-2.793 3.672-5.229 3.705-2.019.01-3.116.008-5.137 0-4.375-.02-6.058-1.739-7.077-4.572-.489-1.36-.53-3.278-.128-4.55 1.042-3.196 1.289-3.937 2.344-7.127.691-2.053 2.553-3.426 4.807-3.609 0 0-3.032 9.152-3.978 12.141-.571 1.867.522 4.413 3.4 4.413 2.013.024 3.272.011 5.28 0 1.163-.015 2.185-.726 2.544-1.806l10.396-32.049ZM318.701 104.712h-7.925l4.477-13.61 3.632.024-3.371 10.274h4.291l-1.104 3.312Z"/><path d="M301.057 122.046h-3.602l10.825-33.455c.725-2.183 2.794-3.672 5.23-3.704 2.019-.011 3.115-.01 5.137 0 4.375.019 6.058 1.739 7.076 4.571.489 1.36.531 3.278.128 4.55-1.042 3.197-1.289 3.937-2.344 7.127-.691 2.053-2.553 3.427-4.807 3.61 0 0 3.033-9.152 3.978-12.142.571-1.866-.521-4.412-3.399-4.412-2.014-.024-3.272-.011-5.281 0-1.163.014-2.185.725-2.544 1.805l-10.397 32.05ZM315.091 112.463h7.924l-4.476 13.609-3.632-.023 3.371-10.274h-4.291l1.104-3.312Z"/><path d="M332.734 95.13h3.602l-10.824 33.454c-.725 2.183-2.793 3.672-5.23 3.704-2.019.011-3.115.009-5.136 0-4.375-.019-6.058-1.739-7.077-4.571-.489-1.361-.53-3.278-.128-4.55 1.042-3.197 1.289-3.937 2.344-7.127.691-2.053 2.553-3.427 4.807-3.61 0 0-3.032 9.152-3.978 12.142-.571 1.866.522 4.413 3.4 4.413 2.013.023 3.272.01 5.28 0 1.163-.016 2.185-.726 2.544-1.806l10.396-32.05ZM441.417 0h3.6l-10.796 33.455c-.723 2.182-2.789 3.672-5.224 3.704-2.017.01-3.113.009-5.133 0-4.372-.02-6.055-1.739-7.075-4.572-.49-1.36-.532-3.278-.131-4.55 1.039-3.196 1.285-3.936 2.338-7.126.689-2.054 2.549-3.427 4.801-3.61 0 0-3.024 9.152-3.967 12.142-.57 1.866.524 4.412 3.4 4.412 2.012.024 3.27.011 5.277 0 1.163-.015 2.183-.725 2.541-1.806L441.417 0ZM8.774 377.244h-3.6l10.798-33.455c.724-2.182 2.79-3.672 5.225-3.704 2.017-.011 3.113-.009 5.133 0 4.373.019 6.056 1.739 7.075 4.572.49 1.36.532 3.278.131 4.55-1.04 3.196-1.286 3.936-2.338 7.126-.69 2.054-2.55 3.427-4.802 3.61 0 0 3.025-9.152 3.968-12.142.57-1.866-.524-4.412-3.4-4.412-2.012-.024-3.27-.011-5.278 0-1.162.015-2.183.725-2.54 1.806L8.773 377.244ZM40.397 350.327h3.6L33.2 383.782c-.723 2.183-2.79 3.672-5.224 3.705-2.018.01-3.113.008-5.134 0-4.372-.02-6.055-1.739-7.074-4.572-.49-1.36-.533-3.278-.132-4.55 1.04-3.197 1.286-3.937 2.339-7.127.689-2.053 2.549-3.427 4.801-3.609 0 0-3.024 9.152-3.967 12.141-.57 1.866.523 4.413 3.4 4.413 2.012.023 3.27.011 5.277 0 1.163-.015 2.183-.726 2.541-1.806l10.37-32.05ZM55.483 378.433H47.56l4.476-13.61 3.632.024-3.37 10.273h4.29l-1.104 3.313Z"/><path d="M37.84 395.766h-3.603l10.825-33.455c.726-2.182 2.794-3.672 5.23-3.704 2.02-.011 3.115-.009 5.137 0 4.375.019 6.058 1.739 7.076 4.572.49 1.36.531 3.278.129 4.55-1.043 3.196-1.29 3.936-2.345 7.126-.69 2.054-2.553 3.427-4.807 3.61 0 0 3.033-9.152 3.978-12.142.572-1.866-.52-4.412-3.4-4.412-2.013-.024-3.271-.011-5.28 0-1.163.015-2.184.725-2.544 1.806L37.84 395.766ZM51.873 386.183h7.925l-4.477 13.61-3.631-.024 3.37-10.273h-4.29l1.103-3.313Z"/><path d="M69.516 368.85h3.602l-10.824 33.454c-.725 2.183-2.793 3.672-5.23 3.705-2.018.011-3.114.008-5.136 0-4.374-.02-6.057-1.739-7.076-4.572-.49-1.36-.53-3.278-.129-4.55 1.043-3.196 1.29-3.937 2.344-7.127.691-2.053 2.553-3.426 4.807-3.609 0 0-3.032 9.152-3.977 12.141-.572 1.867.521 4.413 3.4 4.413 2.013.024 3.271.011 5.28 0 1.163-.015 2.184-.726 2.543-1.806l10.396-32.049ZM84.18 399.992h-7.926l4.477-13.609 3.632.023-3.37 10.274h4.29l-1.104 3.312Z"/><path d="M66.535 417.326h-3.602l10.825-33.455c.726-2.183 2.794-3.672 5.23-3.704a439.8 439.8 0 0 1 5.137 0c4.375.019 6.058 1.739 7.076 4.571.49 1.361.53 3.278.129 4.55-1.043 3.197-1.29 3.937-2.345 7.127-.69 2.053-2.553 3.427-4.807 3.61 0 0 3.033-9.152 3.978-12.142.572-1.866-.52-4.413-3.4-4.413-2.013-.023-3.271-.01-5.28 0-1.163.016-2.184.726-2.544 1.806l-10.397 32.05ZM80.569 407.743h7.924l-4.476 13.609-3.632-.023 3.37-10.274h-4.29l1.104-3.312Z"/><path d="M98.212 390.409h3.602L90.99 423.864c-.725 2.183-2.793 3.672-5.23 3.704-2.018.011-3.114.009-5.136 0-4.375-.019-6.058-1.739-7.076-4.571-.49-1.361-.53-3.278-.129-4.55 1.043-3.197 1.29-3.937 2.344-7.127.691-2.053 2.553-3.427 4.807-3.61 0 0-3.032 9.152-3.977 12.142-.572 1.866.521 4.413 3.4 4.413 2.013.023 3.271.01 5.28 0 1.163-.016 2.184-.726 2.543-1.806l10.396-32.05ZM112.949 420.811h-7.925l4.477-13.61 3.632.024-3.371 10.274h4.291l-1.104 3.312Z"/><path d="M95.305 438.144h-3.603l10.826-33.454c.725-2.183 2.794-3.672 5.23-3.705 2.019-.01 3.115-.008 5.137 0 4.375.02 6.058 1.74 7.076 4.572.489 1.36.531 3.278.128 4.55-1.042 3.197-1.289 3.937-2.344 7.127-.691 2.053-2.553 3.426-4.807 3.609 0 0 3.032-9.152 3.978-12.141.571-1.866-.521-4.413-3.4-4.413-2.013-.023-3.271-.01-5.28 0-1.163.015-2.185.726-2.544 1.806l-10.397 32.049ZM109.339 428.561h7.924l-4.476 13.61-3.632-.024 3.371-10.273h-4.291l1.104-3.313Z"/><path d="M126.982 411.228h3.602l-10.824 33.455c-.725 2.183-2.793 3.672-5.229 3.704-2.019.011-3.116.009-5.137 0-4.375-.019-6.058-1.739-7.077-4.571-.489-1.361-.53-3.279-.128-4.551 1.042-3.196 1.289-3.936 2.344-7.126.691-2.054 2.553-3.427 4.807-3.61 0 0-3.032 9.152-3.978 12.142-.571 1.866.522 4.412 3.4 4.412 2.013.024 3.272.011 5.28 0 1.163-.015 2.185-.725 2.544-1.806l10.396-32.049ZM74.275 363.686h-3.6l10.798-33.455c.724-2.183 2.79-3.672 5.225-3.704 2.018-.011 3.113-.009 5.134 0 4.372.019 6.055 1.739 7.075 4.571.49 1.361.532 3.278.13 4.551-1.04 3.196-1.285 3.936-2.338 7.126-.69 2.054-2.55 3.427-4.802 3.61 0 0 3.025-9.152 3.968-12.142.57-1.866-.523-4.412-3.4-4.412-2.012-.024-3.27-.011-5.277 0-1.163.015-2.183.725-2.542 1.805l-10.371 32.05ZM88.291 354.103h7.925l-4.476 13.609-3.632-.023 3.37-10.274h-4.29l1.103-3.312Z"/><path d="M105.935 336.769h3.602l-10.824 33.455c-.725 2.183-2.794 3.672-5.23 3.705-2.019.01-3.115.008-5.137 0-4.374-.02-6.057-1.74-7.076-4.572-.49-1.36-.53-3.278-.128-4.55 1.042-3.197 1.289-3.937 2.344-7.127.69-2.053 2.553-3.427 4.806-3.61 0 0-3.032 9.153-3.977 12.142-.571 1.866.521 4.413 3.4 4.413 2.013.023 3.271.01 5.28 0 1.163-.015 2.184-.726 2.544-1.806l10.396-32.05ZM120.597 367.838h-7.924l4.477-13.61 3.631.024-3.37 10.274h4.29l-1.104 3.312Z"/><path d="M102.953 385.171h-3.602l10.826-33.454c.725-2.183 2.793-3.672 5.229-3.705 2.019-.011 3.116-.008 5.137 0 4.375.02 6.058 1.739 7.077 4.572.489 1.36.53 3.278.128 4.55-1.043 3.196-1.289 3.937-2.344 7.127-.691 2.053-2.554 3.426-4.808 3.609 0 0 3.033-9.152 3.979-12.141.571-1.867-.522-4.413-3.4-4.413-2.013-.024-3.272-.011-5.28 0-1.164.015-2.185.726-2.544 1.806l-10.398 32.049ZM116.987 375.588h7.925l-4.477 13.61-3.631-.024 3.37-10.273h-4.291l1.104-3.313Z"/><path d="M134.63 358.255h3.602l-10.824 33.455c-.725 2.182-2.793 3.672-5.229 3.704-2.019.011-3.115.009-5.137 0-4.374-.019-6.058-1.739-7.076-4.571-.489-1.361-.531-3.279-.129-4.551 1.043-3.196 1.289-3.936 2.344-7.126.691-2.054 2.553-3.427 4.807-3.61 0 0-3.032 9.152-3.977 12.142-.572 1.866.521 4.412 3.399 4.412 2.014.024 3.272.011 5.281 0 1.163-.015 2.184-.725 2.543-1.806l10.396-32.049ZM40.168 483.564h-7.925l4.477-13.61 3.632.024-3.371 10.273h4.29l-1.103 3.313Z"/><path d="M22.523 500.897h-3.602l10.826-33.455c.725-2.182 2.794-3.672 5.23-3.704 2.019-.011 3.115-.008 5.137 0 4.374.019 6.057 1.739 7.076 4.572.49 1.36.53 3.278.128 4.55-1.042 3.196-1.289 3.937-2.344 7.127-.69 2.053-2.553 3.426-4.807 3.609 0 0 3.032-9.152 3.978-12.142.571-1.866-.521-4.412-3.4-4.412-2.013-.024-3.272-.011-5.28 0-1.163.015-2.185.725-2.544 1.806l-10.398 32.049ZM36.557 491.314h7.925l-4.476 13.61-3.632-.024 3.37-10.273h-4.29l1.103-3.313Z"/><path d="M54.2 473.981h3.603l-10.824 33.455c-.725 2.182-2.794 3.672-5.23 3.704-2.019.011-3.115.009-5.137 0-4.374-.019-6.057-1.739-7.076-4.572-.49-1.36-.53-3.278-.128-4.55 1.042-3.196 1.289-3.937 2.344-7.126.69-2.054 2.553-3.427 4.807-3.61 0 0-3.032 9.152-3.978 12.142-.571 1.866.521 4.412 3.4 4.412 2.013.024 3.271.011 5.28 0 1.163-.015 2.185-.725 2.544-1.806L54.2 473.981ZM149.367 388.731h-7.925l4.477-13.61 3.632.024-3.371 10.273h4.291l-1.104 3.313Z"/><path d="M131.723 406.064h-3.602l10.825-33.455c.726-2.182 2.794-3.672 5.23-3.704 2.019-.011 3.115-.008 5.137 0 4.375.019 6.058 1.739 7.076 4.572.49 1.36.531 3.278.129 4.55-1.043 3.196-1.29 3.937-2.345 7.127-.691 2.053-2.553 3.426-4.807 3.609 0 0 3.033-9.152 3.978-12.142.572-1.866-.521-4.412-3.399-4.412-2.014-.024-3.272-.011-5.281 0-1.163.015-2.184.725-2.544 1.806l-10.397 32.049ZM145.757 396.481h7.924l-4.476 13.61-3.632-.024 3.371-10.273h-4.291l1.104-3.313Z"/><path d="M163.4 379.148h3.602l-10.824 33.455c-.725 2.182-2.793 3.672-5.229 3.704-2.019.011-3.116.009-5.137 0-4.375-.019-6.058-1.739-7.076-4.572-.49-1.36-.531-3.278-.129-4.55 1.042-3.196 1.289-3.937 2.344-7.126.691-2.054 2.553-3.427 4.807-3.61 0 0-3.032 9.152-3.978 12.142-.571 1.866.522 4.412 3.4 4.412 2.013.024 3.272.011 5.28 0 1.164-.015 2.185-.725 2.544-1.806l10.396-32.049ZM33.375 400.337h3.6l-10.796 33.455c-.724 2.183-2.79 3.672-5.224 3.704-2.018.011-3.113.009-5.134 0-4.372-.019-6.055-1.739-7.075-4.571-.49-1.361-.532-3.279-.131-4.551 1.04-3.196 1.286-3.936 2.338-7.126.689-2.054 2.55-3.427 4.802-3.61 0 0-3.025 9.152-3.968 12.142-.57 1.866.524 4.412 3.4 4.412 2.013.024 3.27.011 5.278 0 1.162-.015 2.182-.725 2.54-1.806l10.37-32.049ZM48.056 431.406H40.13l4.477-13.61 3.632.024-3.371 10.273h4.29l-1.103 3.313Z"/><path d="M30.412 448.739H26.81l10.825-33.455c.725-2.182 2.794-3.672 5.23-3.704 2.019-.011 3.115-.009 5.137 0 4.374.019 6.057 1.739 7.076 4.572.49 1.36.53 3.278.128 4.55-1.042 3.196-1.289 3.937-2.344 7.126-.69 2.054-2.553 3.427-4.807 3.61 0 0 3.032-9.152 3.978-12.142.571-1.866-.521-4.412-3.4-4.412-2.013-.024-3.272-.011-5.28 0-1.163.015-2.185.725-2.544 1.806l-10.397 32.049ZM44.446 439.156h7.924l-4.476 13.61-3.632-.024 3.37-10.273h-4.29l1.104-3.313Z"/><path d="M62.089 421.823h3.602l-10.824 33.455c-.725 2.182-2.793 3.672-5.23 3.704-2.019.011-3.115.009-5.136 0-4.375-.019-6.058-1.739-7.077-4.572-.489-1.36-.53-3.278-.128-4.55 1.042-3.196 1.289-3.937 2.344-7.127.69-2.053 2.553-3.426 4.807-3.609 0 0-3.032 9.152-3.978 12.142-.571 1.866.522 4.412 3.4 4.412 2.013.024 3.272.011 5.28 0 1.163-.015 2.185-.725 2.544-1.806l10.396-32.049ZM76.826 452.299H68.9l4.477-13.61 3.632.024-3.371 10.273h4.29l-1.103 3.313Z"/><path d="M59.181 469.632H55.58l10.826-33.455c.725-2.182 2.793-3.672 5.23-3.704 2.019-.011 3.115-.009 5.136 0 4.375.019 6.058 1.739 7.077 4.572.49 1.36.53 3.278.128 4.55-1.043 3.196-1.29 3.936-2.344 7.126-.691 2.054-2.553 3.427-4.808 3.61 0 0 3.033-9.152 3.979-12.142.571-1.866-.522-4.412-3.4-4.412-2.013-.024-3.272-.011-5.28 0-1.164.015-2.185.725-2.544 1.806L59.18 469.632ZM73.215 460.049h7.925l-4.477 13.61-3.631-.024 3.37-10.274h-4.29l1.103-3.312Z"/><path d="M90.859 442.716h3.602L83.636 476.17c-.725 2.183-2.794 3.672-5.23 3.705-2.019.01-3.115.008-5.137 0-4.374-.02-6.057-1.739-7.076-4.572-.49-1.36-.53-3.278-.128-4.55 1.042-3.196 1.289-3.937 2.344-7.127.69-2.053 2.553-3.426 4.806-3.609 0 0-3.032 9.152-3.977 12.141-.571 1.867.521 4.413 3.4 4.413 2.013.023 3.271.011 5.28 0 1.163-.015 2.184-.726 2.544-1.806l10.396-32.049ZM330.232 143.37h-3.6l10.799-33.455c.723-2.182 2.79-3.672 5.224-3.704 2.018-.011 3.114-.009 5.134 0 4.372.019 6.055 1.739 7.075 4.572.49 1.36.532 3.278.131 4.55-1.04 3.196-1.286 3.937-2.338 7.127-.69 2.053-2.55 3.426-4.803 3.609 0 0 3.026-9.152 3.969-12.142.57-1.866-.524-4.412-3.401-4.412-2.012-.024-3.269-.011-5.277 0-1.162.015-2.183.725-2.541 1.806l-10.372 32.049ZM361.856 116.454h3.6l-10.797 33.455c-.723 2.182-2.789 3.672-5.224 3.704-2.018.011-3.113.009-5.134 0-4.372-.019-6.055-1.739-7.075-4.572-.49-1.36-.532-3.278-.131-4.55 1.04-3.196 1.286-3.937 2.338-7.127.689-2.053 2.55-3.426 4.802-3.609 0 0-3.025 9.152-3.968 12.142-.569 1.866.524 4.412 3.401 4.412 2.012.024 3.27.011 5.277 0 1.162-.015 2.183-.725 2.541-1.806l10.37-32.049ZM376.942 144.559h-7.925l4.477-13.61 3.632.024-3.371 10.273h4.291l-1.104 3.313Z"/><path d="M359.298 161.892h-3.602l10.825-33.455c.725-2.182 2.794-3.672 5.23-3.704 2.019-.011 3.115-.008 5.137 0 4.375.02 6.058 1.739 7.076 4.572.49 1.36.531 3.278.129 4.55-1.043 3.196-1.29 3.937-2.345 7.127-.691 2.053-2.553 3.426-4.807 3.609 0 0 3.033-9.152 3.978-12.142.571-1.866-.521-4.412-3.399-4.412-2.014-.024-3.272-.011-5.281 0-1.163.015-2.184.725-2.544 1.806l-10.397 32.049ZM373.332 152.309h7.924l-4.476 13.61-3.632-.024 3.371-10.273h-4.291l1.104-3.313Z"/><path d="M390.975 134.976h3.602l-10.824 33.455c-.725 2.182-2.793 3.672-5.229 3.704-2.019.011-3.116.009-5.137 0-4.375-.019-6.058-1.739-7.077-4.572-.489-1.36-.53-3.278-.128-4.55 1.042-3.196 1.289-3.937 2.344-7.126.691-2.054 2.553-3.427 4.807-3.61 0 0-3.032 9.152-3.978 12.142-.571 1.866.522 4.412 3.4 4.412 2.013.024 3.272.011 5.28 0 1.163-.015 2.185-.725 2.544-1.806l10.396-32.049ZM405.638 166.119h-7.925l4.477-13.61 3.632.024-3.371 10.273h4.291l-1.104 3.313Z"/><path d="M387.994 183.452h-3.602l10.825-33.455c.725-2.182 2.794-3.672 5.23-3.704 2.019-.011 3.115-.009 5.137 0 4.375.019 6.058 1.739 7.076 4.571.489 1.361.531 3.279.128 4.551-1.042 3.196-1.289 3.936-2.344 7.126-.691 2.054-2.553 3.427-4.807 3.61 0 0 3.033-9.152 3.978-12.142.571-1.866-.521-4.412-3.399-4.412-2.014-.024-3.272-.011-5.281 0-1.163.015-2.185.725-2.544 1.806l-10.397 32.049ZM402.028 173.869h7.924l-4.476 13.609-3.632-.023 3.371-10.274h-4.291l1.104-3.312Z"/><path d="M419.671 156.536h3.602l-10.824 33.454c-.725 2.183-2.793 3.672-5.23 3.705-2.019.01-3.115.008-5.136 0-4.375-.02-6.058-1.739-7.077-4.572-.489-1.36-.53-3.278-.128-4.55 1.042-3.196 1.289-3.937 2.344-7.127.691-2.053 2.553-3.426 4.807-3.609 0 0-3.032 9.152-3.978 12.141-.571 1.867.522 4.413 3.4 4.413 2.013.023 3.272.011 5.28 0 1.163-.015 2.185-.726 2.544-1.806l10.396-32.049ZM434.408 186.937h-7.925l4.477-13.609 3.631.023-3.37 10.274h4.291l-1.104 3.312Z"/><path d="M416.763 204.271h-3.602l10.826-33.455c.725-2.183 2.793-3.672 5.23-3.704 2.019-.011 3.115-.009 5.137 0 4.374.019 6.057 1.739 7.076 4.571.489 1.361.53 3.278.128 4.55-1.042 3.197-1.289 3.937-2.344 7.127-.691 2.054-2.553 3.427-4.807 3.61 0 0 3.032-9.152 3.978-12.142.571-1.866-.521-4.412-3.4-4.412-2.013-.024-3.272-.011-5.28 0-1.163.015-2.185.725-2.544 1.805l-10.398 32.05ZM430.797 194.688h7.925l-4.476 13.609-3.632-.023 3.37-10.274h-4.29l1.103-3.312Z"/><path d="M448.441 177.354h3.602l-10.824 33.455c-.725 2.183-2.794 3.672-5.23 3.705-2.019.01-3.115.008-5.137 0-4.374-.02-6.057-1.74-7.076-4.572-.489-1.36-.53-3.278-.128-4.55 1.042-3.197 1.289-3.937 2.344-7.127.69-2.053 2.553-3.427 4.807-3.61 0 0-3.033 9.153-3.978 12.142-.571 1.866.521 4.413 3.4 4.413 2.013.023 3.271.01 5.28 0 1.163-.015 2.184-.726 2.544-1.806l10.396-32.05ZM395.734 129.812h-3.6l10.798-33.455c.724-2.182 2.79-3.672 5.225-3.704 2.017-.01 3.113-.009 5.133 0 4.373.02 6.056 1.74 7.075 4.572.49 1.36.533 3.278.131 4.55-1.04 3.196-1.286 3.937-2.338 7.126-.689 2.054-2.55 3.427-4.802 3.61 0 0 3.025-9.152 3.968-12.142.57-1.866-.524-4.412-3.4-4.412-2.012-.024-3.27-.01-5.278 0-1.162.015-2.182.725-2.541 1.806l-10.371 32.049ZM409.75 120.229h7.925l-4.477 13.61-3.631-.024 3.37-10.273h-4.291l1.104-3.313Z"/><path d="M427.393 102.896h3.602l-10.824 33.455c-.725 2.182-2.793 3.672-5.229 3.704-2.019.011-3.115.008-5.137 0-4.374-.02-6.058-1.739-7.076-4.572-.489-1.36-.531-3.278-.129-4.55 1.043-3.196 1.289-3.937 2.344-7.127.691-2.053 2.553-3.426 4.807-3.609 0 0-3.032 9.152-3.977 12.141-.572 1.867.521 4.413 3.399 4.413 2.014.024 3.272.011 5.281 0 1.163-.015 2.184-.725 2.543-1.806l10.396-32.049ZM361.626 249.69h-7.924l4.477-13.609 3.631.023-3.37 10.274h4.29l-1.104 3.312Z"/><path d="M343.982 267.023h-3.602l10.826-33.454c.725-2.183 2.793-3.672 5.229-3.705 2.019-.01 3.116-.008 5.137 0 4.375.02 6.058 1.74 7.077 4.572.489 1.36.53 3.278.128 4.55-1.043 3.197-1.289 3.937-2.344 7.127-.691 2.053-2.553 3.427-4.808 3.609 0 0 3.033-9.152 3.979-12.141.571-1.866-.522-4.413-3.4-4.413-2.013-.023-3.272-.01-5.28 0-1.164.015-2.185.726-2.544 1.806l-10.398 32.049ZM358.016 257.44h7.925l-4.477 13.61-3.631-.024 3.37-10.273h-4.291l1.104-3.313Z"/><path d="M375.659 240.107h3.602l-10.824 33.455c-.725 2.183-2.793 3.672-5.229 3.704-2.019.011-3.115.009-5.137 0-4.374-.019-6.057-1.739-7.076-4.571-.489-1.361-.531-3.278-.129-4.551 1.043-3.196 1.289-3.936 2.344-7.126.691-2.054 2.553-3.427 4.807-3.61 0 0-3.032 9.152-3.977 12.142-.571 1.866.521 4.412 3.399 4.412 2.014.024 3.272.011 5.281 0 1.163-.015 2.184-.725 2.543-1.805l10.396-32.05ZM470.826 154.857h-7.925l4.477-13.609 3.632.023-3.371 10.274h4.291l-1.104 3.312Z"/><path d="M453.182 172.19h-3.602l10.825-33.454c.725-2.183 2.794-3.672 5.23-3.705 2.019-.01 3.115-.008 5.137 0 4.375.02 6.058 1.74 7.076 4.572.489 1.36.531 3.278.128 4.55-1.042 3.197-1.289 3.937-2.344 7.127-.691 2.053-2.553 3.426-4.807 3.609 0 0 3.033-9.152 3.978-12.141.571-1.866-.521-4.413-3.399-4.413-2.014-.023-3.272-.01-5.281 0-1.163.015-2.185.726-2.544 1.806l-10.397 32.049ZM508.475 109.979h7.924l-4.476 13.61-3.632-.024 3.37-10.274h-4.29l1.104-3.312Z"/><path d="M526.118 92.646h3.602L518.896 126.1c-.725 2.183-2.793 3.672-5.23 3.705-2.019.01-3.115.008-5.136 0-4.375-.02-6.058-1.739-7.077-4.572-.489-1.36-.53-3.278-.128-4.55 1.042-3.196 1.289-3.937 2.344-7.127.691-2.053 2.553-3.426 4.807-3.609 0 0-3.032 9.152-3.978 12.141-.571 1.867.522 4.413 3.4 4.413 2.013.023 3.272.011 5.28 0 1.163-.015 2.185-.726 2.544-1.806l10.396-32.05ZM354.833 166.463h3.6l-10.796 33.455c-.723 2.183-2.789 3.672-5.224 3.705-2.017.01-3.113.008-5.133 0-4.372-.02-6.055-1.74-7.075-4.572-.49-1.361-.532-3.278-.131-4.55 1.039-3.197 1.285-3.937 2.338-7.127.689-2.053 2.549-3.427 4.801-3.61 0 0-3.024 9.152-3.967 12.142-.57 1.866.524 4.413 3.4 4.413 2.012.023 3.27.01 5.277 0 1.163-.015 2.183-.726 2.541-1.806l10.369-32.05ZM369.515 197.532h-7.925l4.477-13.61 3.632.024-3.371 10.273h4.291l-1.104 3.313Z"/><path d="M351.87 214.865h-3.602l10.826-33.454c.725-2.183 2.793-3.672 5.23-3.705 2.019-.011 3.115-.008 5.137 0 4.374.02 6.057 1.739 7.076 4.572.489 1.36.53 3.278.128 4.55-1.042 3.196-1.289 3.937-2.344 7.127-.691 2.053-2.553 3.426-4.807 3.609 0 0 3.032-9.152 3.978-12.141.571-1.867-.521-4.413-3.4-4.413-2.013-.024-3.272-.011-5.28 0-1.163.015-2.185.726-2.544 1.806l-10.398 32.049ZM365.904 205.282h7.925l-4.477 13.61-3.631-.024 3.37-10.273H364.8l1.104-3.313Z"/><path d="M383.548 187.949h3.602l-10.824 33.455c-.725 2.182-2.794 3.672-5.23 3.704-2.019.011-3.115.009-5.137 0-4.374-.019-6.057-1.739-7.076-4.572-.489-1.36-.53-3.278-.128-4.55 1.042-3.196 1.289-3.936 2.344-7.126.69-2.054 2.553-3.427 4.807-3.61 0 0-3.033 9.152-3.978 12.142-.571 1.866.521 4.412 3.4 4.412 2.013.024 3.271.011 5.28 0 1.163-.015 2.184-.725 2.544-1.806l10.396-32.049ZM398.284 218.425h-7.924l4.476-13.61 3.632.024-3.371 10.273h4.291l-1.104 3.313Z"/><path d="M380.64 235.758h-3.602l10.825-33.455c.726-2.182 2.794-3.672 5.23-3.704 2.019-.011 3.115-.009 5.137 0 4.375.019 6.058 1.739 7.077 4.572.489 1.36.53 3.278.128 4.55-1.043 3.196-1.289 3.937-2.345 7.127-.69 2.053-2.553 3.426-4.807 3.609 0 0 3.033-9.152 3.978-12.142.572-1.866-.521-4.412-3.399-4.412-2.013-.024-3.272-.011-5.281 0-1.163.015-2.184.725-2.543 1.806l-10.398 32.049ZM394.674 226.175h7.924l-4.476 13.61-3.631-.024 3.37-10.273h-4.291l1.104-3.313Z"/><path d="M412.317 208.842h3.602l-10.824 33.455c-.725 2.182-2.793 3.672-5.229 3.704-2.019.011-3.115.009-5.137 0-4.375-.019-6.058-1.739-7.076-4.572-.49-1.36-.531-3.278-.129-4.55 1.043-3.196 1.289-3.937 2.344-7.127.691-2.053 2.553-3.426 4.807-3.609 0 0-3.032 9.152-3.977 12.142-.572 1.866.521 4.412 3.399 4.412 2.013.024 3.272.011 5.281 0 1.163-.015 2.184-.725 2.543-1.806l10.396-32.049Z"/></g><path fill-rule="evenodd" clip-rule="evenodd" d="M93.795 809.461H47s187.848-578.177 207.75-639.412C264.062 141.398 290.757 122 320.877 122h83.657c25.228 0 46.283 10.656 59.374 28.663 13.082 18.008 16.793 41.05 9.165 64.557-7.639 23.506-14.854 45.696-21.459 66.027-8.918 27.452-33.624 46.367-62.189 47.906 0 0-.148-.048 39.875-123.234 3.534-10.871 2.244-21.511-3.308-29.143-5.541-7.63-14.892-12.146-27.265-12.146h-71.786c-14.096 0-26.587 9.077-30.948 22.485L93.795 809.461Z" fill="#F0145A"/><path fill-rule="evenodd" clip-rule="evenodd" d="M389.416 329.155h-94.318l41.558-126.393 47.017.278-27.301 83.354 46.877.028-13.833 42.733Z" fill="url(#b)"/><defs><linearGradient id="b" x1="295.091" y1="304.946" x2="400.01" y2="359.784" gradientUnits="userSpaceOnUse"><stop stop-color="#F0145A"/><stop offset="1" stop-color="#693264"/></linearGradient><clipPath id="a"><path fill="#fff" d="M0 0h689v644H0z"/></clipPath></defs></svg>