<svg width="444" height="63" fill="none" xmlns="http://www.w3.org/2000/svg"><g clip-path="url(#a)"><path d="M10.351 58.091c0-1.111-.381-2.048-1.133-2.822-.752-.773-1.667-1.155-2.735-1.155-.97 0-1.809.305-2.517.926-.697.61-1.133 1.352-1.296 2.234H1.634v-2.996H0v7.627h1.634V58.8H2.67c.163.926.599 1.71 1.296 2.331.698.621 1.537.937 2.517.937 1.068 0 1.983-.381 2.735-1.155.752-.762 1.133-1.71 1.133-2.822Zm-1.634 0c0 .72-.218 1.319-.654 1.787-.447.48-.97.72-1.58.72-.61 0-1.133-.24-1.569-.72-.447-.468-.665-1.068-.665-1.787 0-.719.218-1.318.665-1.797.436-.47.959-.709 1.57-.709.61 0 1.132.24 1.58.709.435.479.653 1.078.653 1.797ZM12.96 54.278v7.628h1.635V59.4h1.58c.784 0 1.438-.251 1.95-.742.512-.49.774-1.1.774-1.82 0-.73-.262-1.328-.774-1.83-.523-.49-1.166-.73-1.95-.73H12.96Zm3.16 1.471c.327 0 .6.11.817.316.218.207.327.469.327.774 0 .305-.109.567-.326.773-.218.207-.49.316-.818.316h-1.525V55.75h1.525ZM28.262 61.906v-7.628h-1.417l-3.759 4.85v-4.85h-1.634v7.628h1.416l3.76-4.85v4.85h1.634ZM30.325 60.435v3.05h1.634v-1.58h4.576v1.58h1.635v-3.05h-.926v-6.157h-5.285v2.343c0 .512-.043.991-.13 1.438a7.314 7.314 0 0 1-.284 1.09 5.1 5.1 0 0 1-.37.73c-.142.218-.23.36-.284.425-.065.054-.098.109-.13.13h-.436Zm3.268-3.814v-.872h2.016v4.686h-3.214l.13-.131c.077-.087.175-.229.295-.436s.229-.447.349-.72c.12-.272.218-.642.294-1.089.087-.447.13-.926.13-1.438ZM47.312 61.906v-7.628h-1.417l-3.76 4.85v-4.85h-1.633v7.628h1.416l3.76-4.85v4.85h1.634ZM51.882 54.278h-1.635v2.343c0 .915.24 1.623.72 2.125.49.512 1.154.762 2.004.762.73 0 1.33-.141 1.798-.435v2.833h1.634v-7.628H54.77v3.215l-.185.141c-.12.087-.305.175-.556.273a2.37 2.37 0 0 1-.785.13c-.435 0-.773-.12-1.013-.36-.229-.25-.348-.598-.348-1.056v-2.343ZM65.986 54.278H64.35v3.051h-3.268v-3.05h-1.635v7.627h1.635V58.8h3.269v3.106h1.634v-7.628ZM72.955 58.691h-1.852l.926-2.506.926 2.506Zm.545 1.417.653 1.798h1.744L72.9 54.278h-1.743l-2.996 7.628h1.743l.654-1.798H73.5ZM83.022 54.278h-1.634v7.628h1.634v-2.18l.98-1.09 2.234 3.27h1.907l-3.05-4.468 2.832-3.16H86.02l-2.997 3.324v-3.324ZM91.461 58.091c0-.697.24-1.296.72-1.776.468-.49 1.046-.73 1.732-.73.686 0 1.264.24 1.732.73.48.48.72 1.079.72 1.776 0 .709-.24 1.297-.72 1.776-.468.49-1.046.73-1.732.73-.686 0-1.264-.24-1.733-.73-.479-.479-.719-1.067-.719-1.776Zm-1.689 0c0 1.09.404 2.038 1.199 2.812.795.773 1.776 1.165 2.942 1.165 1.166 0 2.147-.392 2.942-1.165.795-.774 1.198-1.722 1.198-2.812 0-1.1-.403-2.037-1.198-2.81-.796-.774-1.776-1.167-2.942-1.167-1.166 0-2.147.393-2.942 1.166-.795.774-1.199 1.71-1.199 2.811ZM104.749 57.602l-2.615-3.324h-1.471v7.628h1.634v-5.067l2.452 3.105 2.451-3.127v5.089h1.635v-7.628h-1.45l-2.636 3.324ZM118.36 54.278h-6.484v7.628h1.635v-6.157h3.214v6.157h1.635v-7.628ZM125.33 58.691h-1.852l.926-2.506.926 2.506Zm.545 1.417.653 1.798h1.744l-2.997-7.628h-1.743l-2.996 7.628h1.743l.654-1.798h2.942ZM136.983 54.278h-1.634v3.051h-3.269v-3.05h-1.635v7.627h1.635V58.8h3.269v3.106h1.634v-7.628ZM141.662 54.278h-1.635v7.628h1.635v-7.628ZM150.373 54.278h-3.378c-.763 0-1.384.24-1.874.72-.491.479-.741 1.078-.741 1.786 0 .306.054.589.141.861.099.273.207.48.338.632.12.153.251.294.414.425a2.2 2.2 0 0 0 .327.25c.055.023.109.055.142.066l-1.635 2.888h1.744l1.471-2.67h1.416v2.67h1.635v-7.628Zm-4.359 2.506c0-.305.098-.544.294-.74.197-.197.447-.295.741-.295h1.689v2.016h-1.689c-.294 0-.544-.098-.741-.283a.93.93 0 0 1-.294-.698Z" fill="#46466E"/><path d="M4.981 1H0v35.975h4.981V23.629c0-2.258.562-4.04 1.685-5.294 1.123-1.254 2.661-1.906 4.566-1.906 1.636 0 3.003.602 4.102 1.756 1.099 1.179 1.66 2.659 1.66 4.44V37H22V22.625c0-3.311-.903-5.92-2.71-7.877-1.807-1.957-4.176-2.935-7.057-2.935-.83 0-1.66.1-2.466.326-.83.226-1.49.476-2.027.752-.537.276-1.05.577-1.514.928-.464.352-.78.603-.927.753-.147.15-.269.251-.318.326V1Z" fill="#F0145A"/><path d="M33.135 1H28v35.945h5.135V1ZM63.422 26.418l.257-2.567c0-3.441-1.13-6.317-3.44-8.627-2.311-2.311-5.187-3.44-8.627-3.44-3.44 0-6.42 1.232-8.884 3.696-2.465 2.465-3.697 5.392-3.697 8.884 0 3.595 1.284 6.675 3.8 9.243 2.516 2.568 5.545 3.851 9.037 3.851 1.335 0 2.568-.205 3.8-.565 1.233-.41 2.26-.821 2.979-1.232.77-.462 1.54-.976 2.208-1.54.667-.565 1.13-.976 1.335-1.233.205-.257.36-.41.462-.565l-3.338-3.338-.77.976c-.514.616-1.387 1.233-2.62 1.9-1.283.668-2.618.976-4.056.976-2.002 0-3.697-.617-5.135-1.9-1.438-1.284-2.31-2.773-2.567-4.519h19.256Zm-11.81-10.27c1.9 0 3.44.565 4.724 1.643 1.232 1.13 2.002 2.516 2.31 4.262H44.372c.462-1.746 1.284-3.132 2.568-4.262 1.232-1.078 2.824-1.643 4.672-1.643ZM87.371 35.456c0 2.259-.667 4.108-2.054 5.545-1.335 1.387-3.03 2.106-5.135 2.106a9.703 9.703 0 0 1-2.722-.411c-.872-.257-1.54-.565-2.105-.924a11.6 11.6 0 0 1-1.592-1.181l-.924-.925c-.154-.154-.257-.308-.36-.41l-3.337 3.337.41.514c.257.36.72.821 1.336 1.335.616.462 1.335.975 2.156 1.489.822.462 1.849.873 3.133 1.232 1.283.36 2.619.565 4.005.565 3.492 0 6.367-1.18 8.78-3.543 2.363-2.413 3.544-5.289 3.544-8.78V12.296h-5.135v2.567l-.873-.77c-.565-.513-1.438-1.027-2.67-1.54a10.17 10.17 0 0 0-3.903-.77c-3.132 0-5.802 1.18-8.113 3.594-2.31 2.413-3.44 5.289-3.44 8.73 0 3.44 1.13 6.315 3.44 8.729 2.31 2.413 4.981 3.594 8.113 3.594.873 0 1.695-.102 2.568-.308.821-.257 1.489-.513 2.054-.77a7.662 7.662 0 0 0 1.54-.924c.462-.36.822-.617.925-.72l.36-.359v2.106ZM73.507 24.107c0-2.156.667-3.954 2.054-5.443 1.386-1.489 3.03-2.26 4.878-2.26 1.848 0 3.492.771 4.878 2.26 1.335 1.49 2.054 3.287 2.054 5.443 0 2.157-.719 3.954-2.054 5.443-1.386 1.49-3.03 2.26-4.878 2.26-1.849 0-3.492-.77-4.878-2.26-1.387-1.489-2.054-3.286-2.054-5.443ZM119.309 36.945V21.026c0-2.619-.976-4.827-2.876-6.573-1.9-1.797-4.365-2.67-7.394-2.67a13.31 13.31 0 0 0-3.492.462c-1.13.36-2.054.72-2.722 1.13-.667.41-1.335.873-1.951 1.438-.616.513-.975.873-1.18 1.078-.155.206-.309.36-.412.514l3.338 3.337.668-.873c.41-.564 1.129-1.078 2.208-1.643 1.078-.564 2.259-.821 3.543-.821 1.489 0 2.721.462 3.697 1.335s1.438 2.003 1.438 3.286l-8.986 1.54c-2.209.36-4.006 1.233-5.238 2.62-1.284 1.386-1.951 3.08-1.951 5.083 0 1.9.821 3.543 2.464 4.981 1.695 1.49 3.749 2.208 6.265 2.208.873 0 1.695-.102 2.516-.36a11.082 11.082 0 0 0 2.106-.718 7.68 7.68 0 0 0 1.54-.924c.462-.36.77-.617.976-.72.154-.153.256-.307.308-.359v2.568h5.135Zm-11.811-4.108c-1.335 0-2.413-.308-3.183-.925-.822-.616-1.181-1.335-1.181-2.156 0-.873.256-1.643.821-2.208.565-.565 1.335-.976 2.26-1.13l7.959-1.284v.514c0 2.31-.565 4.056-1.746 5.34-1.181 1.233-2.824 1.849-4.93 1.849ZM130.64 1h-5.135v35.945h5.135V1ZM153.989 15.121l-.308-.36c-.206-.205-.514-.462-.976-.821-.462-.36-.976-.668-1.541-1.027-.564-.308-1.335-.565-2.259-.822-.924-.205-1.9-.308-2.876-.308-2.516 0-4.57.72-6.213 2.157-1.694 1.49-2.516 3.132-2.516 5.032 0 1.387.308 2.516.924 3.543.616.976 1.387 1.695 2.362 2.106.925.462 1.952.924 3.03 1.284 1.078.359 2.054.667 3.03.924.924.308 1.694.667 2.31 1.13.617.462.925 1.078.925 1.797 0 .924-.36 1.694-1.027 2.26-.668.513-1.695.82-3.081.82-1.13 0-2.26-.307-3.338-.82-1.078-.566-1.746-1.028-2.105-1.387-.308-.36-.565-.668-.719-.873l-3.338 3.337.359.463c.257.308.617.667 1.13 1.078.565.462 1.181.873 1.849 1.284.719.41 1.643.77 2.721 1.078 1.079.308 2.26.462 3.441.462 2.721 0 4.981-.77 6.675-2.26 1.695-1.488 2.568-3.337 2.568-5.442 0-1.387-.308-2.568-.925-3.492-.616-.976-1.386-1.695-2.362-2.157-.924-.513-1.951-.924-3.029-1.284-1.079-.359-2.054-.718-3.03-.924a6.939 6.939 0 0 1-2.311-1.13c-.616-.462-.924-1.078-.924-1.797 0-.667.308-1.284.976-1.797.616-.514 1.489-.77 2.618-.77.822 0 1.644.205 2.414.565.822.359 1.386.667 1.643.924l.565.565 3.338-3.338ZM196.957 37h2.672V18.76h-15.772V37h2.654V21.266h10.446V37Zm12.747 2.653c-.686 1.912-1.837 2.858-3.451 2.858-.631 0-1.262-.13-1.893-.39v2.486l.26.075c.186.074.483.148.854.204.371.074.76.092 1.169.092 1.317 0 2.412-.39 3.284-1.206.853-.816 1.67-2.189 2.43-4.119l8.369-20.892h-2.858l-5.882 14.825-5.9-14.825h-2.857L210.65 37l-.946 2.653Zm31.914-11.392c0-2.524-.853-4.676-2.56-6.457-1.707-1.781-3.767-2.672-6.179-2.672-.817 0-1.596.148-2.338.408s-1.354.557-1.818.872a8.22 8.22 0 0 0-1.299 1.095c-.39.408-.65.686-.761.853-.111.167-.204.297-.241.39.093-2.56.761-4.583 1.985-6.067 1.225-1.485 2.858-2.45 4.862-2.858 3.785-.742 6.197-1.577 7.217-2.468l-1.336-2.096-.556.334c-.371.24-1.076.538-2.115.89-1.058.371-2.264.65-3.6.872-6.197 1.114-9.296 5.864-9.296 14.25 0 3.748.835 6.662 2.542 8.703 1.688 2.04 3.878 3.061 6.568 3.061 2.487 0 4.583-.872 6.328-2.635 1.725-1.744 2.597-3.915 2.597-6.475Zm-15.196 0c0-1.874.612-3.451 1.837-4.732 1.224-1.261 2.709-1.91 4.434-1.91 1.707 0 3.192.649 4.416 1.91 1.225 1.28 1.856 2.858 1.856 4.732 0 1.892-.631 3.47-1.856 4.731-1.224 1.28-2.709 1.911-4.416 1.911-1.725 0-3.21-.63-4.434-1.91-1.225-1.263-1.837-2.84-1.837-4.732Zm22.043-9.5v5.325c0 2.987-.167 5.288-.464 6.902-.297 1.596-.668 2.635-1.113 3.08-.446.446-1.058.668-1.837.668-.52 0-1.021-.13-1.522-.37v2.653l.26.074c.149.074.371.13.687.204.315.056.63.093.946.093.909 0 1.688-.186 2.338-.557.631-.371 1.224-1.02 1.762-1.948.52-.928.928-2.301 1.188-4.082.26-1.782.408-4.027.408-6.698v-2.858h7.979V37.02h2.672v-18.24l-13.304-.018ZM267.836 37h2.653V18.76h-2.653V37Zm-.39-24.325c0 .482.149.89.483 1.224.334.334.742.483 1.224.483.483 0 .872-.149 1.206-.483.334-.334.501-.742.501-1.224 0-.483-.167-.872-.501-1.206a1.623 1.623 0 0 0-1.206-.501c-.482 0-.89.167-1.224.5-.334.335-.483.724-.483 1.207Zm11.801 19.204 3.618-3.804L289.322 37h3.043l-7.793-10.836 7.032-7.403h-3.247l-9.11 9.685v-9.685h-2.653V37h2.653v-5.121Zm20.522-5.325c-1.726.297-3.043.909-3.953 1.837-.927.927-1.373 2.152-1.373 3.674 0 1.391.613 2.616 1.856 3.692s2.783 1.614 4.601 1.614c.724 0 1.429-.093 2.116-.297.686-.185 1.243-.408 1.67-.668.408-.26.797-.538 1.168-.872a8.7 8.7 0 0 0 .706-.686c.111-.13.185-.242.241-.316V37h2.653V25.403c0-1.985-.686-3.655-2.059-5.01-1.374-1.335-3.081-2.022-5.159-2.022-.816 0-1.632.13-2.412.371-.779.241-1.41.52-1.892.817-.483.315-.947.668-1.392 1.057-.445.39-.724.668-.853.817-.13.148-.223.278-.297.37l1.707 1.708.575-.65c.371-.445.983-.89 1.837-1.336a5.809 5.809 0 0 1 2.727-.668c1.336 0 2.431.427 3.285 1.262.853.854 1.28 1.948 1.28 3.284l-7.032 1.15Zm1.131 8.35c-1.187 0-2.133-.26-2.801-.799-.668-.538-1.002-1.224-1.002-2.04 0-1.708 1.15-2.784 3.432-3.23l6.272-1.15v1.15c0 1.8-.557 3.267-1.67 4.38-1.113 1.132-2.524 1.688-4.231 1.688ZM315.521 37h15.568v4.565h2.672v-7.033h-2.858V18.761h-2.653v15.771h-10.075V18.761h-2.654V37Zm22.415 0h2.653V18.76h-2.653V37Zm-.39-24.325c0 .482.148.89.482 1.224.334.334.743.483 1.225.483.482 0 .872-.149 1.206-.483.334-.334.501-.742.501-1.224 0-.483-.167-.872-.501-1.206a1.625 1.625 0 0 0-1.206-.501c-.482 0-.891.167-1.225.5-.334.335-.482.724-.482 1.207Zm5.158.315c0 .483.149.89.483 1.225.334.334.742.482 1.224.482.483 0 .872-.148 1.206-.482.334-.334.501-.742.501-1.225 0-.482-.167-.872-.501-1.206a1.623 1.623 0 0 0-1.206-.5c-.482 0-.89.166-1.224.5-.334.334-.483.724-.483 1.206Zm7.218 0c0 .483.148.89.482 1.225.334.334.742.482 1.225.482.482 0 .872-.148 1.206-.482.334-.334.501-.742.501-1.225 0-.482-.167-.872-.501-1.206a1.625 1.625 0 0 0-1.206-.5c-.483 0-.891.166-1.225.5-.334.334-.482.724-.482 1.206ZM346.693 37h2.654V18.76h-2.654V37Z" fill="#323264"/><path fill-rule="evenodd" clip-rule="evenodd" d="M384.258 27.145h-11.929l5.256-15.991 5.947.035-3.453 10.546 5.929.004-1.75 5.406Z" fill="url(#b)"/><path fill-rule="evenodd" clip-rule="evenodd" d="M359.904 47.904H354s10.754-33.11 13.266-40.84A8.774 8.774 0 0 1 375.609 1h10.556c3.183 0 5.84 1.345 7.492 3.618 1.65 2.273 2.119 5.181 1.156 8.148l-2.708 8.334a8.739 8.739 0 0 1-7.846 6.047s-.019-.006 5.031-15.555c.446-1.372.283-2.715-.417-3.678-.7-.963-1.88-1.533-3.441-1.533h-9.058a4.106 4.106 0 0 0-3.904 2.838l-12.566 38.685ZM175.227 1h5.844l-15.226 46.843H160L175.227 1Z" fill="#F0145A"/></g><defs><linearGradient id="b" x1="372.328" y1="24.082" x2="385.6" y2="31.017" gradientUnits="userSpaceOnUse"><stop stop-color="#F0145A"/><stop offset="1" stop-color="#693264"/></linearGradient><clipPath id="a"><path fill="#fff" d="M0 0h444v63H0z"/></clipPath></defs></svg>