<svg width="419" height="63" fill="none" xmlns="http://www.w3.org/2000/svg"><g clip-path="url(#a)"><path d="M10.351 58.091c0-1.111-.381-2.048-1.133-2.822-.752-.773-1.667-1.155-2.735-1.155-.97 0-1.809.305-2.517.926-.697.61-1.133 1.351-1.296 2.234H1.634v-2.996H0v7.627h1.634V58.8H2.67c.163.926.599 1.71 1.296 2.331.698.621 1.537.937 2.517.937 1.068 0 1.983-.381 2.735-1.155.752-.762 1.133-1.71 1.133-2.822Zm-1.634 0c0 .72-.218 1.319-.654 1.787-.447.48-.97.72-1.58.72-.61 0-1.133-.24-1.569-.72-.447-.468-.665-1.068-.665-1.787 0-.719.218-1.318.665-1.798.436-.468.959-.708 1.57-.708.61 0 1.132.24 1.58.708.435.48.653 1.08.653 1.798ZM12.96 54.278v7.627h1.635V59.4h1.58c.784 0 1.438-.25 1.95-.74.512-.491.774-1.101.774-1.82 0-.73-.262-1.33-.774-1.83-.523-.491-1.166-.73-1.95-.73H12.96Zm3.16 1.471c.327 0 .6.109.817.316.218.207.327.469.327.774 0 .305-.109.566-.326.773-.218.207-.49.316-.818.316h-1.525V55.75h1.525ZM28.262 61.905v-7.627h-1.417l-3.759 4.849v-4.849h-1.634v7.627h1.416l3.76-4.848v4.848h1.634ZM30.325 60.434v3.051h1.634v-1.58h4.576v1.58h1.635v-3.05h-.926v-6.157h-5.285v2.343c0 .512-.043.991-.13 1.438a7.314 7.314 0 0 1-.284 1.09 5.1 5.1 0 0 1-.37.73c-.142.218-.23.36-.284.425-.065.054-.098.109-.13.13h-.436Zm3.268-3.813v-.872h2.016v4.685h-3.214l.13-.13c.077-.087.175-.23.295-.436.12-.207.229-.447.349-.72.12-.272.218-.642.294-1.089.087-.447.13-.926.13-1.438ZM47.312 61.905v-7.627h-1.417l-3.76 4.849v-4.849h-1.633v7.627h1.416l3.76-4.848v4.848h1.634ZM51.882 54.278h-1.635v2.343c0 .915.24 1.623.72 2.124.49.513 1.154.763 2.004.763.73 0 1.33-.141 1.798-.436v2.833h1.634v-7.627H54.77v3.215l-.185.141c-.12.087-.305.174-.556.273a2.37 2.37 0 0 1-.785.13c-.435 0-.773-.12-1.013-.36-.229-.25-.348-.599-.348-1.056v-2.343ZM65.986 54.278H64.35v3.051h-3.268v-3.05h-1.635v7.626h1.635V58.8h3.269v3.105h1.634v-7.627ZM72.955 58.691h-1.852l.926-2.506.926 2.506Zm.545 1.416.653 1.798h1.744L72.9 54.278h-1.743l-2.996 7.627h1.743l.654-1.797H73.5ZM83.022 54.278h-1.634v7.627h1.634v-2.179l.98-1.09 2.234 3.27h1.907l-3.05-4.468 2.832-3.16H86.02l-2.997 3.323v-3.323ZM91.461 58.091c0-.697.24-1.296.72-1.776.468-.49 1.046-.73 1.732-.73.686 0 1.264.24 1.732.73.48.48.72 1.079.72 1.776 0 .709-.24 1.297-.72 1.776-.468.49-1.046.73-1.732.73-.686 0-1.264-.24-1.733-.73-.479-.48-.719-1.067-.719-1.776Zm-1.689 0c0 1.09.404 2.038 1.199 2.811.795.774 1.776 1.166 2.942 1.166 1.166 0 2.147-.392 2.942-1.166.795-.773 1.198-1.721 1.198-2.81 0-1.101-.403-2.038-1.198-2.812-.796-.774-1.776-1.166-2.942-1.166-1.166 0-2.147.392-2.942 1.166-.795.774-1.199 1.71-1.199 2.811ZM104.749 57.601l-2.615-3.323h-1.471v7.627h1.634V56.84l2.452 3.105 2.451-3.127v5.088h1.635v-7.627h-1.45l-2.636 3.323ZM118.36 54.278h-6.484v7.627h1.635V55.75h3.214v6.156h1.635v-7.627ZM125.33 58.691h-1.852l.926-2.506.926 2.506Zm.545 1.416.653 1.798h1.744l-2.997-7.627h-1.743l-2.996 7.627h1.743l.654-1.797h2.942ZM136.983 54.278h-1.634v3.051h-3.269v-3.05h-1.635v7.626h1.635V58.8h3.269v3.105h1.634v-7.627ZM141.662 54.278h-1.635v7.627h1.635v-7.627ZM150.373 54.278h-3.378c-.763 0-1.384.24-1.874.72-.491.479-.741 1.078-.741 1.786 0 .305.054.589.141.861.099.272.207.48.338.632.12.152.251.294.414.425a2.2 2.2 0 0 0 .327.25c.055.022.109.055.142.066l-1.635 2.887h1.744l1.471-2.67h1.416v2.67h1.635v-7.627Zm-4.359 2.506c0-.305.098-.545.294-.74.197-.197.447-.295.741-.295h1.689v2.016h-1.689c-.294 0-.544-.098-.741-.283a.93.93 0 0 1-.294-.698Z" fill="#46466E"/><path d="M4.981 1H0v35.975h4.981V23.629c0-2.258.562-4.04 1.685-5.294 1.123-1.254 2.661-1.906 4.566-1.906 1.636 0 3.003.602 4.102 1.756 1.099 1.179 1.66 2.659 1.66 4.44V37H22V22.625c0-3.311-.903-5.92-2.71-7.877-1.807-1.957-4.176-2.935-7.057-2.935-.83 0-1.66.1-2.466.326-.83.226-1.49.476-2.027.752-.537.276-1.05.577-1.514.929-.464.35-.78.602-.927.752-.147.15-.269.251-.318.326V1Z" fill="#F0145A"/><path d="M33.135 1H28v35.945h5.135V1ZM63.422 26.418l.257-2.568c0-3.44-1.13-6.316-3.44-8.627-2.311-2.31-5.187-3.44-8.627-3.44-3.44 0-6.42 1.232-8.884 3.697-2.465 2.465-3.697 5.392-3.697 8.884 0 3.594 1.284 6.675 3.8 9.243 2.516 2.567 5.545 3.851 9.037 3.851 1.335 0 2.568-.205 3.8-.565 1.233-.41 2.26-.821 2.979-1.232.77-.462 1.54-.976 2.208-1.54.667-.566 1.13-.976 1.335-1.233.205-.257.36-.41.462-.565l-3.338-3.338-.77.976c-.514.616-1.387 1.232-2.62 1.9-1.283.668-2.618.976-4.056.976-2.002 0-3.697-.617-5.135-1.9-1.438-1.284-2.31-2.773-2.567-4.52h19.256Zm-11.81-10.27c1.9 0 3.44.565 4.724 1.643 1.232 1.13 2.002 2.516 2.31 4.262H44.372c.462-1.746 1.284-3.132 2.568-4.262 1.232-1.078 2.824-1.643 4.672-1.643ZM87.371 35.455c0 2.26-.667 4.108-2.054 5.546-1.335 1.387-3.03 2.106-5.135 2.106a9.707 9.707 0 0 1-2.722-.411c-.872-.257-1.54-.565-2.105-.924a11.6 11.6 0 0 1-1.592-1.182l-.924-.924c-.154-.154-.257-.308-.36-.41l-3.337 3.337.41.514c.257.359.72.821 1.336 1.335.616.462 1.335.975 2.156 1.489.822.462 1.849.873 3.133 1.232 1.283.36 2.619.565 4.005.565 3.492 0 6.367-1.181 8.78-3.543 2.363-2.413 3.544-5.29 3.544-8.781V12.296h-5.135v2.568l-.873-.77c-.565-.514-1.438-1.027-2.67-1.54a10.17 10.17 0 0 0-3.903-.771c-3.132 0-5.802 1.181-8.113 3.595-2.31 2.413-3.44 5.289-3.44 8.729 0 3.44 1.13 6.316 3.44 8.73 2.31 2.413 4.981 3.594 8.113 3.594.873 0 1.695-.103 2.568-.308.821-.257 1.489-.514 2.054-.77a7.662 7.662 0 0 0 1.54-.925c.462-.36.822-.616.925-.718l.36-.36v2.105ZM73.507 24.107c0-2.157.667-3.954 2.054-5.443 1.386-1.49 3.03-2.26 4.878-2.26 1.848 0 3.492.77 4.878 2.26 1.335 1.49 2.054 3.286 2.054 5.443 0 2.157-.719 3.954-2.054 5.443-1.386 1.49-3.03 2.26-4.878 2.26-1.849 0-3.492-.77-4.878-2.26-1.387-1.489-2.054-3.286-2.054-5.443ZM119.309 36.945V21.026c0-2.619-.976-4.827-2.876-6.573-1.9-1.797-4.365-2.67-7.394-2.67a13.31 13.31 0 0 0-3.492.462c-1.13.36-2.054.72-2.722 1.13-.667.41-1.335.873-1.951 1.438-.616.513-.975.873-1.18 1.078-.155.205-.309.36-.412.513l3.338 3.338.668-.873c.41-.564 1.129-1.078 2.208-1.643 1.078-.565 2.259-.822 3.543-.822 1.489 0 2.721.463 3.697 1.336s1.438 2.002 1.438 3.286l-8.986 1.54c-2.209.36-4.006 1.233-5.238 2.62-1.284 1.386-1.951 3.08-1.951 5.083 0 1.9.821 3.543 2.464 4.981 1.695 1.49 3.749 2.208 6.265 2.208.873 0 1.695-.103 2.516-.36a11.075 11.075 0 0 0 2.106-.718 7.671 7.671 0 0 0 1.54-.925c.462-.359.77-.616.976-.718.154-.154.256-.309.308-.36v2.568h5.135Zm-11.811-4.108c-1.335 0-2.413-.309-3.183-.925-.822-.616-1.181-1.335-1.181-2.156 0-.873.256-1.644.821-2.209.565-.564 1.335-.975 2.26-1.13l7.959-1.283v.514c0 2.31-.565 4.056-1.746 5.34-1.181 1.232-2.824 1.849-4.93 1.849ZM130.64 1h-5.135v35.945h5.135V1ZM153.989 15.12l-.308-.359c-.206-.205-.514-.462-.976-.821-.462-.36-.976-.668-1.541-1.027-.564-.308-1.335-.565-2.259-.822-.924-.205-1.9-.308-2.876-.308-2.516 0-4.57.719-6.213 2.157-1.694 1.489-2.516 3.132-2.516 5.032 0 1.386.308 2.516.924 3.543.616.976 1.387 1.695 2.362 2.105.925.463 1.952.925 3.03 1.284 1.078.36 2.054.668 3.03.925.924.308 1.694.667 2.31 1.13.617.462.925 1.078.925 1.797 0 .924-.36 1.694-1.027 2.259-.668.514-1.695.822-3.081.822-1.13 0-2.26-.309-3.338-.822-1.078-.565-1.746-1.027-2.105-1.387-.308-.359-.565-.667-.719-.872l-3.338 3.337.359.462c.257.309.617.668 1.13 1.079.565.462 1.181.873 1.849 1.284.719.41 1.643.77 2.721 1.078 1.079.308 2.26.462 3.441.462 2.721 0 4.981-.77 6.675-2.26 1.695-1.489 2.568-3.337 2.568-5.442 0-1.387-.308-2.568-.925-3.492-.616-.976-1.386-1.695-2.362-2.157-.924-.514-1.951-.924-3.029-1.284-1.079-.36-2.054-.719-3.03-.924a6.939 6.939 0 0 1-2.311-1.13c-.616-.462-.924-1.078-.924-1.797 0-.668.308-1.284.976-1.797.616-.514 1.489-.77 2.618-.77.822 0 1.644.205 2.414.564.822.36 1.386.668 1.643.925l.565.565 3.338-3.338ZM186.511 31.879l3.618-3.804L196.586 37h3.043l-7.793-10.836 7.032-7.403h-3.247l-9.11 9.685v-9.685h-2.654V37h2.654v-5.121Zm30.374-3.99c0 1.967-.668 3.637-1.967 4.992-1.299 1.354-2.876 2.022-4.694 2.022-1.819 0-3.396-.668-4.695-2.04-1.299-1.374-1.948-3.025-1.948-4.992s.649-3.618 1.948-4.973c1.299-1.354 2.876-2.04 4.695-2.04 1.818 0 3.395.686 4.694 2.04 1.299 1.355 1.967 3.025 1.967 4.992Zm-15.957 0c0 2.672.89 4.918 2.709 6.755 1.818 1.818 4.008 2.746 6.605 2.746 2.579 0 4.769-.928 6.569-2.746 1.818-1.837 2.709-4.082 2.709-6.754 0-2.672-.891-4.917-2.709-6.754-1.8-1.837-3.99-2.765-6.569-2.765-2.597 0-4.787.928-6.605 2.765-1.819 1.837-2.709 4.082-2.709 6.754Zm39.336-4.378V37h2.653V18.76h-2.097l-7.217 9.111-7.218-9.11h-2.078V37h2.653V23.51l6.643 8.369 6.661-8.368Zm12.747 3.043c-1.726.297-3.043.909-3.952 1.837-.928.927-1.373 2.152-1.373 3.674 0 1.391.612 2.616 1.855 3.692 1.243 1.076 2.783 1.614 4.602 1.614a7.38 7.38 0 0 0 2.115-.297c.686-.185 1.243-.408 1.67-.668.408-.26.798-.538 1.169-.872.371-.334.593-.556.705-.686.111-.13.185-.242.241-.316V37h2.653V25.403c0-1.985-.686-3.655-2.059-5.01-1.373-1.335-3.08-2.022-5.158-2.022-.817 0-1.633.13-2.413.371-.779.241-1.41.52-1.892.817a12.52 12.52 0 0 0-1.392 1.057c-.445.39-.723.668-.853.817-.13.148-.223.278-.297.37l1.707 1.708.575-.65c.371-.445.983-.89 1.837-1.336a5.813 5.813 0 0 1 2.728-.668c1.335 0 2.43.427 3.284 1.262.853.854 1.28 1.948 1.28 3.284l-7.032 1.15Zm1.132 8.35c-1.188 0-2.134-.26-2.802-.799-.668-.538-1.002-1.224-1.002-2.04 0-1.708 1.15-2.784 3.432-3.23l6.272-1.15v1.15c0 1.8-.557 3.267-1.67 4.38-1.113 1.132-2.523 1.688-4.23 1.688ZM281.863 37h2.672V18.76h-2.672v7.794h-10.446V18.76h-2.653V37h2.653v-7.979h10.446V37Zm25.661-2.468h-2.857V18.761h-12.524v5.325c0 1.336-.13 2.635-.353 3.86-.223 1.224-.482 2.207-.779 2.95a14.89 14.89 0 0 1-.984 2.04c-.371.631-.649 1.04-.798 1.225a4.122 4.122 0 0 1-.333.371h-1.318v7.033h2.653V37h14.64v4.565h2.653v-7.033ZM294.796 21.23h7.218v13.303h-10.261l.761-1.057c.501-.706 1.002-1.93 1.503-3.674.519-1.726.76-3.637.76-5.715l.019-2.857Zm20.892 5.325c-1.725.297-3.042.909-3.952 1.837-.927.927-1.373 2.152-1.373 3.674 0 1.391.613 2.616 1.856 3.692s2.783 1.614 4.601 1.614c.724 0 1.429-.093 2.116-.297.686-.185 1.243-.408 1.669-.668.409-.26.798-.538 1.169-.872.372-.334.594-.556.705-.686.112-.13.186-.242.242-.316V37h2.653V25.403c0-1.985-.686-3.655-2.06-5.01-1.373-1.335-3.08-2.022-5.158-2.022a8.18 8.18 0 0 0-2.412.371c-.779.241-1.41.52-1.892.817-.483.315-.947.668-1.392 1.057-.445.39-.724.668-.854.817-.129.148-.222.278-.296.37l1.707 1.708.575-.65c.371-.445.983-.89 1.837-1.336a5.809 5.809 0 0 1 2.727-.668c1.336 0 2.431.427 3.284 1.262.854.854 1.281 1.948 1.281 3.284l-7.033 1.15Zm1.132 8.35c-1.187 0-2.133-.26-2.801-.799-.668-.538-1.002-1.224-1.002-2.04 0-1.708 1.15-2.784 3.432-3.23l6.272-1.15v1.15c0 1.8-.557 3.267-1.67 4.38-1.113 1.132-2.524 1.688-4.231 1.688Z" fill="#323264"/><path fill-rule="evenodd" clip-rule="evenodd" d="M359.258 27.145h-11.929l5.256-15.991 5.947.035-3.453 10.546 5.929.004-1.75 5.406Z" fill="url(#b)"/><path fill-rule="evenodd" clip-rule="evenodd" d="M334.904 47.904H329s10.754-33.11 13.266-40.84A8.774 8.774 0 0 1 350.609 1h10.556c3.183 0 5.84 1.345 7.492 3.618 1.65 2.273 2.119 5.181 1.156 8.148l-2.708 8.334a8.739 8.739 0 0 1-7.846 6.047s-.019-.006 5.031-15.555c.446-1.372.283-2.715-.417-3.678-.7-.963-1.88-1.533-3.441-1.533h-9.058a4.106 4.106 0 0 0-3.904 2.838l-12.566 38.685ZM175.227 1h5.844l-15.226 46.843H160L175.227 1Z" fill="#F0145A"/></g><defs><linearGradient id="b" x1="347.328" y1="24.082" x2="360.6" y2="31.017" gradientUnits="userSpaceOnUse"><stop stop-color="#F0145A"/><stop offset="1" stop-color="#693264"/></linearGradient><clipPath id="a"><path fill="#fff" d="M0 0h419v63H0z"/></clipPath></defs></svg>