<svg width="174" height="44" fill="none" xmlns="http://www.w3.org/2000/svg"><g clip-path="url(#a)" fill="#fff"><path d="M44.106 22c0-4.956-1.677-9.767-4.76-13.653A22.06 22.06 0 0 0 27.12.59a22.102 22.102 0 0 0-14.413 1.485A22.029 22.029 0 0 0 2.328 12.16 21.953 21.953 0 0 0 .466 26.497 21.99 21.99 0 0 0 7.923 38.89a22.084 22.084 0 0 0 13.557 5.102A22.089 22.089 0 0 0 35.285 39.6h-13.79a17.67 17.67 0 0 1-9.614-3.157 17.607 17.607 0 0 1-6.292-7.91 17.56 17.56 0 0 1-.9-10.056 17.587 17.587 0 0 1 4.789-8.895 17.656 17.656 0 0 1 8.901-4.806c3.374-.7 6.88-.4 10.084.865a17.636 17.636 0 0 1 7.948 6.25 17.571 17.571 0 0 1 3.197 9.581V35.2A21.614 21.614 0 0 0 44.106 22Z"/><path d="M33.065 32.985v-9.24h-6.851a4.741 4.741 0 0 1-2.074 2.272 4.759 4.759 0 0 1-5.755-.92 4.732 4.732 0 0 1 1.886-7.7 4.76 4.76 0 0 1 5.531 1.831h6.925a11.11 11.11 0 0 0-2.991-5.276 11.17 11.17 0 0 0-11.39-2.633 11.145 11.145 0 0 0-5.013 3.426 11.092 11.092 0 0 0-1.654 11.546 11.123 11.123 0 0 0 3.851 4.688 11.162 11.162 0 0 0 5.744 1.977l11.791.03ZM59.397 15.796a7.6 7.6 0 0 0-4.21 1.283 7.572 7.572 0 0 0-2.788 3.399 7.55 7.55 0 0 0 1.653 8.243 7.604 7.604 0 0 0 8.266 1.634 7.583 7.583 0 0 0 3.402-2.788 7.555 7.555 0 0 0 1.278-4.203 7.478 7.478 0 0 0-2.205-5.379 7.514 7.514 0 0 0-5.396-2.189Zm0 11.528a3.83 3.83 0 0 1-2.795-1.147 3.811 3.811 0 0 1-1.087-2.813 3.878 3.878 0 0 1 1.05-2.901 3.897 3.897 0 0 1 4.385-.905 3.896 3.896 0 0 1 2.118 2.247c.181.499.258 1.03.225 1.559a3.806 3.806 0 0 1-2.376 3.678 3.83 3.83 0 0 1-1.52.282Zm13.732-8.653v-2.538h-3.705v14.344h3.705v-6.79a3.57 3.57 0 0 1 1.292-2.924 3.59 3.59 0 0 1 3.118-.728v-4.122a4.419 4.419 0 0 0-2.656.66 4.403 4.403 0 0 0-1.754 2.098Zm17.172-.778a5.688 5.688 0 0 0-4.675-2.097 7.277 7.277 0 0 0-5.063 2.338 7.24 7.24 0 0 0-1.906 5.23 7.231 7.231 0 0 0 1.906 5.23 7.26 7.26 0 0 0 5.063 2.338 5.701 5.701 0 0 0 4.675-2.097v1.701h3.705V16.133H90.3v1.76Zm-3.984 9.519a3.858 3.858 0 0 1-3.742-2.483 3.833 3.833 0 0 1-.243-1.565c0-1.05.418-2.058 1.163-2.8a3.975 3.975 0 0 1 5.614 0 3.955 3.955 0 0 1 1.162 2.8 3.847 3.847 0 0 1-1.093 2.884 3.868 3.868 0 0 1-2.861 1.164Zm18.906-11.616a4.89 4.89 0 0 0-4.278 2.01v-1.673h-3.69v14.344h3.69v-7.685c0-2.493 1.353-3.55 3.161-3.55a2.667 2.667 0 0 1 2.71 1.788c.126.368.17.76.128 1.146v8.345h3.705v-8.8c0-3.798-2.382-5.925-5.426-5.925Zm19.451 2.185a5.448 5.448 0 0 0-4.587-2.185 7.223 7.223 0 0 0-5.108 2.177 7.187 7.187 0 0 0-2.037 5.156 7.164 7.164 0 0 0 4.37 6.76 7.203 7.203 0 0 0 2.775.574 5.448 5.448 0 0 0 4.587-2.185v1.554a3.313 3.313 0 0 1-1.043 2.641 3.334 3.334 0 0 1-2.706.879 3.713 3.713 0 0 1-2.201-.41 3.697 3.697 0 0 1-1.562-1.6l-3.161 1.82a7.342 7.342 0 0 0 2.909 2.706 7.368 7.368 0 0 0 3.898.799c3.778 0 7.483-2.127 7.483-6.82V16.133h-3.617v1.848Zm-4.013 9.079a3.93 3.93 0 0 1-3.562-2.474 3.909 3.909 0 0 1 .9-4.235 3.93 3.93 0 0 1 6.012.616c.43.64.66 1.392.663 2.162a3.83 3.83 0 0 1-4.013 3.93Zm17.716-11.264a7.366 7.366 0 0 0-5.399 2.166 7.325 7.325 0 0 0-2.129 5.402 7.319 7.319 0 0 0 2.244 5.531 7.364 7.364 0 0 0 5.622 2.037 7.28 7.28 0 0 0 3.492-.748 7.255 7.255 0 0 0 2.712-2.317l-2.94-1.716a3.996 3.996 0 0 1-3.22 1.466 3.755 3.755 0 0 1-2.543-.585 3.74 3.74 0 0 1-1.544-2.099h10.879c.092-.483.141-.974.147-1.466a7.227 7.227 0 0 0-1.99-5.422 7.268 7.268 0 0 0-5.331-2.249ZM134.613 22a3.567 3.567 0 0 1 3.764-2.933A3.463 3.463 0 0 1 141.935 22h-7.322Zm24.376-4.121a5.688 5.688 0 0 0-4.616-2.083 7.272 7.272 0 0 0-5.062 2.338 7.232 7.232 0 0 0-1.907 5.23 7.24 7.24 0 0 0 4.204 6.903 7.27 7.27 0 0 0 2.765.665 5.703 5.703 0 0 0 4.675-2.097v1.701h3.705V16.133h-3.705l-.059 1.746Zm-3.984 9.518a3.86 3.86 0 0 1-3.715-2.49 3.832 3.832 0 0 1-.24-1.558c0-1.05.418-2.057 1.163-2.8a3.974 3.974 0 0 1 5.614 0 3.957 3.957 0 0 1 1.162 2.8 3.843 3.843 0 0 1-1.097 2.905 3.872 3.872 0 0 1-2.887 1.158v-.015Zm14.629-8.8v-2.464h-3.705v14.344h3.705v-6.79a3.566 3.566 0 0 1 1.292-2.924 3.587 3.587 0 0 1 3.118-.728v-4.122a4.417 4.417 0 0 0-4.41 2.758v-.074Z"/></g><defs><clipPath id="a"><path fill="#fff" d="M0 0h174v44H0z"/></clipPath></defs></svg>