<svg width="375" height="436" fill="none" xmlns="http://www.w3.org/2000/svg"><path fill-rule="evenodd" clip-rule="evenodd" d="M-34.205 687.461H-81S106.848 109.284 126.75 48.049C136.062 19.398 162.757 0 192.877 0h83.657c25.228 0 46.283 10.656 59.374 28.663 13.082 18.009 16.793 41.05 9.165 64.557-7.639 23.506-14.854 45.696-21.459 66.027-8.918 27.452-33.624 46.367-62.189 47.906 0 0-.148-.048 39.875-123.234 3.534-10.87 2.244-21.511-3.308-29.143-5.541-7.63-14.892-12.146-27.265-12.146h-71.786c-14.096 0-26.587 9.077-30.948 22.485L-34.205 687.46Z" fill="#F0145A"/><path fill-rule="evenodd" clip-rule="evenodd" d="M261.416 207.155h-94.318l41.558-126.393 47.017.278-27.301 83.354 46.877.028-13.833 42.733Z" fill="url(#a)"/><defs><linearGradient id="a" x1="146.091" y1="182.946" x2="251.01" y2="237.784" gradientUnits="userSpaceOnUse"><stop stop-color="#F0145A"/><stop offset="1" stop-color="#693264"/></linearGradient></defs></svg>