<svg width="132" height="42" fill="none" xmlns="http://www.w3.org/2000/svg"><path d="M51.557 17.266c-1.688 0-3.006.299-3.955.896l.369-4.676h10.424V8.793H43.102l-.897 14.414 3.78.352.386-.51c.264-.317.738-.65 1.424-.985.668-.316 1.441-.492 2.32-.492 1.248 0 2.285.405 3.094 1.196.809.808 1.213 1.793 1.213 2.953 0 1.177-.37 2.127-1.143 2.865-.773.738-1.828 1.09-3.181 1.09a7.216 7.216 0 0 1-3.094-.703c-1.002-.457-1.652-.826-1.951-1.108-.3-.281-.528-.51-.703-.703l-3.252 3.41.369.405c.21.298.58.632 1.09 1.02.527.386 1.125.755 1.81 1.142.686.386 1.582.72 2.672 1.002 1.09.28 2.233.404 3.428.404 2.848 0 5.15-.826 6.908-2.496s2.637-3.78 2.637-6.328c0-2.426-.791-4.43-2.409-6.047-1.617-1.6-3.62-2.408-6.046-2.408Zm17.472 4.13c0-2.636.528-4.675 1.6-6.117 1.055-1.441 2.32-2.162 3.797-2.162 1.459 0 2.724.72 3.797 2.162 1.054 1.442 1.6 3.48 1.6 6.117s-.546 4.676-1.6 6.118c-1.073 1.441-2.338 2.162-3.797 2.162-1.477 0-2.742-.72-3.797-2.162-1.072-1.442-1.6-3.48-1.6-6.117Zm16.19 0c0-3.937-1.055-7.101-3.147-9.51-2.11-2.407-4.658-3.62-7.646-3.62-3.006 0-5.555 1.213-7.647 3.62-2.11 2.409-3.146 5.573-3.146 9.51 0 3.938 1.037 7.12 3.146 9.528 2.092 2.426 4.64 3.62 7.647 3.62 2.988 0 5.537-1.194 7.646-3.62 2.092-2.408 3.147-5.59 3.147-9.527Zm9.369 0c0-2.636.527-4.675 1.6-6.117 1.054-1.441 2.32-2.162 3.796-2.162 1.459 0 2.725.72 3.797 2.162 1.055 1.442 1.6 3.48 1.6 6.117s-.545 4.676-1.6 6.118c-1.072 1.441-2.338 2.162-3.797 2.162-1.476 0-2.742-.72-3.796-2.162-1.073-1.442-1.6-3.48-1.6-6.117Zm16.189 0c0-3.937-1.054-7.101-3.146-9.51-2.11-2.407-4.658-3.62-7.647-3.62-3.005 0-5.554 1.213-7.646 3.62-2.11 2.409-3.147 5.573-3.147 9.51 0 3.938 1.037 7.12 3.147 9.528 2.092 2.426 4.64 3.62 7.646 3.62 2.989 0 5.537-1.194 7.647-3.62 2.092-2.408 3.146-5.59 3.146-9.527Zm13.5 10.442V25.72h6.135v-4.5h-6.135v-6.117h-4.131v6.117h-6.117v4.5h6.117v6.117h4.131Z" fill="url(#a)"/><path d="M16.097 8.553c-6.844 0-12.413 5.568-12.413 12.413 0 6.845 5.569 12.414 12.413 12.414 6.845 0 12.413-5.569 12.413-12.414S22.942 8.553 16.097 8.553Zm6.859 11.505v.001l-3.594 2.6 1.384 4.23a.669.669 0 0 1-1.027.752l-3.621-2.62-3.622 2.62a.67.67 0 0 1-1.027-.752l1.385-4.23-3.594-2.6a.668.668 0 0 1 .392-1.21h4.449l1.377-4.211a.67.67 0 0 1 1.28 0l1.377 4.21h4.449a.669.669 0 0 1 .392 1.21Z" fill="#F0145A"/><defs><linearGradient id="a" x1="39.727" y1="11.76" x2="132.109" y2="12.222" gradientUnits="userSpaceOnUse"><stop stop-color="#F0145A"/><stop offset="1" stop-color="#EF8080"/></linearGradient></defs></svg>